{"glyphs":{"0":{"ha":682,"x_min":75,"x_max":609,"o":"m 115 122 q 85 187 95 162 q 75 233 75 212 q 80 323 75 282 q 106 397 85 364 l 153 473 q 179 496 161 482 q 218 523 197 510 q 259 544 239 535 q 292 553 280 553 q 311 548 304 549 q 323 547 318 547 q 332 549 329 547 q 338 553 335 551 l 372 553 q 416 547 397 553 q 456 524 435 541 l 500 481 l 526 468 q 544 447 539 459 q 552 421 549 435 q 557 395 555 408 q 569 372 560 382 q 582 357 576 361 q 592 349 587 353 q 600 338 596 345 q 606 319 603 332 q 606 304 606 314 q 608 282 607 294 q 609 259 608 271 q 609 237 609 247 q 606 220 609 231 q 599 197 603 209 q 591 177 595 186 q 587 167 587 168 q 578 146 585 159 q 565 118 572 132 q 551 92 557 104 q 540 75 544 80 q 514 60 524 68 q 498 44 505 52 q 485 29 492 36 q 468 19 479 22 q 448 11 458 14 q 427 5 438 7 q 406 0 416 3 q 385 -6 395 -2 l 351 -6 q 273 3 304 -6 q 217 28 241 12 q 169 68 192 45 q 115 122 146 92 m 132 281 q 139 242 132 267 q 158 192 146 218 q 184 145 170 167 q 212 113 199 123 q 251 93 228 102 q 300 77 275 83 q 349 66 325 70 q 391 62 373 62 q 398 64 395 62 q 404 69 401 66 q 410 75 407 72 q 418 79 413 77 q 434 85 427 83 q 445 90 440 87 q 454 97 450 92 q 465 109 458 101 q 479 126 471 119 q 494 139 487 133 q 508 154 502 146 q 517 174 515 161 q 519 180 518 176 q 520 190 519 185 q 521 198 520 194 q 522 202 522 201 q 527 217 524 211 q 531 230 529 224 q 534 243 533 236 q 536 260 536 250 q 532 300 536 282 q 508 332 528 318 q 505 345 505 341 q 505 352 505 349 q 502 371 505 363 q 494 385 499 378 q 482 399 489 392 q 468 415 475 406 q 439 447 452 437 q 414 461 427 456 q 388 469 401 465 q 355 484 374 473 l 291 484 q 285 482 290 484 q 273 477 280 480 q 258 470 266 473 q 246 463 251 466 q 207 431 227 452 q 170 383 186 409 q 142 330 153 357 q 132 281 132 302 z "},"1":{"ha":517,"x_min":65,"x_max":455,"o":"m 75 24 q 82 46 75 38 q 101 58 90 54 q 128 64 113 62 q 156 68 142 66 q 180 74 170 71 q 197 85 191 78 q 202 98 199 90 q 208 115 205 106 q 212 132 210 123 q 214 144 214 140 l 197 233 q 199 248 197 238 q 204 269 201 258 q 209 288 206 279 q 211 299 211 297 l 197 424 q 199 436 197 431 q 205 450 201 442 q 175 475 190 465 q 144 493 160 486 q 120 499 134 496 q 94 505 106 501 q 74 517 82 509 q 65 538 65 525 q 70 551 65 547 q 82 558 75 556 q 97 562 90 561 q 110 562 104 562 l 182 557 q 195 558 191 557 q 211 562 200 559 q 239 559 226 560 q 267 557 253 557 q 291 558 279 557 q 317 562 304 559 q 334 570 323 567 q 359 576 346 574 q 386 579 372 578 q 407 580 399 580 q 420 579 412 580 q 436 576 429 578 q 450 569 444 574 q 455 556 455 564 q 444 529 455 539 q 417 513 433 519 q 385 503 401 507 q 357 496 368 500 q 348 489 353 494 q 340 477 344 484 q 333 463 336 470 q 327 450 330 456 l 317 323 l 330 227 l 317 209 q 320 201 317 208 q 323 193 322 195 l 323 193 q 320 176 323 184 q 317 159 317 168 q 324 131 317 142 q 333 103 330 119 q 340 102 335 103 q 353 100 346 101 q 366 98 359 99 q 376 96 373 97 q 394 86 381 94 q 420 71 407 79 q 445 53 434 62 q 455 35 455 43 l 455 34 q 449 20 454 26 q 436 6 444 13 l 340 2 q 335 5 339 3 q 330 6 330 6 q 321 7 326 7 q 311 7 317 7 l 280 7 q 213 6 248 7 q 149 0 179 5 l 136 -7 q 99 3 115 -7 q 75 24 83 12 z "},"2":{"ha":652,"x_min":62,"x_max":603,"o":"m 62 8 q 67 22 63 12 q 75 40 72 33 q 86 49 78 44 q 103 58 94 54 q 121 67 112 63 q 134 75 130 72 q 158 91 145 84 q 183 106 170 98 q 209 121 196 113 q 232 140 221 130 q 276 184 253 158 q 318 241 299 211 q 349 303 337 271 q 361 365 361 335 q 355 393 361 379 q 337 417 348 406 q 311 434 326 427 q 280 441 296 441 l 254 432 l 229 432 q 216 431 222 432 q 203 422 209 430 q 184 402 193 415 q 168 378 176 390 q 149 358 159 367 q 124 350 139 350 q 109 351 117 350 q 97 358 102 352 l 97 378 q 100 405 97 396 q 109 419 103 414 q 121 430 114 425 q 137 447 129 435 l 146 458 q 179 497 162 479 q 224 524 197 515 l 275 530 l 309 537 q 347 534 325 537 q 392 526 369 532 q 435 509 414 519 q 468 484 455 499 q 476 471 473 478 q 482 463 479 463 l 503 428 l 503 350 q 494 327 503 337 q 477 307 485 316 q 476 304 477 306 q 473 296 475 302 q 468 281 471 291 q 458 257 465 272 q 457 255 458 256 q 455 254 456 254 q 444 243 448 249 q 438 232 441 238 q 433 221 436 227 q 425 210 431 215 q 410 201 417 204 q 396 196 404 198 q 382 193 389 195 q 368 188 375 192 q 363 184 368 188 q 354 176 359 180 q 344 167 349 171 q 338 162 339 163 q 332 159 337 162 q 320 151 326 155 q 309 142 314 146 q 302 137 303 138 q 293 128 299 134 q 281 115 287 122 q 271 102 275 109 q 267 92 267 95 q 271 88 267 88 l 293 88 q 326 86 311 88 q 354 79 340 85 l 389 79 q 461 84 425 79 q 530 104 498 90 q 537 113 536 108 q 541 122 538 117 q 564 142 550 134 q 593 159 578 151 l 603 124 q 598 101 603 113 q 585 75 593 89 q 581 58 583 71 q 575 33 579 46 q 564 10 571 20 q 547 0 557 0 l 535 -1 q 483 -9 509 -5 q 432 -13 458 -13 q 416 -10 424 -13 q 401 -4 408 -7 q 386 2 393 -1 q 371 5 378 5 q 339 3 357 5 q 311 -2 322 1 q 302 -6 308 -2 q 293 -13 296 -9 l 231 5 q 215 0 223 5 q 198 -6 208 -5 q 174 -8 185 -7 q 151 -11 163 -9 q 126 -12 139 -12 q 98 -13 114 -13 q 75 -9 87 -13 q 62 6 62 -5 l 62 8 z "},"3":{"ha":519,"x_min":33,"x_max":433,"o":"m 33 -229 q 35 -208 33 -216 q 40 -196 36 -200 q 52 -189 44 -191 q 73 -183 60 -186 q 90 -176 79 -180 q 107 -172 101 -172 q 127 -177 117 -172 q 145 -188 136 -182 q 165 -199 155 -194 q 186 -204 175 -204 q 218 -198 203 -204 q 247 -183 233 -193 q 271 -160 260 -173 q 289 -134 281 -147 q 291 -123 290 -131 q 292 -111 292 -115 q 299 -107 295 -109 q 306 -103 302 -105 q 312 -98 309 -101 q 315 -89 315 -95 l 315 -21 q 312 -11 315 -17 q 305 1 309 -5 q 297 12 301 7 q 292 18 294 16 q 270 44 281 33 q 244 65 258 55 q 217 84 231 75 q 189 103 203 93 q 186 107 189 104 q 181 114 184 111 q 175 120 178 117 q 170 122 172 122 q 155 119 163 122 q 138 113 146 116 q 122 106 130 109 q 107 103 114 103 q 91 113 99 103 q 83 130 83 122 q 95 154 83 144 q 122 171 106 164 q 153 183 137 178 q 177 191 168 188 q 180 195 178 192 q 186 202 183 198 q 193 209 190 205 q 199 212 197 212 q 213 223 205 218 q 228 232 221 228 q 242 242 235 237 q 254 256 249 248 l 262 267 q 296 328 280 297 q 311 393 311 359 q 307 399 311 395 q 297 410 303 404 q 285 424 291 416 q 275 437 279 431 q 256 450 269 447 q 233 453 243 453 q 191 440 208 445 q 151 435 174 435 l 120 437 q 106 447 109 437 q 102 465 102 457 q 106 484 102 480 l 123 493 q 146 511 138 500 q 167 532 155 522 q 194 547 179 541 q 224 557 208 553 q 255 564 239 562 q 286 566 271 566 q 312 560 300 566 q 337 547 323 554 q 376 529 361 538 q 400 509 391 521 q 415 482 409 498 q 426 444 420 467 q 430 429 427 436 q 433 414 433 422 q 428 381 433 399 q 415 343 423 362 q 396 307 407 324 q 376 278 386 290 q 365 268 371 271 q 353 262 359 264 q 340 257 347 260 q 329 249 334 254 q 315 228 318 238 q 304 209 312 218 q 290 190 290 204 q 291 187 290 187 q 291 185 291 186 q 308 165 295 176 q 335 143 320 155 q 363 121 349 132 q 382 103 376 111 q 391 70 385 83 q 404 45 397 57 q 415 19 410 33 q 420 -18 420 5 q 419 -39 420 -25 q 415 -69 418 -54 q 410 -98 413 -85 q 404 -117 407 -112 l 386 -140 q 379 -151 382 -144 q 373 -165 376 -158 q 367 -178 370 -172 q 358 -190 363 -185 q 309 -231 340 -209 q 242 -273 278 -254 q 170 -304 206 -292 q 108 -317 134 -317 q 89 -308 96 -317 q 73 -290 81 -299 q 56 -279 63 -284 q 44 -267 49 -273 q 36 -251 39 -260 q 33 -229 33 -242 z "},"4":{"ha":681,"x_min":28,"x_max":671,"o":"m 298 -210 l 311 -174 l 307 -132 q 310 -105 307 -117 q 316 -80 313 -94 q 322 -52 319 -66 q 324 -24 324 -39 q 317 -11 324 -18 q 307 -1 310 -4 l 229 2 q 207 1 220 2 q 180 -2 194 1 q 151 -7 164 -5 q 125 -9 138 -9 l 99 -3 q 94 -5 98 -3 q 83 -9 90 -7 q 74 -7 77 -9 q 68 -3 71 -5 q 61 1 65 -1 q 49 3 57 3 q 36 2 39 3 q 30 20 31 13 q 28 39 28 28 q 30 60 28 53 q 36 77 31 68 q 94 163 66 120 q 147 251 121 206 l 162 277 q 170 283 165 281 q 178 287 174 285 q 186 290 182 288 q 194 298 190 292 q 196 308 195 301 q 197 317 197 314 q 203 322 199 318 q 211 330 207 326 q 219 339 216 334 q 223 345 223 343 l 233 370 l 245 381 q 251 392 247 384 q 260 408 255 399 q 270 424 265 416 q 277 435 275 432 q 278 443 277 437 q 281 448 279 448 l 317 486 q 318 491 317 489 q 321 496 319 494 q 322 500 321 497 q 324 507 323 503 q 326 514 325 511 q 328 517 328 517 l 349 540 q 363 559 358 551 q 375 574 369 568 q 390 584 381 581 q 414 587 399 587 q 433 570 426 587 q 443 533 439 554 q 448 492 447 512 q 449 463 449 471 l 448 431 q 437 412 439 420 q 436 392 436 404 q 439 374 436 380 q 443 358 443 368 l 437 310 l 437 298 l 443 277 l 433 155 q 435 136 433 145 q 451 124 437 126 q 474 122 463 123 q 496 122 485 122 q 520 122 508 122 q 545 124 532 123 q 566 135 555 134 q 591 136 576 136 q 611 132 597 136 q 637 120 624 127 q 661 104 650 113 q 671 85 671 95 q 667 52 671 68 q 655 23 663 36 q 633 3 646 11 q 600 -5 619 -5 q 586 -3 593 -5 q 572 1 579 -1 q 556 4 565 3 q 536 6 547 6 q 521 4 529 5 q 504 3 513 3 q 478 2 491 3 q 456 -4 466 1 q 439 -19 446 -9 q 433 -45 433 -28 q 432 -52 432 -47 q 432 -62 432 -57 l 432 -117 q 432 -129 432 -123 q 433 -137 432 -134 q 429 -157 429 -146 q 433 -170 429 -166 q 440 -184 437 -174 q 444 -231 444 -209 q 440 -277 444 -256 q 434 -291 440 -283 q 419 -307 427 -299 q 402 -319 410 -314 q 390 -325 393 -325 q 378 -318 384 -325 q 364 -311 372 -312 q 332 -301 342 -306 q 318 -288 322 -296 q 313 -268 315 -279 q 307 -236 312 -256 l 298 -210 m 158 129 q 164 116 158 121 q 179 109 170 111 q 198 107 188 107 q 218 106 209 106 q 247 109 227 106 q 290 115 268 111 q 329 126 312 119 q 345 142 345 132 q 344 163 345 150 q 342 190 343 177 q 339 214 340 203 q 338 225 338 224 l 332 237 q 332 249 332 242 q 332 265 332 256 q 330 291 332 277 q 323 314 328 304 q 310 332 318 325 q 289 339 302 339 q 266 329 277 339 q 244 306 254 319 q 226 277 234 292 q 212 254 218 263 l 167 164 q 159 146 161 152 q 158 129 158 140 z "},"5":{"ha":503,"x_min":64,"x_max":465,"o":"m 64 -254 q 75 -218 64 -237 q 104 -191 86 -199 q 157 -140 133 -165 q 195 -88 181 -115 q 201 -63 201 -79 q 202 -51 201 -57 q 204 -41 203 -45 l 217 -7 q 218 1 217 -1 q 218 7 218 3 q 220 13 218 10 q 224 18 222 15 q 228 25 227 20 q 230 37 230 29 l 227 66 l 234 102 q 228 118 234 107 q 213 141 222 129 q 195 165 204 153 q 180 184 186 177 q 178 187 178 185 q 175 190 177 189 l 174 193 q 160 205 170 197 q 139 221 150 213 q 119 238 128 230 q 109 251 110 245 l 104 272 q 95 289 99 281 q 88 302 91 296 q 84 316 85 309 q 82 336 82 324 q 82 352 82 345 q 84 365 83 359 q 88 379 85 372 q 94 397 90 387 q 92 406 93 401 q 91 413 91 410 q 94 440 91 429 q 103 460 98 451 q 114 479 108 470 q 127 498 121 488 l 127 516 l 148 538 q 166 561 159 552 q 183 576 174 570 q 204 583 193 581 q 235 585 216 585 q 266 583 250 585 q 298 576 281 580 q 330 570 314 572 q 360 567 346 567 q 392 575 377 567 q 418 594 406 584 q 440 613 431 605 q 458 622 450 622 q 462 619 460 622 q 464 612 463 616 q 465 604 465 608 q 465 597 465 600 l 465 596 q 457 564 460 578 q 451 542 454 552 q 446 530 448 532 q 443 523 446 527 q 439 516 440 519 l 426 503 q 421 487 422 496 q 416 469 419 477 q 407 453 413 460 q 391 447 401 447 q 342 451 365 447 q 298 461 319 456 q 254 472 276 467 q 209 476 232 476 l 178 476 q 161 460 167 473 q 155 435 155 447 q 171 413 155 431 q 207 374 186 395 l 231 350 q 254 322 243 336 q 270 298 264 307 q 288 270 276 283 q 310 241 299 257 l 321 215 q 336 200 334 204 q 338 193 338 197 q 340 172 338 182 q 349 159 341 163 l 349 130 l 343 64 l 349 47 q 348 33 349 41 q 346 16 347 25 q 343 -1 345 7 q 339 -15 341 -9 l 324 -32 q 319 -45 321 -37 q 317 -61 318 -53 q 314 -78 316 -70 q 310 -94 313 -87 q 290 -125 303 -105 q 260 -167 277 -144 q 224 -213 243 -189 q 185 -255 205 -236 q 148 -285 166 -273 q 115 -297 130 -297 q 99 -294 108 -297 q 82 -286 90 -291 q 70 -272 75 -280 q 64 -254 64 -264 z "},"6":{"ha":586,"x_min":68,"x_max":606,"o":"m 68 229 q 75 282 68 255 q 86 334 82 310 q 91 346 90 338 q 102 372 98 358 q 112 400 107 386 q 123 429 117 414 q 139 458 129 444 q 156 483 147 473 q 173 501 165 494 q 192 518 184 510 q 206 536 199 527 q 219 555 212 545 q 234 577 225 566 l 266 606 l 274 624 q 281 629 275 625 q 298 640 288 634 q 318 652 307 646 q 338 663 329 659 q 348 668 345 666 q 353 671 351 670 q 357 672 354 671 q 365 675 361 673 q 373 677 369 676 q 378 680 376 679 q 390 693 385 687 q 399 704 395 699 q 409 714 404 709 q 422 725 414 720 q 453 738 436 731 q 484 753 470 745 q 498 766 492 760 q 509 777 503 772 q 523 784 515 781 q 541 786 530 786 q 560 785 549 786 q 582 782 572 785 q 599 772 592 779 q 606 753 606 765 q 603 739 606 744 q 595 729 600 733 q 583 723 590 726 q 570 717 576 720 q 557 697 562 708 q 541 680 551 686 q 530 677 538 680 q 517 669 523 674 l 497 659 q 479 643 486 652 q 462 624 473 633 q 442 608 454 616 q 419 591 430 600 q 400 571 408 582 q 393 547 393 559 q 374 537 384 541 q 353 529 363 533 q 334 519 343 525 q 317 501 324 513 q 315 492 317 500 q 313 484 314 484 l 306 475 q 317 470 306 473 q 343 464 328 467 q 372 456 358 460 q 393 450 387 453 q 418 434 407 441 q 440 419 430 427 q 459 401 450 411 q 479 379 469 392 q 490 361 484 376 q 502 329 496 346 q 512 297 508 312 q 516 278 516 282 q 513 253 515 260 q 511 244 511 245 q 513 231 512 236 q 513 220 513 225 q 512 208 513 212 q 511 201 511 203 q 508 174 511 186 q 497 148 505 162 q 473 108 483 126 q 450 69 464 90 q 447 67 449 68 q 444 64 444 66 q 436 63 443 64 q 425 61 429 62 q 420 56 424 60 q 413 49 417 53 q 406 41 409 45 q 401 35 402 37 q 391 35 397 35 q 376 34 384 35 q 361 32 368 33 q 353 29 355 31 q 340 24 345 28 q 330 17 335 20 q 319 10 325 13 q 306 7 314 7 q 279 9 291 7 q 256 16 267 12 q 234 25 245 20 q 210 35 222 30 q 203 37 208 35 q 191 39 197 38 q 179 42 184 41 q 173 43 174 43 q 156 52 165 45 q 138 68 146 59 q 121 86 129 77 q 109 100 113 95 q 104 111 107 100 q 98 133 101 121 q 91 157 94 146 q 86 172 87 169 q 84 181 86 175 q 81 194 83 187 q 77 205 79 200 q 73 212 75 211 q 70 221 71 220 q 68 229 68 222 m 147 228 l 151 211 q 155 198 153 208 q 162 176 158 189 q 173 148 167 163 q 187 119 179 133 q 208 90 195 103 q 238 69 222 77 q 241 68 239 68 q 246 68 243 68 l 290 68 q 304 72 297 69 q 317 79 312 75 q 324 85 318 80 q 337 98 330 91 q 350 111 344 104 q 356 119 355 117 q 381 146 372 132 q 396 176 391 160 q 402 211 401 192 q 404 251 404 229 q 402 271 404 262 q 397 288 400 279 q 389 304 393 296 q 382 323 385 313 l 382 346 q 366 369 375 363 q 342 381 356 376 q 329 389 337 383 q 313 402 321 395 q 295 415 304 409 q 277 422 286 420 q 261 421 271 422 q 240 417 251 420 q 220 411 229 415 q 210 400 212 406 l 165 313 l 166 302 q 166 287 166 296 q 165 271 165 279 q 164 257 165 263 q 161 249 163 251 q 159 244 161 248 q 154 237 157 241 q 150 231 152 234 q 147 228 147 228 z "},"7":{"ha":650,"x_min":59,"x_max":578,"o":"m 337 -317 l 332 -311 l 337 -289 q 334 -269 334 -281 q 337 -254 334 -262 l 332 -233 q 349 -201 341 -218 q 361 -168 356 -184 l 372 -129 q 385 -98 376 -113 q 397 -68 394 -83 q 406 -27 399 -45 q 419 14 413 -9 q 423 26 422 22 q 424 35 424 30 q 422 41 424 39 q 421 50 421 44 l 424 66 l 425 70 q 427 75 427 75 q 433 80 429 77 q 440 88 436 84 q 446 96 444 92 q 450 101 449 100 l 456 122 q 469 167 463 143 q 490 209 476 191 l 490 227 q 492 259 490 243 q 498 290 495 275 q 505 323 502 306 q 511 360 509 340 q 504 388 511 377 q 487 405 497 399 q 463 412 476 410 q 435 414 449 414 l 385 414 q 330 420 357 417 q 273 422 303 422 l 262 422 l 254 428 l 144 428 q 130 413 136 428 q 115 381 123 399 q 95 349 107 363 q 62 334 83 334 q 59 340 59 334 l 60 357 q 62 380 60 370 q 67 399 64 391 q 72 416 69 408 q 74 432 74 424 q 77 462 76 441 q 81 503 77 482 q 94 539 85 524 q 120 555 102 555 q 132 551 128 553 q 136 546 135 549 q 139 540 138 543 q 144 532 140 536 q 157 529 145 532 q 183 523 169 526 q 211 517 198 519 q 227 515 223 515 q 233 515 230 515 q 239 517 236 516 q 246 519 243 519 q 254 519 249 519 q 282 516 268 519 q 310 511 296 513 q 358 508 335 511 q 404 505 381 505 q 432 509 417 505 q 458 511 444 511 q 469 510 465 511 q 481 501 472 509 l 555 501 q 561 499 557 501 q 569 493 565 496 q 575 486 572 490 q 578 481 578 483 q 575 457 578 469 q 570 436 573 446 q 565 415 567 425 q 562 395 562 405 l 568 350 q 562 315 565 334 q 555 276 559 296 q 544 239 551 257 q 525 209 536 222 l 525 153 q 512 132 517 143 q 498 109 507 120 q 491 98 495 104 q 486 89 486 92 l 494 66 q 491 61 494 64 q 486 53 489 57 q 480 45 483 49 q 475 40 477 41 q 469 21 470 31 q 468 2 469 12 q 463 -15 467 -7 q 450 -28 460 -23 l 450 -40 q 448 -63 450 -50 q 445 -89 447 -76 q 441 -113 443 -101 q 437 -134 439 -125 q 433 -142 437 -138 q 423 -168 426 -155 q 419 -193 420 -180 q 418 -220 418 -206 q 416 -248 418 -233 q 405 -269 413 -260 q 393 -290 397 -279 l 390 -302 q 378 -321 385 -315 q 350 -326 372 -326 q 337 -317 340 -326 z "},"8":{"ha":545,"x_min":77,"x_max":470,"o":"m 326 437 q 346 412 336 422 q 366 393 355 402 q 386 375 376 384 q 408 353 397 366 l 421 332 l 437 318 q 449 292 443 310 q 459 254 454 274 q 467 215 464 233 q 470 188 470 197 q 469 163 470 177 q 466 134 469 149 q 459 105 464 119 q 447 83 455 92 q 408 44 427 61 q 368 17 389 28 q 322 0 347 5 q 266 -6 298 -6 q 176 13 218 -6 q 103 69 134 31 q 87 110 97 90 q 77 153 77 131 q 82 183 77 168 q 94 212 87 198 q 109 240 100 227 q 124 267 117 254 q 133 291 130 279 q 146 313 136 302 q 163 330 153 321 q 182 349 173 339 q 197 369 191 358 q 203 393 203 380 q 195 415 203 404 q 177 437 188 427 q 154 458 166 448 q 131 475 141 468 q 119 497 127 478 q 101 537 111 515 q 84 578 92 559 q 77 604 77 598 q 87 687 77 648 q 118 756 97 726 q 173 804 140 786 q 254 821 207 821 q 317 816 287 821 q 378 797 347 810 q 405 771 392 788 q 429 735 418 755 q 447 694 439 715 q 456 654 454 673 q 448 611 456 636 q 427 561 439 586 q 400 514 414 536 q 373 480 385 492 q 362 471 370 476 q 347 460 355 466 q 332 449 338 455 q 326 437 326 443 m 203 87 q 238 59 217 71 q 281 47 258 47 q 312 55 298 47 q 337 77 326 64 q 354 105 348 90 q 360 136 360 121 q 356 154 360 146 q 352 174 352 163 q 353 179 352 175 q 357 189 353 182 q 361 199 359 193 q 365 208 363 205 q 354 242 365 220 q 329 283 344 263 q 296 318 313 303 q 266 332 279 332 q 223 317 239 332 q 200 281 208 302 q 189 235 192 259 q 182 191 185 210 q 179 181 180 189 q 178 170 178 173 q 182 159 178 168 q 186 148 185 151 q 190 136 187 144 q 195 118 193 128 q 200 100 198 109 q 203 87 203 91 m 182 650 q 189 606 182 633 q 208 552 195 578 q 238 508 220 526 q 275 489 255 489 q 286 490 279 489 q 301 494 294 490 q 301 499 301 495 q 302 508 302 504 q 304 517 303 513 q 304 522 304 521 q 307 527 304 524 q 311 533 309 530 q 317 540 314 537 q 321 545 319 543 q 327 557 322 547 q 333 572 332 567 q 338 582 334 575 q 346 596 342 589 q 352 608 349 603 q 355 615 355 614 q 351 639 355 627 q 344 663 347 651 q 339 690 341 677 q 334 715 337 703 q 325 739 330 728 q 309 759 319 749 q 298 766 304 762 q 286 775 292 771 q 275 782 279 779 q 269 786 270 785 l 253 786 q 213 772 227 786 q 191 738 198 759 q 183 694 184 718 q 182 650 182 670 z "},"9":{"ha":606,"x_min":-16,"x_max":539,"o":"m -16 -151 l -6 -138 q -5 -132 -6 -136 q -4 -122 -5 -127 q -3 -113 -3 -117 q -3 -108 -3 -109 q 3 -97 0 -100 q 10 -92 7 -94 q 18 -87 14 -90 q 26 -79 22 -84 q 31 -71 30 -75 q 33 -63 32 -66 q 35 -56 33 -59 q 41 -50 37 -52 q 72 -31 59 -43 q 103 -8 85 -19 l 185 29 q 211 53 193 40 q 245 81 228 66 q 277 110 263 95 q 290 138 290 124 q 275 144 290 140 q 239 155 259 149 q 200 168 219 161 q 176 180 182 174 q 124 225 145 204 q 91 270 104 246 q 72 323 78 294 q 66 394 66 353 q 76 441 66 418 q 99 487 85 465 q 132 526 114 508 q 169 558 151 545 q 184 568 176 564 q 199 575 191 572 q 214 583 207 578 q 229 593 221 587 q 260 598 244 597 q 293 600 275 600 q 322 598 307 600 q 351 593 336 597 q 358 590 355 593 q 363 585 361 587 l 404 577 q 430 565 416 573 q 456 547 444 557 q 477 525 468 537 q 492 498 487 512 q 493 485 492 494 q 496 475 494 476 l 512 458 q 525 433 519 448 q 533 402 530 418 q 538 371 536 386 q 539 346 539 356 q 537 331 539 342 q 532 308 534 320 q 527 286 530 296 q 525 275 525 276 l 517 267 l 517 244 q 514 241 517 243 q 508 236 511 239 q 503 230 505 233 q 499 228 500 228 l 499 209 q 496 202 499 205 q 489 195 493 199 q 482 189 486 192 q 477 184 479 186 q 476 175 477 183 q 473 165 475 167 q 461 153 468 158 q 446 142 454 147 q 430 132 437 137 q 416 119 422 126 q 356 49 389 80 q 290 -13 323 18 q 284 -21 290 -14 q 275 -28 278 -27 q 268 -31 274 -28 q 259 -35 262 -33 q 227 -52 243 -41 q 197 -74 211 -62 l 182 -89 l 153 -95 l 138 -111 q 114 -128 128 -119 q 85 -145 100 -137 q 55 -159 71 -153 q 26 -164 39 -164 l -12 -157 l -16 -151 m 190 304 l 190 291 q 195 282 191 289 q 204 267 199 275 q 214 253 209 260 q 221 244 218 246 q 242 220 231 227 q 269 208 254 213 l 294 195 q 302 189 299 193 q 306 179 304 184 q 309 169 307 174 q 315 162 311 164 q 340 176 330 168 q 359 194 351 184 q 376 215 368 203 q 394 241 385 227 q 399 267 395 254 q 407 292 403 279 q 413 318 410 305 q 416 345 416 332 q 416 358 416 354 q 415 365 416 361 q 413 374 414 370 q 412 386 412 378 l 416 413 q 395 467 403 443 q 375 507 387 490 q 345 532 363 524 q 290 541 326 541 l 269 541 q 262 525 268 533 q 249 510 257 517 q 234 496 241 503 q 221 484 226 489 q 208 464 214 475 q 197 440 202 452 q 189 416 193 428 q 182 393 185 404 q 184 360 182 376 q 189 330 186 345 q 190 323 190 327 q 190 315 190 319 l 190 304 z "}," ":{"ha":303,"x_min":0,"x_max":0,"o":""},"!":{"ha":378,"x_min":114,"x_max":259,"o":"m 127 66 q 132 104 127 85 q 153 136 137 123 q 159 136 155 136 q 168 137 163 136 q 177 137 173 137 q 183 137 181 137 q 211 134 197 137 q 236 124 225 132 q 253 106 246 117 q 259 77 259 94 q 243 23 259 41 q 188 5 227 5 l 175 5 q 158 6 167 5 q 146 13 150 7 q 142 20 145 15 q 136 32 139 26 q 130 44 133 38 q 127 52 127 50 l 127 66 m 134 338 l 134 352 q 134 378 134 359 q 136 417 135 397 q 138 456 137 438 q 140 482 139 475 q 145 487 144 484 q 146 494 146 490 l 146 500 q 144 518 146 509 q 137 537 141 528 q 131 555 134 546 q 127 574 127 564 l 127 659 q 126 663 127 660 q 124 669 125 666 q 122 675 123 672 q 121 678 121 677 q 119 688 120 682 q 116 701 117 694 q 115 712 115 707 q 114 718 114 717 l 114 773 l 114 828 q 120 841 116 834 q 130 854 124 848 q 141 865 135 861 q 153 869 147 869 q 158 868 154 869 q 166 865 162 867 q 175 863 171 864 q 181 861 180 861 q 186 864 182 861 q 193 869 191 867 l 198 869 l 205 869 q 219 859 212 865 q 235 846 227 853 q 248 832 242 840 q 257 815 254 824 q 258 807 258 813 q 259 795 258 802 q 259 782 259 788 q 259 773 259 776 q 259 762 259 769 q 259 749 259 755 q 258 737 258 742 q 257 731 258 732 q 255 715 257 728 q 251 689 254 703 q 247 661 249 674 q 244 645 245 648 q 245 627 244 642 q 245 598 245 612 q 244 581 245 583 q 243 574 244 578 q 242 564 243 569 q 241 554 241 559 q 239 548 240 550 l 239 307 q 238 291 239 301 q 236 271 237 281 q 233 252 235 260 q 231 241 232 243 q 221 223 229 231 q 202 215 212 215 l 198 215 q 149 266 164 238 q 134 338 134 294 z "},"\"":{"ha":693,"x_min":37,"x_max":650,"o":"m 76 511 q 81 533 76 522 q 93 553 86 543 q 108 573 100 563 q 121 593 115 583 q 124 599 121 594 q 129 610 126 604 q 134 621 132 616 q 138 628 137 627 q 157 649 145 638 q 181 670 169 659 q 201 693 193 681 q 210 720 210 706 q 211 738 210 726 q 212 754 211 749 q 215 772 214 766 q 217 793 217 779 q 212 805 217 799 q 200 817 207 812 q 185 827 193 823 q 171 834 177 831 q 170 835 170 834 l 170 836 q 158 834 165 835 q 144 831 151 833 q 131 829 137 830 q 122 828 125 828 q 92 836 107 828 q 64 857 77 844 q 45 884 52 869 q 37 913 37 899 q 43 944 37 927 q 60 975 50 960 q 85 998 71 989 q 116 1008 100 1008 q 133 1012 125 1010 q 150 1014 141 1014 q 168 1012 159 1014 q 186 1008 177 1010 q 191 1005 188 1008 q 195 1002 193 1003 q 251 974 224 991 q 297 931 277 956 q 329 878 317 907 q 340 813 340 848 q 332 729 340 767 q 306 657 323 690 q 261 593 288 623 q 198 535 235 564 q 179 519 188 527 q 160 506 170 511 q 139 496 151 500 q 111 493 127 493 q 101 493 107 493 q 90 495 96 494 q 80 501 84 497 q 76 511 76 505 m 372 511 q 377 531 372 521 q 390 551 382 542 q 406 569 397 561 q 423 585 415 578 q 471 658 450 624 q 515 728 493 692 q 517 735 516 730 q 521 743 519 741 q 519 788 521 770 q 514 817 518 806 q 504 833 511 828 q 484 838 496 838 q 465 832 475 834 q 445 831 455 831 q 397 838 420 831 q 379 849 389 840 q 360 868 369 857 q 346 890 352 879 q 340 910 340 901 q 349 953 340 933 q 373 987 358 972 q 409 1010 389 1002 q 454 1019 430 1019 q 485 1014 465 1019 q 524 1001 504 1009 q 561 984 544 994 q 585 966 578 975 q 590 958 587 962 q 592 953 592 954 l 598 937 q 605 930 600 935 q 615 919 610 925 q 625 907 621 913 q 632 897 630 901 q 642 868 634 882 q 650 838 650 853 q 649 824 650 830 q 646 810 648 818 q 642 792 643 800 q 640 776 640 785 q 641 767 640 771 q 643 759 642 764 q 645 750 644 753 q 646 743 646 746 q 644 720 646 730 q 636 700 641 709 q 626 682 631 691 q 614 663 621 673 q 594 625 602 643 q 571 585 587 608 q 536 550 556 566 q 492 520 515 533 q 445 501 469 508 q 397 494 420 494 l 380 494 q 374 500 377 496 q 372 511 372 505 z "},"#":{"ha":1115,"x_min":51,"x_max":1073,"o":"m 520 111 q 524 131 520 121 q 533 148 528 140 q 543 166 538 157 q 549 185 547 175 q 550 202 549 196 q 553 212 551 208 q 556 219 554 216 q 559 227 557 222 q 563 234 561 229 q 568 245 566 238 q 570 255 569 252 q 572 262 570 259 q 576 270 573 266 q 586 283 579 275 q 585 291 585 288 q 585 298 585 294 q 585 307 585 302 q 586 319 585 312 q 588 326 586 322 q 591 332 591 329 l 589 332 q 588 333 589 332 q 585 333 587 333 q 553 331 575 333 q 497 323 530 328 l 433 332 q 416 326 416 332 l 372 326 q 363 309 372 314 q 357 303 360 307 q 351 299 354 299 q 351 290 351 294 q 351 283 351 286 q 349 262 351 269 q 342 254 347 256 q 341 217 342 232 q 337 193 340 201 q 329 185 336 191 q 319 178 321 180 q 312 163 313 170 q 311 148 311 157 q 311 136 311 138 q 306 123 309 127 q 300 117 302 119 q 295 111 297 114 q 290 98 292 107 l 254 85 q 244 92 250 85 q 232 106 238 98 q 222 122 226 115 q 218 130 218 129 q 220 150 218 141 q 227 166 223 158 q 234 182 231 174 q 240 201 238 191 q 242 211 241 203 q 246 222 243 218 q 252 240 247 231 q 260 260 257 248 q 260 266 260 262 q 261 276 260 271 q 262 285 262 281 q 263 291 263 290 q 273 301 264 294 q 282 313 281 309 q 282 320 282 316 q 279 325 281 325 q 257 316 267 319 q 246 313 247 313 q 240 315 243 315 q 235 315 238 315 q 222 313 228 315 q 211 309 216 311 q 200 306 205 307 q 187 304 194 304 l 142 310 q 124 306 129 307 q 117 305 120 305 q 97 307 108 305 q 75 312 85 308 q 58 322 65 315 q 51 340 51 329 q 54 354 51 346 q 63 370 58 362 q 74 384 68 378 q 84 393 79 391 q 139 400 117 398 q 181 401 161 401 q 211 401 197 401 q 241 400 226 401 q 263 394 258 395 q 271 393 269 393 q 314 417 301 402 q 332 451 327 432 q 340 493 337 471 q 355 540 343 515 q 360 548 357 545 q 367 552 364 550 q 373 558 370 555 q 375 568 375 561 q 374 570 374 568 q 374 572 374 571 q 367 573 369 572 q 362 574 364 573 q 356 576 359 575 q 347 578 353 577 q 339 576 342 577 q 330 576 336 576 l 304 581 q 292 578 298 581 q 280 571 286 575 q 268 565 274 568 q 254 562 261 562 l 212 572 q 194 567 198 569 q 186 566 189 566 q 166 567 177 566 q 145 573 155 569 q 128 584 135 577 q 121 603 121 591 q 124 616 121 608 q 132 632 127 624 q 142 647 136 640 q 153 656 148 653 l 172 656 l 311 663 l 337 654 q 357 660 347 654 q 380 667 368 665 q 390 665 383 667 q 398 663 397 663 q 400 664 399 663 q 402 667 402 666 q 430 726 418 693 q 448 789 441 758 l 448 806 q 451 813 448 809 q 456 821 454 818 q 464 831 462 827 q 467 844 467 836 q 472 872 467 859 q 486 897 477 885 q 507 918 495 908 q 531 935 518 928 q 547 929 541 935 q 557 915 553 923 q 562 898 561 906 q 564 886 564 890 q 558 873 564 877 q 552 865 552 869 q 556 850 555 859 q 559 838 558 841 q 557 827 559 831 q 552 819 555 823 q 545 813 549 816 q 539 806 542 810 q 536 798 538 804 q 532 782 534 791 q 528 766 530 774 q 526 754 526 758 q 523 726 526 737 q 513 706 519 715 q 503 688 508 696 q 494 667 497 680 l 586 663 l 637 663 q 661 663 648 663 q 685 665 673 663 q 707 670 697 667 q 724 678 718 673 q 729 691 724 679 q 738 718 733 703 q 748 746 743 732 q 751 762 752 759 l 751 783 q 756 790 753 787 q 764 797 760 793 q 772 804 768 800 q 775 813 775 808 q 779 843 775 829 q 788 869 783 857 q 801 893 794 882 q 812 915 807 904 q 821 917 817 916 q 829 918 825 918 q 845 916 838 918 q 851 911 851 913 q 863 893 857 900 q 872 882 869 886 q 870 873 872 879 q 865 861 868 867 q 861 849 863 854 q 859 844 859 844 q 859 830 859 836 q 859 821 859 825 q 858 810 859 814 q 856 804 857 807 q 851 799 854 802 q 844 791 848 796 q 840 783 841 787 q 838 773 839 779 q 835 762 837 768 q 829 746 833 755 l 833 724 q 832 711 833 718 q 829 698 831 705 q 824 686 827 691 q 816 678 821 680 l 862 682 q 875 676 869 682 q 890 671 880 671 q 906 676 897 671 q 925 682 914 682 l 994 678 l 1046 682 q 1064 670 1059 682 q 1073 649 1070 659 q 1033 615 1055 627 q 984 603 1011 603 q 974 603 976 603 q 972 604 972 603 q 946 599 958 602 q 931 595 934 596 q 923 591 928 593 q 911 589 918 589 q 897 595 903 589 q 883 593 886 593 q 876 593 879 593 q 852 593 859 593 q 844 595 846 593 q 822 584 830 587 q 803 581 814 581 q 785 584 791 584 q 777 585 780 585 q 760 563 766 574 q 751 541 754 552 q 747 517 748 529 q 743 490 746 505 q 734 474 741 484 q 721 455 728 465 q 710 438 715 446 q 705 427 705 430 q 708 418 706 422 q 711 412 709 413 q 728 415 718 414 q 751 418 739 417 q 774 419 763 419 q 793 420 785 420 l 820 412 q 836 416 827 412 q 856 420 845 420 l 925 415 l 977 420 q 996 409 989 420 q 1005 389 1002 398 q 915 340 971 340 q 907 342 911 340 q 902 344 903 344 q 893 340 901 344 q 883 337 886 337 q 872 335 878 337 q 861 332 866 334 q 844 328 851 328 q 833 330 838 329 q 825 332 829 331 q 820 332 821 332 q 813 331 817 331 q 806 331 810 331 q 781 331 785 331 q 775 332 776 331 q 754 320 763 321 q 735 318 745 318 l 682 328 q 677 318 677 325 q 676 305 676 311 l 654 254 q 652 245 653 251 q 650 235 650 240 q 649 224 649 229 q 648 217 648 219 q 646 195 648 203 q 640 180 644 187 q 630 166 636 174 q 616 148 625 159 q 613 137 613 140 q 614 126 613 130 q 614 119 614 123 q 614 115 614 117 q 613 111 613 113 q 607 102 612 109 q 599 95 602 96 q 596 85 598 92 q 594 76 594 79 q 577 68 585 71 q 558 66 568 66 q 548 72 554 66 q 535 85 541 77 q 525 100 529 92 q 520 111 520 107 m 503 595 q 473 592 484 595 q 456 582 462 589 q 448 563 450 574 q 444 535 446 552 q 436 508 443 517 q 429 498 429 498 q 428 494 429 497 q 427 486 427 490 q 426 479 426 482 q 425 475 425 475 q 415 463 420 467 q 407 456 410 458 q 400 450 403 454 q 398 439 398 447 q 396 420 396 437 l 396 400 l 511 407 q 528 406 515 407 q 573 400 541 405 q 603 401 589 400 q 629 407 618 401 q 634 421 630 407 q 643 454 638 435 q 653 489 648 472 q 660 513 658 507 q 663 518 662 517 q 666 519 665 519 q 670 520 668 519 q 674 524 672 521 q 686 583 686 548 q 668 598 675 595 q 650 601 660 601 l 566 585 l 503 595 z "},"$":{"ha":769,"x_min":88,"x_max":677,"o":"m 385 -73 q 385 -38 385 -47 q 385 -23 385 -28 q 383 -9 384 -17 q 380 19 382 -2 l 268 24 q 230 33 250 30 q 191 39 210 36 q 152 47 171 42 q 119 61 134 52 q 97 88 105 71 q 88 132 88 104 l 88 149 l 101 278 q 106 287 104 283 q 115 290 108 290 q 136 277 130 290 q 182 206 163 241 q 223 132 201 172 q 245 115 227 124 q 287 99 263 106 q 334 85 310 92 q 374 77 359 79 q 372 121 372 98 l 384 151 q 382 161 384 157 q 378 170 380 165 q 374 180 376 175 q 372 193 372 185 q 376 251 375 225 q 377 302 377 277 q 376 339 377 319 q 373 379 375 359 l 373 425 q 361 437 366 431 q 347 448 356 444 q 339 449 345 448 q 329 452 334 450 q 318 454 323 453 q 311 455 313 455 l 276 492 q 259 502 267 498 q 244 508 251 505 q 231 513 237 510 q 216 524 224 517 q 207 535 210 530 q 201 546 203 541 q 198 557 199 551 q 193 568 196 562 q 187 581 191 573 q 180 593 182 588 q 155 624 164 611 q 140 650 145 637 q 133 678 135 663 q 132 717 132 693 q 138 776 132 745 q 158 836 145 807 q 190 891 171 865 q 233 935 209 917 q 248 945 239 942 q 265 949 256 948 q 283 951 274 951 q 302 954 293 952 q 317 959 310 955 q 330 966 323 962 q 345 974 337 970 q 360 979 352 977 l 357 1058 q 357 1066 357 1061 q 359 1074 357 1070 q 364 1081 361 1078 q 372 1085 367 1084 q 389 1088 382 1087 q 403 1088 396 1088 q 424 1085 416 1088 q 439 1080 431 1082 q 440 1065 439 1076 q 442 1049 442 1055 q 446 1042 444 1049 q 448 1027 447 1035 l 448 1014 l 455 982 l 453 971 q 465 969 459 970 q 475 967 470 968 q 508 956 493 962 q 541 949 522 949 q 565 957 554 949 q 585 973 575 964 q 606 989 595 982 q 631 997 617 997 q 642 994 638 997 q 649 985 646 990 q 652 973 651 979 q 652 962 652 967 l 640 918 l 646 838 l 646 820 q 644 789 646 802 q 638 758 643 777 q 634 752 637 755 q 629 749 631 749 q 625 747 629 747 q 614 756 621 747 q 597 779 606 765 q 576 808 587 792 q 554 840 565 825 q 533 867 543 855 q 516 884 524 880 q 481 900 500 894 q 441 909 461 907 l 437 888 l 448 805 l 442 774 q 447 759 446 764 q 450 750 449 753 q 451 745 451 747 q 451 743 451 744 q 449 728 451 732 q 442 717 448 724 q 451 694 447 711 q 457 657 454 677 q 461 618 460 637 q 463 593 463 600 l 459 568 q 485 556 471 562 q 516 542 498 550 l 595 492 q 598 489 596 491 q 602 486 600 488 q 607 482 605 484 l 618 448 q 624 438 621 444 q 629 429 626 432 q 635 422 631 428 q 645 411 640 417 q 654 398 650 404 q 659 391 659 393 q 664 379 661 387 q 670 363 667 371 q 675 348 673 355 q 677 337 677 340 l 677 237 q 674 228 677 236 q 668 215 671 220 q 664 211 665 214 q 663 208 663 209 q 660 199 662 205 q 654 184 657 192 q 649 169 652 176 q 646 161 647 162 q 638 148 644 155 q 627 135 633 141 q 615 124 621 129 q 607 117 610 119 q 600 100 601 109 q 591 85 600 90 q 554 67 569 77 q 525 48 538 58 q 499 31 512 39 q 469 19 486 23 l 467 9 l 467 19 q 459 18 465 18 q 455 -11 457 7 q 459 -43 455 -28 q 465 -80 464 -58 q 458 -92 458 -81 l 458 -94 q 457 -107 458 -100 q 452 -122 456 -115 q 440 -133 448 -128 q 416 -137 431 -137 q 398 -134 405 -137 q 385 -115 391 -131 l 385 -73 m 363 913 q 333 905 346 911 q 311 891 321 900 q 293 870 301 882 q 278 841 285 857 q 267 818 271 826 q 259 802 262 809 q 255 786 256 794 q 254 762 254 777 q 262 708 254 732 q 287 667 271 685 q 322 636 302 649 q 366 614 342 623 q 372 645 368 627 q 368 657 371 648 q 363 672 364 666 l 372 706 q 368 725 372 714 q 363 747 363 735 l 368 826 l 363 913 m 454 164 q 460 145 456 161 q 468 111 464 129 l 469 111 l 498 117 q 510 132 500 117 q 529 164 519 146 q 555 211 541 184 q 555 218 555 212 q 557 232 556 224 q 558 245 557 239 q 559 254 559 252 l 559 265 q 558 278 559 273 q 556 290 557 284 q 554 302 555 296 q 549 319 552 309 l 548 323 q 534 337 543 330 q 519 351 526 343 q 508 368 511 362 q 501 378 505 374 q 492 386 498 382 q 472 395 486 389 q 467 396 471 395 q 460 399 463 397 q 452 364 456 381 q 448 333 448 347 q 454 292 448 313 q 459 250 459 271 l 455 224 q 455 192 455 203 q 455 176 455 181 q 454 168 454 170 q 454 164 454 166 z "},"%":{"ha":1037,"x_min":88,"x_max":949,"o":"m 167 -124 q 173 -104 169 -113 q 182 -89 177 -96 q 193 -75 187 -82 q 203 -58 198 -68 l 214 -40 q 221 -23 216 -29 q 230 -8 226 -17 l 244 24 q 247 27 244 25 q 254 31 250 29 q 261 35 258 33 q 265 38 264 37 l 271 67 q 278 81 273 75 q 288 92 283 87 q 299 103 294 98 q 307 114 304 108 q 315 123 310 117 q 324 137 319 130 q 332 151 328 144 q 336 160 335 157 q 343 176 336 162 q 359 206 350 190 q 378 235 368 222 q 395 248 388 248 q 428 300 414 270 q 453 355 441 330 l 494 413 q 515 459 507 442 q 528 485 523 476 q 536 496 533 493 q 541 500 539 498 q 561 541 549 518 q 588 587 574 563 q 618 634 603 610 q 647 679 633 658 q 670 716 660 699 q 683 743 680 733 q 698 770 690 758 q 726 782 707 782 q 745 780 735 782 q 762 773 754 779 q 781 758 770 767 l 774 722 q 768 715 772 721 q 762 708 763 709 q 753 682 755 696 q 744 654 751 668 q 733 643 740 646 q 716 633 726 640 q 712 624 713 629 q 709 608 711 620 q 675 555 688 574 q 654 528 662 536 q 644 517 646 519 q 640 516 641 516 q 641 516 640 517 q 642 508 642 515 q 636 491 640 497 q 630 480 633 484 q 624 474 627 477 q 618 469 621 472 q 612 460 616 466 q 605 448 608 454 q 598 434 601 441 q 595 422 595 427 q 585 394 591 405 q 571 376 578 382 q 559 365 565 369 q 553 358 554 361 q 549 351 553 355 q 543 345 545 347 q 534 322 539 332 q 521 304 528 312 q 506 289 514 296 q 488 273 497 281 q 479 259 482 267 q 473 245 476 252 q 468 215 470 224 q 464 202 467 207 q 446 182 451 193 q 439 170 440 172 q 434 165 438 168 q 425 160 430 163 q 416 156 420 158 q 411 154 412 154 q 402 138 406 149 q 394 113 398 126 q 386 88 390 100 q 377 72 382 77 q 372 68 376 70 q 366 63 369 66 q 360 59 362 61 q 358 56 357 57 q 359 48 359 51 q 359 43 359 45 q 358 37 359 39 q 345 13 355 21 q 330 3 335 5 q 322 -18 323 -10 q 312 -28 320 -25 q 311 -37 311 -31 q 307 -50 311 -43 q 303 -67 306 -60 q 297 -80 301 -75 q 288 -91 294 -86 q 273 -100 281 -96 q 266 -107 268 -103 q 262 -117 263 -112 q 260 -127 261 -122 q 257 -138 259 -133 q 248 -148 252 -146 q 241 -152 244 -151 q 235 -157 238 -154 q 230 -170 233 -161 l 190 -174 q 181 -165 186 -173 q 174 -149 177 -158 q 168 -133 170 -140 q 167 -124 166 -125 m 652 67 q 635 106 641 91 q 629 134 629 121 q 631 188 629 163 q 648 233 634 213 l 675 277 q 691 292 680 283 q 714 307 702 300 q 739 320 727 315 q 759 326 751 326 q 770 323 766 323 q 777 322 774 322 q 783 323 781 322 q 786 326 785 324 l 806 326 q 833 322 822 326 q 857 308 844 319 l 884 282 l 899 275 q 910 262 907 269 q 915 247 913 255 q 918 231 916 239 q 925 217 920 223 q 932 208 929 211 q 939 203 936 205 q 943 197 941 201 q 947 186 945 193 q 948 163 947 179 q 949 136 949 148 q 947 126 949 132 q 942 112 945 119 q 938 100 940 105 q 935 94 936 94 q 930 82 934 90 q 922 65 926 74 q 914 50 918 57 q 907 39 909 42 q 892 30 898 35 q 882 20 886 25 q 874 12 878 16 q 864 5 871 7 q 840 -3 853 -1 q 814 -9 827 -5 l 794 -9 q 747 -4 766 -9 q 714 11 728 1 q 685 35 699 20 q 652 67 671 49 m 663 163 q 667 139 663 154 q 679 110 671 125 q 694 81 686 94 q 711 62 703 68 q 734 50 720 55 q 763 40 748 44 q 793 34 779 36 q 818 31 808 31 q 826 36 823 31 q 834 41 829 40 q 844 45 840 44 q 850 48 848 46 q 856 52 853 50 q 862 60 859 54 q 871 70 866 66 q 880 78 876 74 q 889 86 885 81 q 894 98 892 91 q 895 108 895 101 q 897 115 896 115 q 902 132 899 125 q 905 150 905 138 q 902 174 905 163 q 888 193 900 184 q 887 201 887 199 q 886 205 886 203 q 880 225 886 218 q 864 243 873 232 q 847 262 854 256 q 832 270 840 268 q 816 275 824 273 q 797 284 808 277 l 758 284 q 747 280 758 284 q 731 271 737 275 q 707 252 720 265 q 685 224 695 239 q 669 192 675 208 q 663 163 663 176 m 112 460 q 94 499 100 484 q 88 527 88 515 q 91 581 88 556 q 107 626 94 606 l 135 671 q 151 685 140 677 q 174 701 161 693 q 199 713 186 708 q 218 719 211 719 q 230 716 225 717 q 237 715 234 715 q 242 716 240 715 q 245 719 244 718 l 266 719 q 292 715 281 719 q 317 701 303 712 l 343 675 l 358 668 q 370 655 366 663 q 374 640 373 648 q 377 624 376 632 q 385 610 379 616 q 392 602 389 604 q 398 596 395 599 q 403 590 401 594 q 406 579 405 587 q 408 557 407 572 q 408 529 408 541 q 406 519 408 526 q 402 506 404 513 q 397 493 399 498 q 395 488 395 488 q 390 475 393 483 q 382 459 386 467 q 373 443 378 450 q 367 433 369 435 q 352 424 357 429 q 342 414 346 418 q 334 405 338 409 q 323 399 330 401 q 299 390 313 392 q 274 384 286 389 l 254 384 q 207 389 225 384 q 173 404 188 394 q 145 428 159 414 q 112 460 131 442 m 122 556 q 126 533 122 547 q 138 503 131 518 q 154 474 145 488 q 170 455 162 461 q 194 443 180 448 q 223 433 208 437 q 253 427 238 429 q 277 425 267 425 q 286 429 283 425 q 294 435 288 433 q 303 438 300 437 q 310 441 307 439 q 315 445 313 443 q 321 453 318 448 q 330 463 326 459 q 340 471 335 467 q 348 479 345 475 q 353 492 352 484 q 355 501 354 494 q 356 509 355 508 q 361 525 359 519 q 364 543 364 531 q 362 567 364 557 q 348 587 359 578 q 346 594 347 592 q 346 598 346 597 q 339 618 346 612 q 323 636 333 625 q 307 655 314 650 q 291 664 299 661 q 275 668 283 666 q 256 677 267 671 l 218 677 q 207 673 217 677 q 191 665 197 669 q 167 646 179 659 q 145 617 155 633 q 129 585 135 602 q 122 556 122 569 z "},"&":{"ha":1044,"x_min":61,"x_max":995,"o":"m 61 264 q 67 312 61 286 q 83 355 73 338 q 110 390 95 372 q 142 423 125 407 q 176 453 159 439 q 212 477 194 467 q 221 480 218 479 q 228 483 224 481 q 234 487 231 485 q 245 493 238 490 q 268 499 254 496 q 294 507 281 502 q 315 519 307 511 q 324 542 324 528 q 315 552 324 543 q 295 573 307 562 q 274 595 284 585 q 262 609 264 606 q 246 630 258 616 q 223 661 235 645 q 202 691 211 677 q 193 709 193 705 l 196 724 q 198 739 197 727 q 201 759 199 751 q 207 791 202 777 q 221 816 212 804 q 241 838 229 827 q 267 863 252 849 q 293 880 277 874 q 325 889 308 886 q 359 892 342 892 q 391 893 376 893 q 484 871 444 893 q 550 802 524 848 q 552 798 550 801 q 557 791 554 795 q 562 785 559 788 q 564 780 564 781 q 556 721 564 743 q 535 683 549 699 q 504 653 522 667 q 467 618 486 640 q 476 596 467 612 q 497 564 486 581 q 521 533 509 547 q 537 517 532 519 q 547 513 541 515 q 559 508 553 511 q 571 502 566 505 q 581 493 577 498 q 598 462 590 479 q 616 429 606 444 q 641 402 627 413 q 675 392 654 392 q 698 404 690 392 q 710 432 706 416 q 716 465 714 448 q 722 493 718 482 q 731 517 724 505 q 737 542 737 528 q 726 568 737 554 q 700 594 714 581 q 675 620 686 608 q 663 641 663 632 l 663 654 q 710 665 685 661 q 757 670 735 670 q 772 670 763 670 q 792 669 782 670 q 811 668 802 669 q 826 665 821 667 q 831 663 827 665 q 838 657 834 661 q 846 652 842 654 q 850 649 849 649 q 854 648 852 648 q 860 648 856 648 q 874 649 867 648 q 889 651 882 650 q 902 656 895 654 q 916 659 910 659 l 934 654 q 948 647 941 650 q 961 641 956 644 q 970 633 966 638 q 974 618 974 628 q 969 605 974 608 q 958 596 965 602 q 945 591 954 595 q 928 584 937 588 q 911 576 919 580 q 899 572 903 573 q 891 572 896 572 q 881 572 887 572 q 840 556 857 572 q 811 518 823 541 q 791 471 800 495 q 773 431 782 447 q 759 408 767 419 q 743 385 751 397 q 730 359 735 372 q 725 332 725 347 q 730 316 725 324 q 742 299 735 307 q 756 283 749 291 q 768 270 764 276 q 815 213 791 241 q 869 164 838 186 q 900 151 879 157 q 942 136 921 144 q 979 117 963 128 q 995 88 995 105 q 973 40 995 56 q 922 24 951 24 q 902 24 911 24 q 885 25 893 24 q 866 28 876 26 q 842 34 856 31 q 823 53 830 41 q 802 74 815 65 q 789 80 797 78 q 775 85 782 83 q 761 91 768 87 q 752 100 755 94 q 741 122 746 108 q 728 150 735 136 q 712 173 722 163 q 690 183 703 183 q 664 165 680 183 q 630 124 648 148 q 595 78 612 101 q 564 43 578 55 q 518 13 539 25 q 474 -8 496 0 q 429 -23 452 -17 q 376 -37 405 -30 l 339 -43 q 303 -40 319 -43 q 274 -31 288 -37 q 245 -18 260 -26 q 212 -3 231 -11 q 197 -1 202 -1 q 184 2 192 -1 q 170 11 175 9 q 162 14 165 14 q 155 15 159 14 q 144 21 151 16 q 141 24 141 21 q 127 44 135 33 q 113 66 120 55 q 100 88 106 77 q 93 108 95 99 q 92 116 93 109 q 90 132 90 123 q 85 147 86 140 q 83 157 85 154 l 71 180 q 67 190 68 182 q 64 206 65 197 q 62 225 62 215 q 61 244 61 235 l 61 264 m 241 150 q 251 130 246 138 q 263 113 256 121 q 279 100 270 106 q 302 89 288 94 q 309 87 306 88 q 315 87 312 87 q 329 81 321 87 q 348 65 341 71 q 370 60 355 60 q 418 66 395 60 q 463 81 440 72 q 469 83 465 82 q 480 85 474 84 q 491 87 486 86 q 498 89 496 87 l 516 108 q 520 111 517 109 q 529 115 524 113 q 538 120 534 118 q 546 124 543 123 q 570 137 557 130 q 585 157 582 143 l 638 208 q 645 221 643 212 q 646 237 646 231 q 627 256 634 245 q 613 276 619 266 q 601 295 607 286 q 585 312 595 304 q 567 330 575 319 q 550 352 558 341 q 533 373 541 363 q 516 389 525 383 q 479 409 495 396 q 446 435 464 421 q 423 460 431 448 q 407 481 414 471 q 388 500 399 492 q 359 514 378 508 q 339 507 351 514 q 314 487 328 499 q 286 460 300 475 q 258 432 271 446 q 233 406 244 418 q 215 389 222 395 q 201 357 206 374 q 193 323 197 340 q 187 289 190 306 q 178 256 184 271 q 180 239 178 248 q 185 221 182 231 q 191 205 188 212 q 196 193 194 197 l 241 150 m 315 751 q 323 716 315 734 q 344 683 331 698 q 374 657 357 667 q 406 648 390 648 q 414 648 409 648 q 420 654 419 649 q 420 679 420 672 q 419 688 420 685 q 417 701 418 695 q 416 711 416 707 q 417 721 416 718 q 421 728 418 724 q 429 745 429 736 q 426 778 429 761 q 417 810 424 795 q 397 833 410 824 q 363 842 384 842 q 341 831 350 842 q 326 805 332 820 q 317 774 320 790 q 315 751 315 759 z "},"'":{"ha":380,"x_min":55,"x_max":339,"o":"m 55 513 q 61 529 56 521 q 72 544 66 536 q 84 558 78 551 q 94 572 90 566 q 126 619 111 594 q 159 665 141 644 l 180 688 q 188 705 183 690 q 197 736 193 720 q 205 768 202 753 q 209 787 209 783 q 198 822 209 812 q 171 836 187 832 q 135 840 154 839 q 99 846 116 840 q 72 867 83 852 q 61 915 61 882 l 61 921 l 73 937 q 80 951 80 943 q 83 968 80 959 q 96 986 86 978 q 119 1001 106 995 q 145 1011 132 1008 q 170 1015 159 1015 l 186 1011 q 230 992 208 1004 q 270 972 251 980 q 284 957 275 964 q 299 945 294 950 q 313 906 309 926 q 317 867 317 887 q 321 857 317 859 q 332 850 325 855 q 338 833 336 843 q 339 814 339 824 l 339 797 q 333 757 339 774 q 320 720 326 740 q 320 714 320 719 q 319 704 319 709 q 318 694 318 699 q 317 688 317 689 q 299 649 311 666 q 273 616 288 631 q 243 587 259 601 q 214 558 228 573 l 174 519 q 152 505 164 510 q 127 497 140 500 q 99 494 113 494 q 73 493 85 493 q 66 494 68 493 q 61 500 64 495 l 56 505 l 55 513 z "},"(":{"ha":357,"x_min":74,"x_max":384,"o":"m 228 -201 q 221 -173 227 -186 q 208 -146 216 -159 q 192 -121 200 -134 q 180 -96 184 -109 l 163 -42 q 145 -13 156 -27 q 130 13 135 1 l 109 109 q 91 156 95 133 q 87 206 87 179 l 87 223 q 74 269 74 243 q 75 276 74 268 q 78 295 77 285 q 81 315 80 306 q 83 323 83 323 q 82 352 83 336 q 79 382 80 368 q 75 414 76 398 q 74 448 74 430 l 87 475 q 92 532 89 505 q 100 586 96 559 q 109 639 104 612 q 121 696 114 666 q 139 742 126 720 q 163 789 151 764 q 165 800 164 791 q 167 812 167 809 l 180 836 q 190 852 186 846 q 195 861 193 857 q 197 866 197 864 q 198 871 198 867 q 202 881 201 873 q 206 897 203 888 q 212 904 208 901 q 221 911 216 907 q 230 918 226 914 q 236 924 234 921 q 242 934 239 927 q 248 949 245 941 q 254 965 251 958 q 258 974 256 972 q 266 975 259 974 q 275 977 273 976 q 293 989 285 983 q 310 1002 301 996 q 328 1012 318 1008 q 351 1016 338 1016 q 361 1015 355 1016 q 372 1012 367 1015 q 380 1005 377 1009 q 384 994 384 1000 q 372 967 384 979 q 343 945 359 955 q 312 926 328 935 q 289 908 296 917 q 261 865 273 890 q 237 810 248 839 q 218 753 227 782 q 202 703 210 725 q 193 677 197 689 q 183 653 188 665 q 176 629 179 642 q 170 602 172 616 l 170 581 q 170 572 170 577 q 169 561 170 566 q 168 551 168 555 q 167 545 167 546 q 163 538 167 543 q 156 532 159 534 q 152 518 153 525 q 151 500 151 511 l 151 479 q 150 464 151 471 q 145 453 149 457 l 145 400 l 142 374 q 149 342 146 358 q 152 310 151 326 q 155 277 153 294 q 163 244 157 261 q 167 236 164 243 q 170 228 170 229 q 173 178 174 202 q 180 129 173 155 l 218 0 q 225 -13 221 -7 q 234 -23 230 -18 q 242 -34 239 -28 q 245 -50 245 -40 l 285 -140 q 299 -153 294 -144 q 308 -171 304 -161 q 315 -191 311 -181 q 323 -208 318 -200 l 340 -227 q 348 -236 344 -230 q 354 -250 351 -242 q 359 -267 357 -258 q 361 -283 361 -275 q 360 -296 361 -286 q 358 -309 359 -306 q 321 -296 340 -309 q 285 -265 302 -283 q 253 -229 268 -248 q 228 -201 238 -211 z "},")":{"ha":353,"x_min":-22,"x_max":281,"o":"m -22 -288 q -5 -261 -15 -270 q 8 -245 5 -252 q 9 -238 8 -244 q 12 -231 11 -233 l 32 -210 q 36 -191 32 -199 q 42 -178 39 -183 q 60 -157 53 -165 q 70 -145 66 -149 q 76 -138 74 -140 q 77 -136 77 -136 q 101 -88 86 -114 q 130 -36 115 -62 q 155 17 144 -9 q 168 64 165 43 l 168 100 l 188 137 q 202 225 199 180 q 205 315 205 270 q 205 341 205 329 q 205 366 205 354 q 203 390 204 377 q 201 416 203 402 q 195 440 199 429 q 188 463 191 452 q 181 487 184 475 q 178 511 178 498 l 188 548 q 185 559 188 554 q 179 570 182 565 q 172 582 176 576 q 168 595 169 587 q 167 601 168 597 q 165 609 166 605 q 164 618 165 614 q 164 623 164 622 l 164 641 l 149 657 l 149 682 q 139 704 146 696 q 128 723 132 711 l 115 766 q 111 773 114 768 q 105 784 109 778 q 99 796 102 790 q 94 805 96 802 q 85 824 87 814 q 77 846 83 834 q 50 885 66 865 q 20 926 34 905 q -4 969 5 947 q -14 1015 -14 991 q -1 1021 -14 1021 q 24 1015 14 1021 q 43 1001 35 1010 q 58 983 51 993 q 72 962 64 972 q 84 950 77 956 q 98 939 91 945 q 112 927 105 934 q 124 911 119 920 q 134 884 131 900 q 146 857 138 869 l 184 783 q 186 770 184 775 q 190 761 188 765 q 195 752 193 756 q 201 741 198 747 q 226 673 214 707 q 249 606 238 639 q 252 593 250 602 q 254 581 254 584 l 254 547 q 263 517 256 531 q 272 484 271 503 q 279 406 277 446 q 281 330 281 366 q 277 298 281 315 q 273 270 273 281 l 264 167 q 261 160 263 165 q 257 151 258 154 l 257 128 l 236 61 l 236 33 q 218 -14 231 7 q 196 -59 205 -35 q 192 -77 194 -66 q 187 -97 189 -87 q 182 -116 184 -107 q 175 -130 179 -125 l 154 -151 l 149 -168 q 139 -186 148 -174 q 116 -215 130 -199 q 87 -248 103 -231 q 55 -279 71 -265 q 25 -302 39 -293 q 1 -311 11 -311 q -18 -306 -13 -311 q -22 -288 -22 -302 z "},"*":{"ha":686,"x_min":45,"x_max":640,"o":"m 233 509 q 237 536 233 523 q 244 562 240 549 q 251 587 248 574 q 254 614 254 600 l 249 614 q 240 608 248 614 q 221 593 232 602 q 200 576 211 585 q 183 561 190 567 q 176 555 181 561 q 170 548 171 549 q 160 543 167 547 q 145 535 153 539 q 131 527 138 531 q 123 522 125 524 l 116 522 q 105 526 110 522 q 97 535 100 530 q 92 548 94 541 q 90 561 90 555 q 95 584 90 576 q 106 594 99 591 q 123 599 113 597 q 142 606 132 601 q 146 610 143 607 q 153 616 149 613 q 159 623 156 620 q 162 627 161 626 q 172 634 164 629 q 189 647 180 640 q 205 659 197 653 q 216 665 214 664 q 218 671 216 667 q 220 680 220 676 l 220 683 l 220 685 q 219 689 220 687 q 216 692 217 691 q 195 689 203 690 q 178 687 186 688 q 161 685 170 686 q 142 685 153 685 q 117 687 134 685 q 85 695 101 690 q 57 708 68 700 q 45 726 45 715 q 57 743 45 735 q 84 758 68 751 q 114 768 99 764 q 136 772 130 772 q 183 768 159 772 q 231 764 208 764 l 262 764 q 245 788 256 778 q 223 808 235 799 q 198 826 211 817 q 175 844 185 834 q 164 853 172 846 q 149 869 157 861 q 133 884 140 877 q 123 894 126 891 q 117 906 119 900 q 116 918 116 911 l 116 930 l 116 954 q 127 966 121 964 q 142 968 134 968 q 168 962 155 968 q 188 948 180 956 l 313 823 q 319 828 317 823 q 320 838 320 833 l 320 846 q 317 872 320 860 q 313 900 313 884 q 314 943 313 922 q 320 987 315 964 q 326 999 321 992 q 338 1013 331 1006 q 352 1023 345 1019 q 366 1027 360 1027 q 371 1023 368 1025 q 379 1019 375 1020 q 394 1011 387 1015 q 407 1003 401 1007 q 415 992 412 998 q 418 976 418 986 q 413 941 418 958 q 402 906 408 924 q 389 871 395 889 q 379 836 382 854 l 379 810 q 374 801 378 804 q 368 793 371 797 q 361 786 364 790 q 359 777 359 783 q 360 765 359 773 q 368 757 362 757 l 372 757 q 375 768 373 760 q 379 777 377 776 q 397 805 385 788 q 424 842 409 823 q 457 880 439 861 q 492 914 475 899 q 527 939 510 929 q 557 948 544 948 q 572 946 564 948 q 586 941 580 945 q 597 932 593 938 q 601 918 601 926 l 601 915 q 582 870 593 891 q 555 831 570 848 q 548 823 553 828 q 542 815 543 819 q 523 801 538 812 q 492 777 509 790 q 461 753 475 764 q 444 739 447 742 q 437 732 437 733 q 438 729 437 731 q 439 723 439 727 q 466 721 454 723 q 492 718 477 718 q 515 722 506 718 q 537 726 524 726 q 569 726 551 726 q 603 720 587 725 q 630 704 619 715 q 640 675 640 694 q 621 633 640 647 q 574 619 601 619 q 548 625 561 619 q 522 633 536 631 q 487 640 500 638 q 453 642 473 642 q 444 640 450 642 q 437 640 441 640 l 431 627 l 503 555 q 517 529 512 545 q 523 500 523 512 q 520 480 523 490 q 512 462 517 470 q 499 449 507 454 q 479 444 490 444 q 445 456 461 444 q 415 486 429 468 q 390 526 401 505 q 370 565 379 547 q 354 595 361 583 q 342 608 347 608 q 340 607 341 608 q 338 606 339 606 q 335 604 336 606 q 333 601 333 602 l 333 496 q 330 473 332 486 q 323 447 328 459 q 310 426 318 435 q 288 418 301 418 q 257 425 267 418 q 242 444 246 432 q 236 471 237 456 q 233 502 235 486 l 233 509 z "},"+":{"ha":782,"x_min":78,"x_max":703,"o":"m 83 474 q 105 485 90 481 q 139 489 120 489 q 157 488 153 489 q 165 486 162 488 l 268 486 q 308 488 291 486 q 330 496 324 490 q 342 545 342 508 l 329 704 q 332 736 329 722 q 342 759 334 751 q 376 768 353 768 q 406 764 391 768 q 427 752 420 760 l 446 711 q 448 709 447 711 q 449 703 448 708 q 451 689 450 699 q 454 662 452 679 q 444 654 449 660 q 436 640 438 647 q 433 624 433 633 q 436 590 433 608 q 441 557 438 571 q 443 545 443 548 q 444 540 444 543 q 443 518 444 529 q 441 500 441 507 q 442 498 441 498 q 443 498 442 498 q 448 493 447 493 q 497 499 471 493 q 543 505 522 505 q 562 503 554 505 q 578 498 570 500 l 682 498 q 690 496 685 498 q 697 493 696 494 q 703 473 703 486 l 703 421 l 691 408 q 631 386 669 386 q 569 393 600 386 q 512 401 538 400 l 496 395 l 454 392 q 448 374 451 386 q 444 347 446 362 q 440 316 441 332 q 439 284 439 299 q 441 256 439 269 q 445 233 442 244 q 448 222 447 227 q 448 214 448 216 q 447 202 448 211 q 445 191 445 193 l 448 159 q 446 146 448 151 q 441 138 444 141 q 411 132 432 132 q 378 136 393 132 q 357 143 362 140 q 345 179 348 159 q 340 220 341 199 q 337 263 338 241 q 330 307 335 286 l 344 359 q 343 366 344 362 q 339 373 342 370 q 325 382 332 379 q 309 386 318 386 q 286 383 297 386 q 261 380 275 380 q 248 380 252 380 q 241 381 243 380 q 224 386 238 386 l 208 385 q 186 381 197 382 q 163 380 175 380 q 141 381 152 380 q 119 385 130 382 q 101 387 108 385 q 86 399 94 389 q 80 417 81 407 q 78 440 78 427 q 81 467 79 461 q 83 474 83 473 z "},",":{"ha":370,"x_min":57,"x_max":328,"o":"m 64 -320 q 75 -290 64 -309 q 99 -251 85 -271 q 127 -213 113 -231 q 147 -188 141 -196 l 161 -180 q 175 -160 170 -171 q 185 -138 180 -149 q 196 -117 191 -127 q 210 -98 202 -106 q 214 -88 213 -92 q 214 -80 214 -83 l 214 -63 q 203 -24 214 -37 q 174 -6 191 -12 q 136 3 156 0 q 98 11 115 5 q 68 27 80 16 q 57 62 57 39 q 62 94 57 75 q 78 130 68 113 q 102 160 88 147 q 134 172 117 172 q 149 172 140 172 q 168 170 159 171 q 191 169 179 170 q 201 165 195 169 q 215 156 208 161 q 228 147 222 151 q 236 142 234 142 q 260 127 252 132 q 273 119 268 123 q 281 109 277 115 q 290 90 284 103 l 296 82 q 317 50 306 64 q 328 18 328 36 l 328 0 q 326 -18 328 -9 q 323 -38 324 -28 q 322 -58 322 -47 l 322 -75 q 308 -111 311 -93 q 301 -148 305 -130 q 287 -177 297 -164 q 265 -200 277 -189 q 243 -223 254 -212 q 229 -249 233 -235 l 147 -332 q 135 -337 144 -336 q 123 -339 127 -339 l 106 -339 q 92 -339 99 -339 q 78 -337 84 -338 q 68 -331 72 -335 q 64 -320 64 -328 z "},"-":{"ha":645,"x_min":100,"x_max":543,"o":"m 424 252 l 416 254 l 362 244 q 333 249 347 244 q 303 254 319 254 q 279 250 290 254 q 252 244 267 244 q 199 250 225 244 q 147 256 174 256 q 111 283 121 270 q 100 313 100 296 q 106 346 100 330 q 121 372 111 361 q 146 390 132 383 q 179 397 161 397 l 215 393 l 232 393 q 240 393 236 393 q 250 394 245 393 q 268 396 258 395 q 284 397 277 397 l 307 397 q 322 396 315 397 q 337 393 330 396 q 349 391 343 392 q 361 391 355 391 l 408 391 q 419 391 414 391 q 431 393 425 392 q 446 399 440 397 q 458 400 451 400 q 485 398 470 400 q 512 392 499 397 q 534 379 525 387 q 543 357 543 370 q 538 316 543 336 q 522 278 533 295 q 494 251 511 262 q 452 241 477 241 l 450 241 q 445 243 448 241 q 437 247 441 245 q 429 251 433 249 q 424 252 425 252 z "},".":{"ha":298,"x_min":66,"x_max":231,"o":"m 66 96 q 83 158 66 137 q 144 180 101 180 q 169 175 158 180 q 191 165 180 170 q 214 151 206 158 q 225 136 222 144 q 230 117 229 127 q 231 90 231 106 l 231 50 q 223 36 229 45 q 208 20 216 28 q 191 6 199 12 q 176 0 182 0 q 132 11 152 5 q 97 27 112 17 q 74 54 83 37 q 66 96 66 71 z "},"/":{"ha":473,"x_min":16,"x_max":681,"o":"m 17 5 q 23 24 19 16 q 32 40 27 33 q 43 54 37 47 q 54 71 48 61 l 64 89 q 71 106 66 100 q 80 121 76 112 l 94 153 q 97 156 94 154 q 104 160 100 158 q 111 164 108 162 q 115 167 115 165 l 121 196 q 128 210 123 204 q 138 221 133 216 q 149 232 144 227 q 157 243 154 237 q 165 252 160 245 q 174 266 170 259 q 182 280 178 273 q 186 289 185 286 q 193 305 186 291 q 209 335 200 319 q 228 363 218 351 q 245 376 238 376 q 278 429 264 399 q 303 484 292 458 l 345 542 q 365 588 357 571 q 378 613 373 605 q 386 625 383 622 q 391 629 389 627 l 406 652 q 413 669 409 663 q 422 681 417 675 q 432 692 427 686 q 443 707 437 698 q 479 768 464 736 q 512 829 495 799 q 527 852 518 842 q 545 876 535 862 q 552 887 547 878 q 563 907 557 897 q 574 930 569 918 q 583 949 580 941 q 598 977 590 965 q 627 989 607 989 q 646 987 635 989 q 665 980 654 985 q 681 964 676 974 l 674 929 q 668 922 673 928 q 662 915 663 916 q 653 889 655 903 q 644 861 652 875 q 633 849 640 852 q 616 840 626 846 q 612 831 614 836 q 610 814 611 827 q 599 798 606 806 q 584 782 592 790 q 568 767 576 774 q 554 754 560 760 q 540 733 540 740 l 540 732 l 533 712 q 515 680 526 694 q 494 656 505 665 q 493 645 493 650 q 492 637 493 640 q 487 620 490 626 q 480 609 484 613 q 474 603 477 606 q 469 598 471 601 q 463 589 467 595 q 455 576 458 583 q 448 563 451 570 q 445 551 446 556 q 435 523 441 534 q 421 505 428 511 q 410 494 415 498 q 403 487 404 490 q 399 480 403 484 q 393 474 395 475 q 384 451 389 460 q 371 433 378 441 q 356 418 364 425 q 338 401 347 410 q 329 388 332 395 q 323 374 326 380 q 318 344 320 353 q 314 331 317 336 q 296 311 301 322 q 289 299 290 300 q 284 294 288 297 q 275 289 280 292 q 267 285 271 287 q 261 283 262 283 q 252 267 256 278 q 244 242 248 255 q 236 217 240 229 q 227 201 232 205 q 222 197 226 199 q 216 192 219 195 q 210 188 212 190 q 208 184 208 186 q 210 177 210 180 q 210 172 210 174 q 208 165 210 168 q 195 142 205 150 q 180 132 185 134 q 172 111 174 119 q 162 101 170 104 q 161 92 161 98 q 157 79 161 86 q 154 61 156 68 q 148 48 151 54 q 138 38 144 43 q 123 28 132 33 q 116 21 118 26 q 112 12 113 17 q 110 1 111 7 q 107 -9 109 -4 q 98 -19 102 -17 q 91 -23 94 -22 q 85 -28 88 -25 q 80 -41 83 -32 l 40 -45 q 32 -37 36 -44 q 24 -20 27 -29 q 18 -4 20 -12 q 17 5 16 3 z "},":":{"ha":366,"x_min":75,"x_max":279,"o":"m 75 79 q 78 105 75 94 q 86 123 81 115 q 99 136 91 130 q 119 150 107 142 q 140 170 132 159 q 159 180 149 180 q 170 178 163 180 q 185 175 178 177 q 200 172 193 174 q 209 169 207 170 q 218 163 212 168 q 227 159 224 159 l 252 159 q 262 148 258 157 q 269 129 267 140 q 273 107 272 118 q 275 92 275 97 q 270 61 275 78 q 262 29 264 43 q 249 19 258 24 q 230 11 240 14 q 208 5 219 7 q 190 3 197 3 l 170 3 q 149 5 161 3 q 129 14 138 7 q 124 19 127 16 q 117 26 121 22 q 109 34 113 30 q 104 40 106 38 q 96 47 101 43 q 87 57 92 52 q 79 68 82 62 q 75 79 75 73 m 97 434 l 96 441 q 101 476 96 456 q 116 514 106 496 q 140 545 125 532 q 172 557 154 557 q 196 554 182 557 q 222 545 209 550 q 248 532 236 539 q 267 517 259 524 q 271 507 269 514 q 275 492 273 500 q 278 475 277 484 q 279 463 279 467 q 274 436 279 447 q 260 418 269 425 q 239 405 252 410 q 212 395 227 399 q 212 395 212 395 q 210 394 210 394 q 200 391 207 393 q 186 387 193 389 q 172 383 179 385 q 163 381 165 381 q 143 387 155 381 q 122 401 132 393 q 104 418 112 409 q 97 434 97 427 z "},";":{"ha":389,"x_min":46,"x_max":337,"o":"m 46 -313 q 59 -281 46 -298 q 90 -248 73 -264 q 126 -215 108 -231 q 156 -185 145 -199 q 161 -173 159 -180 q 165 -159 163 -166 q 171 -147 168 -153 q 182 -138 175 -142 q 194 -115 187 -127 q 206 -89 200 -102 q 216 -59 212 -75 q 220 -24 220 -43 q 213 -15 216 -18 q 204 -12 209 -13 q 196 -9 200 -11 q 189 -2 192 -7 q 185 4 188 -1 q 180 15 183 9 q 172 25 176 20 q 162 29 168 29 q 151 27 156 29 q 142 22 146 24 q 132 17 137 19 q 121 14 127 14 q 73 28 92 14 q 54 74 54 43 l 54 83 l 64 96 q 80 130 71 113 q 101 159 90 146 q 129 180 113 172 q 165 188 145 188 q 239 169 207 188 q 293 119 271 149 q 326 50 315 88 q 337 -24 337 12 q 333 -61 337 -46 q 321 -95 329 -77 l 303 -161 q 286 -192 296 -178 q 264 -219 276 -206 q 240 -246 252 -233 q 216 -273 227 -259 q 213 -279 215 -273 q 212 -286 212 -285 q 198 -298 209 -293 q 172 -309 186 -304 q 144 -320 158 -314 q 121 -333 130 -326 q 107 -335 114 -334 q 94 -336 101 -336 q 81 -335 87 -336 q 68 -333 75 -334 q 53 -326 60 -330 q 46 -313 46 -322 m 121 494 l 121 517 q 132 532 122 524 q 155 547 142 540 q 178 558 167 553 q 195 562 190 562 q 237 557 221 562 q 262 542 252 553 q 276 514 271 531 q 286 474 281 498 q 275 434 286 452 q 248 404 264 416 q 213 385 232 391 q 180 378 195 378 q 152 392 163 378 q 134 424 140 406 q 124 463 127 443 q 121 494 121 482 z "},"<":{"ha":757,"x_min":70,"x_max":694,"o":"m 345 245 l 328 265 q 303 281 313 275 q 288 290 294 287 q 280 295 282 294 q 277 296 278 296 q 263 302 270 296 q 252 316 257 308 q 243 332 247 324 q 237 344 239 340 q 225 349 230 347 q 215 354 220 351 q 206 361 210 357 q 195 374 201 366 l 152 419 q 127 429 141 422 q 100 446 113 436 q 79 469 87 456 q 70 495 70 481 q 80 522 70 511 q 106 543 91 534 q 136 560 121 552 q 161 575 152 568 q 170 582 165 576 q 177 592 174 587 q 185 603 181 598 q 193 608 189 608 q 208 621 201 616 q 219 629 214 626 q 229 636 224 633 q 240 646 233 640 q 244 654 243 650 q 246 661 246 658 q 256 675 246 667 l 300 690 l 345 734 q 361 736 355 734 q 368 739 365 738 q 374 747 372 742 q 383 754 376 751 q 406 771 397 765 q 419 781 414 777 q 427 786 425 784 q 446 797 436 787 q 464 819 455 807 q 480 841 472 831 q 496 854 488 852 q 513 863 507 858 q 522 872 518 867 q 529 883 525 878 q 541 893 532 888 q 562 905 551 900 q 584 915 573 910 q 607 925 595 920 q 627 937 618 930 q 643 920 635 931 q 652 894 652 908 q 646 868 652 878 q 630 853 640 859 q 609 839 621 846 q 589 820 598 832 q 570 813 582 820 q 546 796 559 806 q 523 778 534 787 q 507 765 512 768 q 500 760 505 764 q 489 750 495 755 q 478 741 484 745 q 472 734 473 736 l 427 704 q 416 691 422 699 q 402 676 410 684 q 388 664 395 669 q 372 659 380 659 q 367 661 368 659 q 365 655 366 659 q 362 647 363 651 q 358 640 360 643 q 354 635 356 636 q 349 632 352 633 q 343 630 345 630 q 331 625 336 628 q 321 617 326 621 q 314 609 317 613 q 304 602 310 605 q 276 581 288 588 q 253 567 264 573 q 231 552 242 560 q 203 532 219 545 q 211 510 203 520 q 226 500 218 500 q 278 463 255 481 q 327 424 301 444 q 334 419 328 422 q 342 415 339 416 q 352 409 344 415 q 371 396 361 404 q 390 383 381 389 q 402 376 399 377 q 413 359 409 362 q 421 355 417 355 q 430 354 425 355 q 444 344 435 353 q 456 329 447 339 q 475 308 465 318 q 496 289 486 297 q 512 281 506 281 q 544 259 528 270 q 574 236 560 248 q 586 226 581 231 q 595 217 591 221 q 604 209 599 212 q 616 201 608 205 q 639 188 626 195 q 665 171 652 180 q 685 151 677 162 q 694 124 694 139 q 688 102 694 115 q 673 77 683 89 q 651 57 664 65 q 624 48 638 48 q 602 58 612 48 q 579 75 591 67 q 562 81 573 79 q 541 88 551 82 l 507 130 l 491 137 q 477 150 484 142 q 464 168 471 159 q 448 186 457 177 q 427 201 439 195 q 410 211 420 203 q 392 227 401 218 q 376 241 383 235 q 368 248 369 248 l 345 245 z "},"=":{"ha":637,"x_min":84,"x_max":553,"o":"m 96 210 q 92 223 92 212 l 92 237 q 93 260 92 246 q 96 287 93 273 q 106 310 99 300 q 125 323 113 320 l 158 323 q 171 325 165 323 q 183 329 177 327 q 196 333 189 331 q 210 334 202 334 l 248 326 q 264 328 259 326 q 276 330 269 330 q 300 328 288 330 q 324 323 312 326 q 343 316 334 318 q 362 315 353 315 q 399 320 380 315 q 436 326 417 326 l 463 323 q 472 325 468 323 q 481 329 477 326 q 489 333 485 331 q 499 334 494 334 q 529 328 515 334 q 553 307 544 321 l 553 290 q 552 271 553 279 q 550 254 551 262 q 548 237 549 246 q 547 215 547 228 q 535 199 543 205 q 519 189 528 193 q 501 184 510 185 q 484 183 492 183 l 414 188 q 320 187 367 188 q 226 184 273 186 q 185 178 206 183 q 144 172 165 172 q 129 176 136 172 q 114 184 121 179 q 102 196 107 189 q 96 210 97 203 m 84 450 l 84 477 q 84 500 84 487 q 88 527 85 514 q 98 549 91 540 q 117 559 104 558 l 149 559 q 162 563 155 560 q 175 568 168 565 q 188 573 181 570 q 202 575 194 575 q 221 569 213 575 q 241 563 229 563 l 268 568 q 291 566 279 568 q 313 561 302 564 q 334 556 324 558 q 353 555 344 555 l 428 563 l 454 559 q 464 562 460 559 q 473 567 469 564 q 481 573 477 570 q 491 575 486 575 q 520 567 506 575 q 544 545 534 558 l 544 532 l 539 461 l 539 444 q 510 425 528 430 q 475 420 492 420 l 404 427 q 310 426 357 427 q 218 421 264 425 q 176 416 198 420 q 134 413 155 413 q 121 416 129 413 q 105 424 113 419 q 92 436 98 429 q 84 450 86 442 z "},">":{"ha":755,"x_min":63,"x_max":686,"o":"m 412 251 l 389 251 q 380 244 387 251 q 364 230 374 238 q 343 214 354 222 q 323 204 332 207 q 307 189 314 198 q 292 171 299 180 q 279 154 286 162 q 264 141 273 146 l 250 136 l 216 92 q 195 86 206 87 q 176 79 183 85 q 154 62 165 71 q 132 54 144 54 q 104 62 117 54 q 82 82 92 71 q 68 106 73 94 q 63 129 63 119 q 71 155 63 144 q 92 175 79 166 q 117 191 104 184 q 140 204 130 197 q 153 212 149 208 q 162 221 158 216 q 171 231 166 226 q 182 241 175 236 q 213 263 197 252 q 243 285 229 275 q 261 293 250 285 q 281 311 271 300 q 300 332 292 321 q 311 347 308 342 q 326 357 321 356 q 336 359 332 359 q 344 363 340 360 q 355 379 348 366 q 366 388 356 382 q 386 401 375 395 q 406 414 397 408 q 415 419 414 419 q 423 424 418 420 q 429 429 428 428 q 478 467 454 448 q 531 505 502 486 q 547 514 538 505 q 555 535 555 524 q 527 557 538 549 q 504 572 515 565 q 481 586 493 578 q 451 606 469 593 q 434 622 441 613 q 414 636 428 631 q 411 636 413 636 q 408 637 410 636 l 402 638 q 394 653 397 644 q 383 663 391 663 q 367 668 375 663 q 353 682 359 674 q 340 696 346 689 q 330 707 334 704 l 285 741 q 278 745 283 741 q 267 753 273 749 q 257 763 262 758 q 250 768 252 767 q 233 780 244 771 q 210 799 222 789 q 186 816 198 808 q 166 823 174 823 q 146 843 157 836 q 126 856 136 850 q 110 871 117 863 q 104 897 104 880 q 113 923 104 911 q 131 941 122 935 q 151 928 140 933 q 173 918 161 923 q 195 908 184 913 q 216 897 206 903 q 227 886 223 892 q 235 876 231 881 q 245 866 239 871 q 261 858 251 862 q 275 845 267 856 q 293 823 283 835 q 311 801 302 810 q 330 789 321 791 l 333 788 q 336 786 336 786 q 362 766 353 774 q 376 753 371 758 q 383 746 380 749 q 389 743 386 744 q 396 742 393 742 q 403 741 399 741 q 412 741 407 741 q 422 732 416 738 q 433 719 427 726 q 444 706 438 712 q 456 696 450 700 q 488 679 477 686 q 505 666 499 671 q 512 657 511 661 q 517 650 514 654 q 528 641 523 644 q 539 635 534 638 q 551 627 545 631 q 565 614 557 623 q 571 609 568 614 q 579 597 575 604 q 588 586 584 591 q 594 578 591 580 q 621 564 605 571 q 651 547 636 556 q 675 526 665 538 q 686 498 686 514 q 677 472 686 485 q 656 450 669 460 q 630 432 644 439 q 606 422 616 425 q 594 414 601 421 q 582 399 588 407 q 570 384 575 391 q 562 378 564 378 q 551 365 555 370 q 542 357 546 360 q 532 353 537 355 q 519 347 526 351 q 513 336 517 344 q 504 320 509 328 q 492 306 498 312 q 478 299 486 299 q 473 298 477 299 q 470 297 471 297 q 449 289 458 294 q 431 276 440 285 l 412 251 z "},"?":{"ha":503,"x_min":60,"x_max":453,"o":"m 60 66 q 65 86 60 75 q 79 107 71 97 q 98 123 87 117 q 119 130 109 130 q 183 102 165 127 q 200 37 200 78 q 194 19 200 26 q 179 7 188 12 q 160 0 170 2 q 142 -2 151 -2 q 109 1 124 -2 q 83 12 94 4 q 66 33 73 20 q 60 66 60 46 m 365 596 l 365 598 q 351 638 357 621 q 336 670 345 656 q 315 696 328 684 q 283 720 302 709 q 274 730 279 724 q 269 739 270 736 l 239 776 q 222 779 230 776 q 206 785 214 781 q 190 792 198 788 q 173 797 182 795 q 151 827 157 815 q 144 858 144 839 q 147 880 144 868 q 161 897 151 891 l 178 897 q 207 889 195 897 q 229 870 219 881 q 249 848 239 859 q 273 831 259 837 l 304 821 q 327 806 317 815 q 347 786 337 797 q 365 765 356 776 q 382 746 373 755 q 388 743 384 745 q 395 739 393 741 q 416 720 406 733 q 434 692 426 707 q 448 662 442 677 q 453 636 453 646 q 447 598 453 616 q 435 562 441 580 l 426 484 q 420 470 425 476 q 411 459 416 465 q 400 449 406 454 q 391 440 395 444 q 389 437 391 439 q 387 432 387 435 q 353 393 370 406 q 315 374 335 380 q 271 366 294 368 q 218 360 247 364 q 207 355 210 358 q 202 348 204 352 q 199 339 201 344 q 194 328 197 334 q 189 318 194 326 q 181 310 184 311 q 173 281 175 297 q 167 250 171 264 q 154 225 163 235 q 127 216 146 216 l 111 220 q 106 224 108 220 q 104 231 104 229 q 102 280 102 256 q 101 330 101 304 q 101 361 101 345 q 104 393 102 376 q 114 429 104 416 q 141 448 125 441 q 179 458 158 455 q 220 462 199 460 q 259 466 241 464 q 291 475 278 469 q 300 487 298 479 q 304 501 301 495 q 313 510 309 509 q 324 511 317 511 q 335 511 332 511 q 348 524 342 513 q 357 550 353 536 q 363 578 361 564 q 365 596 365 591 z "},"@":{"ha":1043,"x_min":55,"x_max":1013,"o":"m 556 283 q 559 289 557 285 q 563 298 561 293 q 568 308 566 303 q 571 315 570 313 q 576 334 576 321 q 575 338 575 336 q 574 341 574 339 q 574 344 574 342 q 571 352 574 347 q 563 357 568 357 q 560 356 561 357 q 558 354 559 355 q 555 353 557 354 q 552 352 553 352 q 550 350 551 351 q 549 349 550 349 q 547 347 547 348 q 543 344 546 347 q 537 338 541 341 q 531 332 534 335 q 526 328 528 329 l 486 302 q 481 297 485 300 q 474 290 478 294 q 467 283 471 286 q 462 278 464 279 q 422 251 446 261 q 376 237 398 240 l 356 237 q 336 237 346 237 q 317 241 326 237 q 314 242 315 241 q 311 245 312 243 q 287 267 296 253 q 272 298 277 281 q 269 314 269 307 q 269 331 269 321 l 269 346 q 272 365 269 355 q 279 385 275 375 q 299 430 288 408 q 322 473 311 452 q 331 484 327 478 q 338 495 334 490 q 339 500 338 496 q 341 503 340 501 q 349 512 344 506 q 359 525 354 519 q 370 537 365 532 q 376 545 374 543 q 386 553 379 551 q 395 559 392 555 l 452 608 q 454 610 452 608 q 455 612 454 611 q 462 620 456 614 q 473 632 467 625 q 485 646 479 640 q 492 654 490 652 q 496 657 494 656 q 500 661 498 659 l 500 662 l 505 662 q 508 663 506 662 q 517 667 513 664 q 524 675 521 670 q 577 708 551 696 q 638 726 604 720 q 660 729 648 729 q 682 730 671 730 l 688 730 q 700 725 696 728 q 709 720 704 722 q 717 718 713 718 l 733 718 l 734 719 q 744 728 741 724 q 751 739 747 733 q 770 756 761 748 q 793 764 779 764 l 801 764 q 814 742 810 754 q 819 718 819 730 q 811 680 819 696 q 794 645 804 663 q 791 634 792 639 q 789 623 791 629 q 787 616 789 618 l 712 463 q 711 457 711 459 q 711 453 711 456 q 711 448 711 450 q 709 442 711 446 q 699 418 704 431 q 687 394 693 406 l 687 392 q 684 383 686 387 q 682 377 683 380 q 680 373 681 374 q 676 367 679 370 q 674 358 674 363 q 675 346 674 352 q 685 339 677 339 q 699 343 692 339 q 711 352 705 347 l 787 395 q 791 398 789 397 q 796 401 793 400 q 837 436 817 418 q 873 474 857 454 q 901 516 890 494 q 916 564 913 538 q 920 589 919 576 q 921 615 921 602 q 919 635 921 624 q 915 657 916 646 q 887 725 899 695 q 860 777 875 755 l 859 777 l 810 842 q 773 862 789 850 q 739 884 758 874 q 697 908 715 899 q 661 921 679 918 q 645 919 650 920 q 637 918 640 918 l 625 918 q 616 918 620 918 q 608 916 613 918 l 583 928 q 542 925 563 928 q 507 906 521 922 q 435 893 465 902 q 384 870 406 885 q 344 834 362 856 q 304 783 326 813 l 286 764 l 260 725 q 254 713 256 720 q 252 699 252 705 l 218 615 q 212 597 214 608 q 208 577 210 587 q 205 557 206 567 q 203 540 204 547 q 200 530 202 536 q 195 516 197 524 q 190 500 192 508 q 187 488 187 493 q 204 386 191 431 q 237 302 218 340 q 244 285 242 294 q 249 265 246 275 q 258 245 252 255 q 277 227 264 235 q 294 194 284 211 q 319 167 304 177 q 335 152 328 159 q 349 136 342 144 q 363 118 355 127 q 382 100 371 109 q 401 95 391 98 q 420 89 411 92 q 438 82 430 85 q 450 79 446 79 l 492 66 l 556 67 q 586 71 572 70 q 610 72 599 72 q 641 70 630 72 q 658 68 652 68 q 666 66 663 68 q 680 64 669 64 q 695 66 689 64 q 706 71 701 68 q 718 76 711 73 q 733 80 724 79 q 747 89 734 81 q 776 105 760 97 q 804 121 791 114 q 819 128 817 128 q 848 122 840 128 q 856 108 856 117 q 846 83 856 96 q 829 62 836 70 q 813 40 820 48 q 801 28 806 32 q 791 23 795 24 q 782 22 787 22 q 766 20 773 22 q 751 15 759 18 q 712 1 734 7 q 664 -5 691 -5 l 666 -3 q 654 -5 662 -5 q 639 -5 647 -5 l 547 -5 q 529 -5 537 -5 q 516 -3 520 -5 q 475 0 496 -3 q 433 7 454 3 q 392 17 412 12 q 352 26 372 22 q 347 27 351 26 q 342 31 343 29 q 303 59 323 45 q 260 85 282 73 l 237 89 q 222 99 233 90 q 197 120 210 109 q 173 143 184 132 q 161 159 162 154 l 106 254 q 92 293 101 267 q 75 349 83 319 q 61 404 67 378 q 55 442 55 430 q 57 453 55 450 q 60 465 60 457 l 55 505 q 59 543 55 519 q 67 590 62 566 q 76 636 71 614 q 83 671 81 658 q 89 685 83 675 q 97 698 94 694 q 107 714 104 706 q 113 731 111 722 q 118 747 115 739 q 126 764 121 755 q 134 773 130 770 q 142 779 138 776 q 149 785 146 781 q 151 797 151 789 l 232 879 l 290 908 q 293 912 291 909 q 299 919 296 916 l 333 930 l 425 975 l 603 1010 l 642 1010 l 677 994 l 694 996 l 743 980 q 761 973 748 978 q 788 962 774 968 q 815 950 802 956 q 833 941 827 945 q 849 925 842 932 q 863 914 856 919 q 878 904 870 909 q 895 893 886 899 q 912 876 901 890 q 935 847 924 863 q 955 816 946 831 q 965 797 964 802 q 967 780 967 788 q 968 765 967 772 q 971 752 968 758 q 983 741 975 746 q 994 693 988 718 q 1003 645 999 667 q 1010 607 1008 623 q 1013 588 1013 591 q 1010 564 1013 572 q 1004 543 1007 556 q 987 519 994 528 q 979 502 979 509 q 965 480 970 490 q 957 462 961 471 q 946 445 952 453 q 928 426 940 436 q 887 394 903 406 q 857 372 871 381 q 826 353 842 362 q 787 330 810 343 l 743 292 l 736 288 q 730 281 735 286 q 722 276 724 277 q 709 269 716 271 q 695 264 703 267 q 676 248 685 256 q 656 233 667 239 l 633 227 l 631 227 l 587 233 q 583 235 585 234 q 581 236 582 235 q 578 237 579 237 q 570 243 575 240 q 564 250 566 247 q 558 262 559 256 q 556 276 556 269 l 556 283 m 393 340 q 395 324 393 331 q 406 313 398 317 q 412 309 408 311 q 418 307 415 307 q 449 314 436 307 q 473 333 461 321 q 497 355 483 341 q 524 381 511 368 q 556 413 540 396 l 612 488 l 642 519 l 673 585 l 687 638 q 688 642 687 640 q 688 645 688 644 q 687 657 688 650 q 682 667 686 664 q 680 670 681 669 q 679 673 680 671 l 677 675 l 674 675 q 671 675 671 675 q 666 675 669 675 q 663 677 663 675 l 652 677 l 650 675 q 643 673 648 675 q 631 668 637 671 q 620 663 625 665 q 611 659 614 660 q 606 657 608 659 q 603 652 604 655 q 595 646 601 651 q 581 634 589 640 q 568 622 574 627 q 559 615 562 616 l 553 608 l 545 608 l 494 553 q 483 532 485 544 q 481 525 481 529 q 478 517 480 521 q 466 503 473 509 q 454 489 459 496 q 450 483 452 487 q 445 475 448 479 q 441 468 443 471 q 439 465 439 465 l 395 387 l 395 381 q 393 361 394 372 q 393 340 393 351 z "},"A":{"ha":939,"x_min":-21,"x_max":968,"o":"m -21 26 q -13 45 -21 39 q 7 56 -4 52 q 31 62 19 60 q 50 69 43 64 q 56 74 52 71 q 63 80 59 77 q 71 87 67 84 q 77 92 75 90 l 110 108 q 125 123 116 111 q 143 152 134 136 q 161 183 153 168 q 172 206 169 199 q 174 214 174 208 q 175 223 175 220 q 178 230 176 226 q 180 236 180 235 q 184 242 181 237 q 192 253 188 248 q 199 263 196 258 q 203 270 202 269 q 204 275 203 271 q 205 284 205 279 q 207 294 206 290 q 208 300 208 299 q 219 344 212 322 q 235 388 227 366 q 249 432 243 410 q 257 477 255 454 l 304 606 q 315 664 313 633 q 325 723 317 694 q 353 775 336 749 q 382 829 369 800 q 388 861 387 844 q 399 892 389 878 q 416 910 402 897 q 445 938 429 924 q 475 963 460 952 q 497 974 490 974 q 515 964 510 974 q 522 956 518 962 q 526 948 526 949 q 535 924 529 936 q 545 897 541 911 l 545 882 q 549 862 545 873 q 556 845 553 852 q 569 799 564 821 q 578 754 575 777 q 587 729 581 741 q 593 704 593 718 l 593 693 q 611 673 605 682 q 621 655 617 665 q 628 636 625 646 q 640 610 632 625 q 650 585 647 597 q 656 561 654 573 q 661 535 659 549 q 670 506 664 522 q 674 494 671 503 q 678 484 678 486 l 678 458 q 681 452 678 456 q 687 441 684 447 q 693 430 690 435 q 696 422 696 425 q 696 419 696 422 q 697 412 696 416 q 698 405 697 408 q 699 401 699 401 l 718 382 q 724 373 723 378 q 726 361 726 368 q 728 348 727 355 q 732 336 728 342 q 746 297 740 317 q 762 257 752 277 q 772 227 768 243 q 777 196 777 211 l 777 188 q 796 160 785 172 q 814 136 807 148 q 827 113 820 121 q 840 98 833 104 q 852 90 846 93 q 865 83 859 87 q 896 71 880 75 q 936 62 911 66 l 955 58 q 966 42 964 52 q 968 24 968 31 q 957 3 968 9 q 934 -3 945 -3 l 876 0 l 862 0 q 853 4 859 3 q 841 7 847 6 q 830 7 835 7 q 823 8 825 7 l 743 8 q 733 17 737 16 q 720 18 728 18 q 662 11 692 18 q 598 3 632 3 l 583 3 q 563 4 572 3 q 545 9 553 5 q 542 21 542 12 l 543 32 q 545 38 545 35 q 545 42 545 41 q 549 48 545 47 q 576 56 561 54 q 606 62 592 59 q 630 72 621 66 q 640 90 640 78 l 640 92 q 638 127 640 107 q 636 167 636 147 q 632 181 636 174 q 627 195 627 189 l 627 236 q 618 264 625 245 q 601 302 611 283 q 578 336 590 321 q 553 351 566 351 q 517 343 536 351 q 479 336 498 336 q 449 342 463 336 q 414 349 434 349 l 371 349 q 342 347 357 349 q 315 338 328 345 q 277 305 294 326 q 251 254 259 284 l 246 206 q 245 199 246 205 q 242 188 243 194 q 239 177 241 182 q 238 170 238 172 q 237 166 238 169 q 237 161 237 163 q 241 143 237 149 q 251 127 245 138 q 260 111 254 121 q 272 93 266 100 q 297 80 281 85 q 329 70 313 75 q 356 56 345 64 q 367 34 367 48 l 367 29 q 347 -6 363 3 q 305 -14 331 -14 l 246 1 l 222 1 q 197 1 210 1 q 172 -1 184 0 q 151 -5 160 -3 q 137 -11 142 -7 q 103 -12 120 -11 q 74 -13 87 -12 q 52 -14 60 -14 q 42 -14 43 -14 q 22 -12 33 -14 q 2 -3 12 -9 q -15 9 -8 2 q -21 26 -21 16 m 328 486 q 327 471 328 478 q 326 458 326 464 q 335 432 326 439 q 362 426 344 426 q 366 427 364 426 q 367 429 366 428 q 376 431 368 429 q 387 433 384 432 q 399 431 393 432 q 408 429 405 429 l 515 429 q 561 471 561 429 q 556 487 561 477 q 546 508 552 496 q 534 531 540 519 q 526 555 528 543 q 522 563 526 559 l 490 610 q 488 617 490 614 q 484 624 486 621 l 481 638 q 473 673 477 652 q 461 711 468 693 q 446 743 454 730 q 427 755 437 755 q 412 738 421 755 q 391 693 402 720 q 369 633 380 666 q 349 570 357 600 q 334 517 340 541 q 328 486 328 494 z "},"B":{"ha":919,"x_min":56,"x_max":863,"o":"m 59 22 l 59 26 q 70 32 61 28 q 91 39 79 35 q 117 47 103 43 q 142 55 130 52 q 163 61 155 58 q 173 64 172 64 q 191 99 185 81 q 200 136 197 117 q 204 174 203 155 q 207 214 205 193 q 215 243 212 229 q 218 273 218 258 q 212 294 218 285 q 207 313 207 302 q 212 349 207 331 q 218 382 218 367 q 217 392 218 388 q 215 399 216 395 q 214 406 214 402 q 213 414 213 409 q 215 426 213 421 q 219 436 216 431 q 223 445 221 440 q 224 454 224 449 l 207 524 q 212 541 207 534 q 218 559 218 548 l 213 580 l 213 623 q 212 629 213 625 q 208 637 210 633 q 205 644 206 641 q 203 649 203 648 q 207 680 203 667 q 210 707 210 694 l 207 815 q 199 826 203 822 q 191 833 195 830 q 180 839 186 836 q 168 847 174 842 q 138 870 157 864 q 100 880 119 876 q 69 890 82 884 q 56 913 56 896 q 65 931 56 925 q 89 941 75 938 q 116 945 102 944 q 138 945 130 945 l 162 945 q 189 945 174 945 q 215 944 203 945 q 237 941 228 943 q 247 937 245 939 l 466 945 l 522 942 l 549 945 q 597 929 574 935 q 643 915 621 923 q 685 894 665 907 q 722 859 705 882 q 747 821 736 837 q 764 789 758 805 q 774 755 771 773 q 777 711 777 736 q 772 667 777 691 q 758 623 768 643 q 743 604 751 612 q 726 591 735 597 q 708 579 718 585 q 687 567 698 574 l 680 553 q 662 544 675 547 q 637 538 650 541 q 614 528 624 534 q 604 509 604 522 q 616 498 604 503 q 644 490 628 494 q 675 482 660 486 q 697 476 690 479 q 732 455 717 466 q 765 434 747 445 l 787 419 q 810 382 797 401 q 834 343 823 363 q 854 301 846 323 q 863 257 863 280 q 861 210 863 232 q 850 170 859 187 q 837 153 846 164 q 815 128 827 142 q 788 99 802 114 q 760 72 773 84 q 734 50 746 59 q 715 39 722 41 q 682 36 691 39 q 670 33 673 33 q 605 14 634 21 q 540 3 576 6 l 509 -7 q 472 0 491 0 q 431 -7 449 0 q 353 -1 391 -3 q 274 2 315 2 q 208 -4 241 2 q 138 -11 174 -11 q 122 -9 134 -11 q 95 -3 109 -7 q 70 7 81 1 q 59 22 59 14 m 343 205 l 353 174 q 355 133 355 147 q 359 110 356 118 q 370 95 362 101 q 396 81 378 90 q 407 75 403 77 q 416 69 411 72 q 443 55 430 63 q 474 47 456 47 q 495 51 487 47 q 513 55 503 55 l 545 52 q 563 56 553 52 q 582 66 572 60 q 600 79 591 72 q 614 92 608 85 q 624 99 617 93 q 637 111 630 104 q 649 124 644 118 q 659 134 655 131 q 667 152 661 143 q 678 170 673 161 q 687 189 683 179 q 691 210 691 199 q 689 270 691 240 q 679 329 686 300 q 657 382 671 357 q 620 427 644 408 q 577 453 598 443 q 530 466 557 463 l 496 466 q 446 474 468 469 q 400 480 423 480 l 361 476 q 357 468 359 473 q 352 457 355 463 q 348 447 350 452 q 343 440 345 442 q 346 423 343 429 q 348 408 348 416 l 338 313 q 343 274 338 295 q 348 230 348 253 l 343 205 m 357 516 l 366 505 l 404 517 q 454 522 428 520 q 505 524 480 524 q 522 524 517 524 q 530 524 527 524 q 566 561 550 540 q 594 604 582 581 q 617 650 607 626 q 636 696 627 673 l 636 707 l 627 725 q 610 774 620 749 q 584 819 600 798 q 548 853 569 839 q 500 869 528 867 q 494 870 498 869 q 485 871 490 871 q 476 872 480 871 q 471 873 472 873 q 454 878 462 874 q 439 887 446 882 q 423 895 431 892 q 405 899 414 899 q 391 894 400 899 q 373 882 382 889 q 356 867 363 875 q 348 854 349 860 l 348 826 l 353 772 q 350 749 353 761 q 346 725 348 737 q 341 702 343 713 q 338 682 338 691 q 346 596 338 637 q 357 516 353 555 z "},"C":{"ha":993,"x_min":64,"x_max":944,"o":"m 74 359 q 73 365 74 361 q 71 373 72 369 q 69 381 70 378 q 68 387 68 385 q 66 395 66 392 q 66 400 66 397 q 68 409 66 406 q 73 419 69 412 l 64 555 l 68 593 q 71 597 69 595 q 73 601 72 600 q 74 604 73 603 q 83 631 80 618 q 92 659 87 644 q 95 684 95 672 q 100 709 95 699 q 120 748 109 729 q 148 791 132 766 q 151 796 149 793 q 153 800 152 798 q 166 820 159 809 q 174 832 174 831 q 190 850 182 844 q 209 867 198 857 q 250 899 232 884 q 292 929 267 914 l 309 937 q 322 942 315 939 q 338 950 330 946 q 353 958 346 954 q 367 963 361 961 l 436 972 q 445 975 439 972 q 454 980 451 977 q 500 981 483 981 q 534 982 518 982 q 575 981 555 982 q 616 980 595 981 q 637 975 629 977 q 650 972 645 973 q 656 971 654 971 q 661 971 659 971 q 674 972 669 972 q 683 972 679 972 q 693 972 688 972 q 707 972 699 972 q 724 961 715 968 q 740 954 732 954 q 745 956 743 954 q 749 958 748 958 l 789 958 q 806 963 798 959 q 822 973 814 968 q 837 982 829 978 q 854 985 844 985 q 874 978 865 985 q 882 958 882 971 l 882 845 q 884 834 883 842 q 886 823 886 827 q 900 756 892 791 q 908 690 908 722 q 905 681 907 686 q 898 672 902 676 q 891 665 895 668 q 886 662 888 662 q 881 661 886 661 q 858 667 867 661 q 841 682 848 673 q 831 703 834 692 q 826 723 827 713 l 826 745 q 822 761 825 755 q 817 771 820 766 q 809 780 813 775 q 799 792 804 785 q 790 809 791 800 q 783 827 789 818 q 777 833 781 830 q 770 836 772 836 l 727 867 q 724 870 727 867 q 718 877 721 873 q 711 884 714 881 q 707 889 708 888 q 699 893 700 893 q 690 892 698 892 q 685 893 685 892 q 657 902 671 896 q 633 914 644 908 l 551 918 q 542 924 547 923 q 530 926 537 926 q 491 922 507 926 q 461 910 475 918 q 460 908 460 909 q 457 907 458 907 q 436 895 448 899 q 414 887 425 891 q 391 879 402 884 q 370 867 380 875 l 345 845 q 338 839 344 844 q 331 832 332 835 q 319 818 328 825 q 309 810 311 812 q 301 794 303 803 q 296 785 298 786 l 280 762 l 261 719 l 252 680 q 249 675 252 678 q 244 668 247 671 q 238 661 241 664 q 233 659 235 659 q 233 653 233 658 q 232 642 232 648 q 231 629 231 635 q 230 619 230 623 l 230 601 l 233 532 l 241 498 l 233 461 q 242 396 233 429 q 261 333 251 363 q 273 317 262 332 l 280 298 q 286 287 282 292 q 295 277 290 282 q 305 269 300 273 q 313 260 310 264 q 318 243 317 248 q 321 237 319 239 q 324 234 322 235 q 331 229 326 233 q 339 222 336 227 q 345 212 342 218 q 350 201 347 207 q 357 193 353 196 q 379 190 370 191 q 396 182 389 190 q 427 158 412 168 q 455 141 441 149 q 486 129 470 134 q 523 121 503 124 l 558 111 q 587 116 576 111 q 609 121 598 121 q 628 114 619 121 q 648 106 637 106 q 662 112 656 106 q 677 121 668 118 q 685 122 678 121 q 694 124 692 123 q 703 127 697 124 q 712 134 709 131 q 742 139 735 137 q 749 142 748 142 q 753 145 750 142 q 759 150 755 147 q 764 156 762 153 q 768 161 767 159 q 777 164 771 161 q 790 172 783 168 q 805 182 798 177 q 817 189 812 186 q 821 194 820 191 q 826 201 823 197 q 846 222 836 215 q 868 243 857 229 q 876 251 871 245 q 882 260 881 257 q 885 269 883 262 q 890 277 888 276 q 907 287 899 284 q 924 290 916 290 q 933 286 929 290 q 939 276 937 281 q 943 264 941 271 q 944 254 944 258 q 938 230 944 240 q 924 210 932 219 q 910 190 917 200 q 900 168 903 180 q 891 160 897 165 q 879 149 885 155 q 867 137 873 143 q 861 129 862 132 q 833 101 846 109 q 810 85 821 94 q 803 73 806 79 q 793 63 801 66 q 771 53 783 58 q 746 45 760 49 q 707 27 724 32 q 672 16 690 22 l 645 1 q 595 -4 609 -1 q 579 -8 582 -8 q 550 -4 557 -7 q 539 -1 542 -1 l 497 -15 q 481 -14 490 -14 q 465 -12 473 -13 q 450 -9 456 -11 q 439 -5 443 -7 q 401 2 421 0 q 363 13 382 4 l 313 33 q 305 36 312 34 q 296 37 298 37 q 273 63 276 63 l 257 63 q 244 76 252 66 q 230 98 237 86 q 221 109 230 106 q 205 111 212 111 q 199 116 201 113 q 197 124 198 120 q 195 134 196 129 q 190 142 193 138 q 183 152 189 145 q 174 161 178 158 q 167 165 170 163 q 162 167 164 166 q 158 171 160 168 q 153 178 156 173 l 136 204 l 121 220 q 117 254 121 244 q 113 264 114 263 q 111 276 113 267 q 108 286 109 285 q 91 295 94 292 q 87 298 88 297 l 74 359 z "},"D":{"ha":1115,"x_min":64,"x_max":1059,"o":"m 72 41 q 81 56 72 52 q 105 64 91 61 q 137 71 120 67 q 169 81 154 74 q 193 102 183 89 q 202 140 202 116 l 197 162 q 200 170 197 167 q 206 176 203 173 q 212 182 210 178 q 215 191 215 185 l 210 238 l 213 265 q 214 279 214 269 q 208 317 214 301 q 201 349 201 333 q 202 360 201 358 q 215 413 210 386 q 220 466 220 441 q 215 481 220 477 l 210 604 q 202 629 207 616 q 197 657 197 643 q 198 661 197 659 q 202 672 199 663 q 199 736 202 705 q 194 802 197 768 l 195 823 q 192 827 195 823 q 184 834 189 830 q 176 842 180 838 q 173 848 173 846 q 175 854 174 852 q 176 860 176 857 q 175 867 176 863 q 173 874 174 871 q 164 882 172 878 q 143 890 155 886 q 117 899 131 895 q 91 907 103 903 q 72 915 79 911 q 64 921 64 918 q 69 937 64 930 q 83 947 75 943 q 101 952 91 951 q 120 954 111 954 q 152 946 136 947 q 184 945 169 945 q 260 949 226 945 q 315 956 286 952 q 369 963 345 959 q 391 970 383 968 q 399 972 398 972 q 412 972 408 972 q 419 970 416 971 l 488 970 q 497 969 492 969 q 506 969 502 969 q 515 969 511 969 q 524 970 519 969 q 600 960 564 970 q 675 939 637 950 q 685 937 677 939 q 704 933 694 935 q 723 929 713 931 q 734 928 732 928 q 739 925 735 928 q 747 919 743 922 q 756 913 752 916 q 761 910 760 910 l 793 906 q 795 904 793 906 q 800 899 798 902 q 806 895 803 897 q 810 892 808 892 q 851 870 829 878 q 895 848 873 862 q 943 797 916 823 q 993 744 969 771 q 995 741 994 743 q 997 734 996 739 q 1001 720 998 729 q 1007 697 1004 711 q 1010 686 1007 689 q 1013 680 1010 684 q 1021 671 1017 676 q 1029 663 1025 667 q 1036 657 1034 659 q 1038 633 1036 644 q 1044 613 1041 623 q 1050 595 1048 604 q 1053 577 1053 586 l 1050 538 l 1059 486 q 1055 446 1059 465 q 1047 409 1052 427 q 1037 372 1042 391 q 1027 333 1031 353 l 1027 307 q 1023 301 1027 307 q 1019 292 1019 295 q 1005 263 1013 277 q 989 234 997 249 q 973 205 981 220 q 959 174 965 190 l 901 123 l 863 101 q 858 98 858 101 q 821 61 843 77 q 772 45 799 45 l 737 48 q 723 44 731 48 q 707 37 714 39 q 699 36 705 37 q 686 34 692 35 q 674 32 680 33 q 667 31 668 31 q 656 28 665 31 q 635 24 647 26 q 612 19 624 22 q 594 15 601 16 q 573 8 586 8 q 561 10 568 8 q 539 15 553 12 q 535 14 538 15 q 527 12 531 13 q 517 9 522 10 q 510 8 513 8 q 498 12 505 9 q 488 15 490 15 q 428 9 457 11 q 371 8 399 8 q 313 9 341 8 q 256 15 286 11 q 227 19 239 18 q 197 20 214 20 l 119 5 q 103 7 111 5 q 87 13 94 9 q 76 24 81 18 q 72 41 72 31 m 347 217 q 367 156 347 185 q 417 105 387 127 q 482 71 448 83 q 545 58 517 58 q 611 66 581 58 q 671 92 640 74 q 687 100 680 97 q 701 106 694 103 q 714 113 707 109 q 730 123 722 117 q 778 161 755 141 q 822 208 802 182 l 825 225 q 832 245 828 237 q 841 262 836 254 q 850 278 846 270 q 858 298 854 287 q 859 302 858 298 q 860 311 859 307 q 862 320 861 316 q 863 325 863 324 q 873 350 867 337 q 885 375 880 362 q 894 401 890 388 q 898 429 898 415 q 894 443 895 439 q 893 450 893 446 q 894 458 893 453 q 895 463 895 463 q 891 484 893 469 q 887 515 889 498 q 884 547 886 532 q 883 568 883 562 q 875 587 877 576 q 873 608 873 598 q 874 623 873 616 q 875 635 875 629 q 859 655 863 643 q 851 680 854 667 q 845 706 848 692 q 835 730 842 719 q 831 734 834 731 q 825 741 829 737 q 819 747 822 745 q 816 751 817 750 l 804 766 l 766 805 q 738 837 751 820 q 707 866 724 854 q 682 879 694 875 q 658 886 670 882 q 633 895 646 889 q 606 914 620 901 q 579 925 597 921 q 541 931 562 929 q 502 935 521 934 q 475 935 484 935 q 407 931 444 935 q 342 914 371 926 q 333 901 336 911 q 327 878 329 891 q 323 849 324 864 q 322 823 322 834 l 322 802 q 329 756 322 778 q 335 707 335 734 q 333 698 335 704 q 330 691 332 692 q 328 663 328 677 q 327 635 327 648 q 328 611 327 623 q 330 589 328 600 q 336 566 335 575 q 337 548 337 557 q 337 532 337 539 q 335 513 336 524 l 336 496 l 335 484 q 331 474 332 478 q 330 463 330 469 l 330 452 q 333 389 330 421 q 338 325 335 356 q 347 288 341 307 q 353 252 353 270 l 347 217 z "},"E":{"ha":962,"x_min":36,"x_max":923,"o":"m 36 40 q 46 61 36 53 q 70 74 56 69 q 98 81 83 79 q 121 83 112 83 l 176 83 q 192 91 182 85 q 211 105 201 97 q 227 124 220 114 q 235 144 234 135 q 237 175 237 159 q 235 202 237 188 l 245 217 q 232 286 235 252 q 229 354 229 321 q 230 371 229 361 q 232 392 231 381 q 236 412 234 402 q 240 429 238 422 q 242 434 241 431 q 245 441 245 439 q 250 450 247 446 q 253 457 251 453 q 254 463 254 460 q 249 472 254 468 q 240 476 243 476 q 242 521 241 498 q 243 566 243 544 q 242 611 243 589 q 240 656 241 633 q 236 670 237 665 q 235 682 235 674 l 240 722 l 235 794 q 228 812 235 802 q 212 832 221 823 q 192 847 202 841 q 176 855 182 854 l 127 855 l 122 858 q 118 860 120 859 q 115 861 116 861 q 93 866 105 864 q 71 871 81 867 q 54 883 61 876 q 47 906 47 891 q 51 925 47 918 q 61 934 54 931 q 76 938 67 937 q 97 939 85 939 q 132 937 115 939 q 161 927 149 936 q 168 928 165 928 q 174 929 172 929 l 187 929 q 255 924 220 929 q 319 916 290 919 l 357 909 q 375 912 366 909 q 394 919 385 916 q 414 926 404 923 q 433 929 423 929 q 444 926 439 929 q 459 922 449 922 q 466 926 463 922 q 476 929 469 929 q 487 928 483 929 q 494 922 490 928 l 520 922 q 550 927 534 922 q 581 932 566 932 q 596 931 591 932 q 612 922 602 930 l 734 916 q 750 914 743 916 q 764 912 757 913 q 777 909 772 911 q 785 909 781 909 q 794 906 790 908 q 801 901 798 904 q 804 892 804 897 q 808 872 806 886 q 812 842 810 858 q 815 813 814 827 q 816 794 816 800 q 821 747 819 771 q 823 701 823 724 l 812 701 q 788 724 798 701 q 779 735 782 732 q 775 741 777 738 q 756 769 766 754 q 738 798 746 785 q 724 823 730 812 q 715 839 718 834 q 699 844 707 842 q 682 847 690 846 q 667 852 673 849 q 655 863 660 855 q 634 873 650 873 q 627 871 628 873 q 619 870 624 871 q 608 869 614 869 q 585 870 597 869 q 566 871 574 871 q 560 873 562 871 q 555 874 559 874 q 553 875 554 874 q 551 876 552 876 q 521 879 536 878 q 491 880 506 880 q 462 879 476 880 q 433 876 448 878 q 422 871 428 875 q 410 861 416 867 q 399 849 404 855 q 393 838 395 843 q 387 786 388 814 q 385 726 385 757 l 385 656 q 378 641 379 648 q 376 622 376 633 l 376 598 q 377 566 376 582 q 382 536 378 551 q 394 507 387 521 q 416 480 402 493 l 525 476 q 550 481 538 476 q 558 483 553 482 q 568 484 563 484 l 594 484 q 615 490 606 484 q 628 495 621 492 q 642 504 635 499 q 655 514 649 509 q 665 524 661 519 q 674 550 669 532 q 685 587 679 568 q 700 619 692 605 q 718 633 707 633 q 734 621 726 633 l 734 558 q 732 543 734 549 q 726 524 730 536 l 718 513 l 721 490 q 722 474 721 488 q 725 444 724 461 q 728 409 726 427 q 729 379 729 391 l 726 354 q 730 334 726 342 q 734 319 734 326 q 727 289 734 302 q 703 276 721 276 q 690 279 694 276 q 683 287 685 282 q 680 297 680 291 q 679 309 679 302 q 679 317 679 313 q 677 325 679 321 l 659 358 l 659 379 q 643 396 658 388 q 606 411 628 404 q 556 423 583 418 q 504 433 530 429 q 458 439 479 437 q 428 441 437 441 q 407 433 416 441 q 391 414 397 425 q 381 390 385 403 q 376 368 378 378 l 376 315 l 385 210 l 385 151 q 398 120 387 136 q 425 92 409 104 q 458 71 440 79 q 490 61 475 62 l 538 58 l 551 53 l 594 53 q 624 53 610 53 q 651 54 637 53 q 679 55 665 54 q 711 58 693 56 l 766 79 q 792 100 777 86 q 823 131 808 115 q 851 162 838 146 q 870 188 864 178 q 877 198 873 190 q 885 217 880 207 q 895 234 889 227 q 909 241 901 241 q 920 235 916 241 q 923 223 923 229 l 911 180 q 891 109 901 145 q 878 35 882 73 q 842 9 864 14 q 798 5 821 5 q 783 5 790 5 q 769 3 775 5 l 755 0 q 744 1 748 0 q 736 4 740 3 q 730 7 733 5 q 721 8 726 8 l 677 3 l 655 8 l 551 0 q 452 4 501 0 q 349 8 402 8 l 262 0 l 201 3 q 178 1 189 3 q 155 -5 166 -2 q 134 -12 144 -9 q 115 -14 124 -14 q 90 -11 103 -14 q 64 -1 76 -7 q 44 16 52 6 q 36 40 36 26 z "},"F":{"ha":882,"x_min":29,"x_max":854,"o":"m 765 819 l 732 854 q 700 878 715 869 q 671 893 686 888 q 643 901 657 899 q 610 903 628 903 q 603 902 604 903 q 574 902 585 902 q 558 902 564 902 q 551 902 553 902 q 549 901 549 901 l 497 901 q 473 897 486 898 q 450 897 461 897 q 411 896 424 897 q 389 890 397 895 q 380 883 382 888 q 379 876 379 879 q 375 855 379 861 q 360 841 372 848 q 357 834 358 840 q 355 822 356 829 q 354 808 354 815 q 353 798 353 802 q 358 768 353 782 q 363 736 363 753 l 357 693 q 364 662 357 677 q 371 628 371 646 l 360 527 q 366 513 360 521 q 374 501 371 505 q 417 493 395 498 q 460 488 439 488 q 468 489 465 488 q 475 498 472 490 q 493 499 483 498 q 517 500 504 500 q 557 500 536 500 q 598 502 578 500 q 635 508 618 504 q 662 519 652 511 q 676 536 671 525 q 684 561 682 548 q 689 588 687 574 q 695 613 691 602 q 706 631 699 624 q 726 638 713 638 q 734 637 730 638 q 741 628 738 635 l 741 600 q 734 537 741 567 q 728 494 731 513 q 725 455 725 475 q 730 422 725 438 q 741 391 735 406 q 752 360 747 376 q 757 328 757 345 q 756 313 757 318 q 753 307 756 308 q 749 298 750 301 q 741 296 747 296 q 726 303 731 296 q 713 318 721 311 l 704 339 q 690 370 696 355 q 674 398 683 385 q 653 424 665 412 q 624 445 641 435 l 593 445 q 545 446 570 445 q 501 450 519 447 l 460 458 q 421 452 442 458 q 382 445 401 446 q 368 426 376 437 q 360 402 360 415 q 378 303 371 352 q 386 206 386 255 q 385 175 386 183 q 382 163 384 168 q 398 134 388 146 q 420 112 408 121 q 448 94 433 102 q 475 79 462 85 q 480 75 476 79 q 484 69 484 71 q 496 67 486 68 q 508 66 505 66 q 517 66 513 66 q 526 67 521 66 q 535 68 531 68 q 543 68 538 68 q 553 68 548 68 q 563 67 559 68 q 572 66 568 66 q 581 66 576 66 q 589 59 584 62 q 598 51 594 56 q 606 41 603 46 q 609 28 609 35 q 606 13 609 21 q 596 -2 602 5 q 584 -13 591 -9 q 570 -18 577 -18 l 569 -18 q 552 -19 562 -19 q 536 -20 543 -20 q 518 -19 527 -20 q 496 -18 510 -19 l 484 -14 q 458 -3 472 -8 q 428 5 444 1 q 398 10 413 8 q 370 12 382 12 q 345 11 355 12 q 318 5 335 9 q 286 1 302 2 q 254 0 269 0 q 221 1 236 0 q 188 5 205 2 q 173 -4 180 2 q 154 -13 165 -10 q 145 -11 149 -12 q 137 -9 142 -9 q 127 -11 134 -11 l 101 -11 q 76 0 85 -5 q 61 21 66 5 q 83 58 61 43 q 126 66 100 59 q 176 86 152 74 q 219 115 201 98 q 237 153 237 132 q 235 215 237 189 q 231 265 233 241 q 227 316 229 290 q 225 381 225 343 q 228 404 225 393 q 232 426 230 415 q 237 449 235 437 q 239 471 239 460 q 239 477 239 473 q 239 484 239 480 q 238 491 239 488 q 238 494 238 494 l 230 524 l 230 576 q 227 599 230 587 q 221 622 224 610 q 216 645 218 633 q 214 667 214 656 q 215 676 214 669 q 217 685 216 682 q 221 712 220 699 q 223 741 223 726 q 222 767 223 754 q 217 794 220 781 q 211 818 217 806 q 196 841 205 830 q 176 860 187 852 q 156 873 165 869 q 123 879 144 878 q 81 884 102 880 q 44 897 60 888 q 29 927 29 906 l 29 937 q 56 950 40 943 q 83 956 72 956 l 100 956 q 118 954 109 956 q 134 945 127 952 q 157 941 145 943 q 180 940 168 940 q 202 941 190 940 q 227 945 214 943 q 232 951 230 950 q 238 951 233 951 q 266 946 252 951 q 297 941 279 941 l 312 941 q 328 941 319 941 q 345 945 336 941 q 399 941 370 941 q 454 945 426 941 q 507 954 479 954 q 566 956 535 954 q 595 959 581 958 q 623 960 609 960 q 644 959 633 960 q 667 956 655 958 q 674 952 669 955 q 683 945 678 949 q 691 940 687 942 q 697 937 695 937 q 708 939 703 937 q 719 945 712 941 q 741 948 730 947 q 765 949 753 949 q 807 945 786 949 q 813 940 808 945 q 824 931 819 936 q 835 921 830 926 q 840 916 840 917 l 840 819 q 854 752 854 786 q 853 735 854 744 q 851 720 853 727 q 843 707 848 712 q 828 703 838 703 q 819 714 824 707 q 807 728 813 721 q 797 742 802 735 q 788 754 791 749 q 785 762 788 755 q 779 775 783 768 q 773 789 776 783 q 768 798 770 795 q 766 808 767 799 q 765 819 765 818 z "},"G":{"ha":1104,"x_min":61,"x_max":1093,"o":"m 74 345 q 76 355 74 351 q 79 367 79 358 q 75 376 79 374 q 64 385 72 379 q 62 410 62 397 l 62 460 q 63 473 62 467 q 64 486 63 478 q 70 495 69 492 q 71 501 71 498 l 61 532 l 71 572 q 67 588 71 581 q 64 602 64 595 q 67 611 64 607 q 74 619 71 615 q 82 627 78 623 q 87 637 85 631 l 93 659 q 124 722 102 694 q 176 777 146 750 q 188 805 176 791 q 215 834 199 820 q 253 862 232 848 q 294 887 273 876 q 333 908 315 899 q 363 922 351 917 q 395 931 379 928 q 429 942 412 935 q 453 945 435 943 q 491 950 471 947 q 529 955 511 953 q 555 958 547 957 q 572 957 564 958 q 588 956 580 956 l 654 956 q 672 956 663 956 q 689 955 681 956 q 712 944 697 950 q 744 934 727 939 q 777 926 761 929 q 804 922 793 922 q 826 929 818 922 q 841 943 834 935 q 854 958 847 951 q 873 964 861 964 q 888 960 882 964 q 898 949 894 956 q 903 935 901 942 q 905 922 905 928 l 908 850 q 912 841 911 845 q 914 833 914 836 q 916 817 914 821 q 918 803 916 812 q 922 784 920 793 q 925 768 924 775 q 927 760 927 761 q 931 742 928 749 q 937 727 934 734 q 942 713 940 720 q 945 694 945 705 q 942 689 945 692 q 936 684 939 686 q 928 679 932 681 q 922 677 924 677 q 891 687 906 677 q 864 713 876 698 q 842 746 852 729 q 826 777 832 763 l 821 785 l 818 802 l 795 823 q 790 830 793 825 q 782 840 786 834 q 774 851 778 846 q 767 860 770 857 q 747 877 760 871 q 721 886 735 882 q 693 892 707 889 q 667 900 679 895 q 651 909 658 905 q 637 916 644 913 q 622 921 630 919 q 602 922 614 922 q 571 914 586 922 q 541 903 557 906 l 493 900 q 434 879 462 895 q 381 842 406 863 q 334 796 357 821 q 292 749 312 772 q 285 729 286 741 q 280 705 283 717 q 265 675 275 690 q 247 644 256 660 q 230 612 237 628 q 223 580 223 596 q 224 567 223 576 q 226 546 225 558 q 227 520 227 534 q 228 494 228 507 l 227 471 l 237 454 l 237 416 q 245 346 240 380 q 269 279 251 312 q 286 256 276 266 q 304 235 295 245 q 323 214 314 225 q 341 190 333 203 q 352 183 345 184 q 367 176 360 182 q 444 103 399 128 q 541 64 488 79 q 564 57 555 62 q 585 53 573 53 q 597 55 590 53 l 606 58 q 619 58 610 58 q 638 60 628 59 q 659 62 649 61 q 673 64 669 64 q 683 70 674 64 q 704 83 691 75 q 730 101 716 92 q 757 120 745 111 q 779 135 770 128 q 789 143 787 142 l 789 164 l 786 204 q 788 231 786 218 q 789 252 789 243 l 789 267 l 783 279 l 783 313 q 775 333 781 326 q 763 348 770 341 q 750 361 755 355 q 743 378 744 368 l 743 399 l 739 418 q 748 427 741 424 q 765 433 755 431 q 786 435 774 435 q 807 435 798 435 l 829 435 l 879 427 q 909 429 895 427 q 934 434 923 431 l 937 435 l 1061 435 q 1068 434 1063 435 q 1079 430 1074 433 q 1088 423 1084 427 q 1093 414 1093 419 q 1079 392 1093 400 q 1049 379 1066 384 q 1015 371 1031 374 q 991 363 998 368 l 951 313 q 958 298 954 307 q 961 279 961 289 l 951 204 q 956 188 951 193 q 961 176 961 182 q 959 142 961 160 q 950 109 956 125 q 933 81 944 93 q 905 64 922 68 l 868 61 q 846 53 859 60 q 820 38 833 47 q 795 21 807 30 q 774 8 783 13 q 758 3 766 3 q 743 2 749 2 l 718 2 q 693 1 704 2 q 667 -7 682 -1 l 555 -7 q 492 0 525 0 q 460 1 476 0 q 429 2 445 1 q 417 5 422 2 q 409 12 413 8 q 402 19 406 16 q 393 24 398 23 q 384 30 391 26 q 367 35 376 33 q 350 40 358 38 q 341 42 342 42 l 298 64 q 284 67 294 64 q 270 71 275 71 q 244 87 260 73 q 211 119 229 101 q 179 154 194 136 q 159 180 165 172 q 153 190 159 182 q 143 201 146 198 l 136 218 q 130 224 135 220 q 120 231 125 227 q 112 239 115 235 q 108 244 108 242 l 101 288 q 95 301 99 294 q 86 315 90 308 q 78 329 81 321 q 74 345 74 336 z "},"H":{"ha":1193,"x_min":51,"x_max":1145,"o":"m 72 5 l 64 5 q 51 18 51 7 q 53 38 51 30 q 70 52 56 45 q 96 60 81 57 q 126 67 111 64 q 154 75 141 71 q 176 87 168 79 q 188 100 183 92 q 197 118 193 109 q 203 136 201 127 q 210 153 206 145 l 216 315 l 210 354 q 211 364 210 357 q 214 376 213 371 q 210 429 211 401 q 210 484 210 456 q 210 534 210 509 q 214 585 211 559 l 213 600 q 211 618 213 602 q 206 653 208 633 q 201 692 203 672 q 199 723 199 711 l 195 744 l 199 781 q 198 811 199 795 q 195 836 198 826 q 180 859 191 850 q 155 872 170 867 q 126 879 141 877 q 98 885 111 882 q 77 892 85 888 q 68 905 68 897 q 72 913 68 912 q 80 919 75 914 l 86 921 q 148 926 117 924 q 210 928 179 928 q 229 926 220 928 q 248 924 239 925 q 268 921 258 922 q 292 920 279 920 l 431 928 l 485 928 q 497 918 497 922 q 493 907 497 911 q 483 901 489 903 q 471 897 477 898 q 460 895 465 895 l 430 895 q 416 895 422 895 q 404 889 410 894 q 365 864 382 878 q 327 836 348 850 q 321 833 321 836 q 332 805 329 819 q 335 777 335 791 q 331 755 335 766 q 323 734 328 745 l 321 724 q 322 701 321 711 q 327 682 324 691 q 332 662 329 672 q 338 640 335 652 l 338 572 l 340 549 q 340 542 340 548 q 338 530 340 535 q 346 513 338 523 q 361 498 353 503 l 378 498 q 403 500 393 498 q 427 506 413 503 l 459 506 l 584 498 l 632 502 q 654 496 646 502 q 671 490 662 490 q 698 494 686 490 q 722 498 711 498 l 789 490 l 819 493 q 830 498 822 494 q 840 506 838 503 q 843 507 840 506 l 845 509 q 849 533 847 519 q 853 561 852 547 q 856 590 855 576 q 857 615 857 604 q 853 636 857 625 q 849 659 849 648 q 853 687 849 673 q 862 714 857 701 q 871 740 867 727 q 875 765 875 752 q 857 822 875 800 q 812 863 839 844 q 796 869 808 867 q 770 872 785 871 q 739 874 755 873 q 710 878 723 875 q 688 885 696 880 q 679 900 679 890 q 684 916 679 910 q 695 925 688 921 q 709 931 701 928 q 722 939 716 934 l 761 939 l 1026 920 l 1039 920 q 1047 921 1047 920 l 1066 928 l 1128 928 q 1140 922 1135 928 q 1145 908 1145 916 q 1136 891 1145 897 q 1115 883 1127 886 q 1090 879 1103 880 q 1069 876 1077 878 q 1037 859 1050 873 q 1010 827 1023 846 q 1002 764 1008 795 q 989 701 997 733 q 985 690 988 698 q 981 680 981 682 l 985 625 l 981 568 q 983 557 981 565 q 985 549 985 550 l 981 529 q 983 521 981 525 q 985 509 985 517 l 975 444 l 989 397 l 973 338 l 981 309 q 977 290 981 299 q 973 267 973 280 l 985 223 q 979 202 985 212 q 973 178 973 193 q 1023 71 973 97 q 1057 61 1036 62 q 1095 60 1078 60 q 1106 59 1101 60 q 1116 58 1111 58 q 1133 44 1131 55 q 1136 24 1136 34 q 1128 12 1135 17 q 1118 5 1122 7 q 1054 -5 1086 -3 q 984 -7 1021 -7 l 959 -7 q 947 -7 953 -7 q 937 -6 941 -7 l 852 5 l 776 -2 l 751 -6 l 703 -6 q 684 2 692 -6 q 676 14 676 9 q 680 34 676 26 q 692 45 684 41 q 707 50 699 49 q 723 52 715 52 l 741 52 q 750 57 748 53 q 758 66 753 61 q 781 79 768 73 q 807 92 795 85 q 828 109 819 99 q 836 134 836 118 l 831 176 q 834 226 831 201 q 840 275 838 251 q 845 288 842 282 q 849 300 849 294 q 849 309 849 305 q 845 318 848 313 l 845 413 q 836 432 845 423 q 814 446 827 440 q 787 455 801 452 q 764 458 773 458 q 754 456 759 458 q 743 451 749 454 q 732 446 738 448 q 720 444 726 444 l 668 453 q 654 450 661 453 q 642 442 648 446 q 626 434 635 437 q 606 431 618 431 q 583 437 593 434 q 564 441 573 439 q 544 444 554 443 q 520 445 534 445 l 498 445 q 485 444 490 445 q 479 444 480 444 q 460 439 470 441 q 438 437 450 437 q 427 439 434 438 q 414 441 420 440 q 402 443 407 442 q 396 444 397 444 l 377 458 q 364 452 371 458 q 354 444 357 446 q 340 433 345 437 q 332 422 334 428 q 328 409 329 416 q 327 391 327 401 q 329 353 327 373 q 335 315 330 332 q 336 309 336 313 q 338 300 337 305 q 340 292 339 296 q 340 286 340 288 q 342 280 342 286 q 340 267 342 273 q 338 251 338 260 l 342 212 q 340 209 342 210 l 335 193 q 336 186 336 189 q 338 178 338 180 q 341 164 341 172 q 342 150 342 157 l 342 134 q 344 105 342 119 q 361 81 347 92 q 370 77 363 79 q 385 72 377 75 q 399 68 392 70 q 409 66 406 66 l 423 66 l 488 69 q 528 34 526 69 l 528 33 q 526 20 528 26 q 516 7 523 13 q 498 -2 509 1 q 471 -6 488 -6 q 451 -1 457 -5 q 437 5 445 2 q 399 9 422 9 l 385 9 q 379 9 382 9 q 372 7 376 8 q 367 5 370 6 q 361 5 363 5 l 295 8 l 243 8 q 233 8 240 8 q 219 7 227 7 q 207 6 212 6 q 199 5 201 5 l 184 -6 q 126 -2 155 -6 q 99 3 112 1 q 72 5 86 5 z "},"I":{"ha":597,"x_min":46,"x_max":557,"o":"m 290 18 q 270 15 280 18 q 250 10 260 13 q 230 4 240 7 q 208 2 219 2 l 177 6 q 158 4 167 6 q 141 2 150 2 l 92 2 q 81 3 85 2 q 72 5 76 3 q 46 37 46 10 q 48 51 46 45 q 61 62 50 56 q 90 69 73 67 q 125 73 107 71 q 160 77 144 75 q 186 85 177 79 q 196 96 191 87 q 207 116 202 105 q 216 136 212 126 q 220 149 220 145 l 212 204 l 227 237 l 212 265 l 227 421 l 222 492 q 218 507 218 495 q 220 525 218 517 q 224 537 222 532 q 228 547 227 543 q 230 558 230 552 q 224 592 230 576 q 218 627 218 608 l 227 675 q 226 691 227 682 q 224 711 226 701 q 220 730 223 721 q 212 745 217 739 q 213 753 212 748 q 215 770 215 759 q 213 786 215 779 q 212 795 212 793 q 210 804 212 799 q 208 808 209 808 l 164 848 q 137 852 156 848 q 97 863 117 857 q 62 879 77 870 q 46 899 46 888 q 58 924 46 918 q 85 930 71 930 q 95 930 90 930 q 104 928 100 929 q 161 923 133 926 q 217 920 189 920 q 260 923 239 920 q 304 928 282 926 q 330 933 313 931 q 366 936 347 935 q 402 938 385 937 q 431 940 420 939 q 474 948 452 943 q 517 954 496 954 q 545 947 532 954 q 557 921 557 941 q 553 913 557 917 q 543 907 549 910 q 532 902 537 904 q 527 897 528 899 q 519 889 525 895 q 507 879 513 884 q 494 869 500 873 q 485 863 488 864 q 455 859 475 863 q 417 849 436 856 q 384 831 398 842 q 370 808 370 821 l 370 709 q 371 704 370 708 q 373 694 372 700 q 375 683 374 689 q 377 675 376 677 q 384 662 384 670 q 368 622 373 642 q 363 581 363 601 l 370 530 l 366 489 q 369 470 366 479 q 374 451 371 460 q 379 431 376 441 q 381 410 381 421 q 379 392 381 401 q 374 374 376 382 q 369 357 371 366 q 366 339 366 348 q 368 323 366 330 q 373 305 369 316 l 373 222 q 370 211 370 214 q 370 201 370 207 q 375 155 370 175 q 391 111 380 134 q 397 104 391 109 q 413 94 404 99 q 429 85 421 89 q 437 81 436 81 q 460 84 452 81 q 479 87 469 87 q 502 85 487 87 q 529 76 517 83 q 541 64 536 71 q 547 50 547 58 q 544 30 547 40 q 535 16 541 20 q 514 8 527 8 q 500 7 508 8 q 487 6 493 7 l 460 0 q 429 0 446 0 q 396 1 412 1 q 363 3 379 2 q 334 6 347 5 q 327 8 332 6 q 315 12 321 9 q 302 15 308 14 q 294 16 296 16 q 292 17 293 16 q 291 17 292 17 q 290 18 290 18 z "},"J":{"ha":568,"x_min":-127,"x_max":541,"o":"m 52 -391 l 40 -391 q 22 -393 31 -392 q 5 -393 13 -393 q -26 -392 -6 -391 q -66 -382 -45 -392 q -96 -356 -83 -373 q -127 -320 -108 -339 q -125 -294 -127 -311 q -116 -260 -122 -277 q -101 -231 -110 -243 q -79 -216 -92 -218 q -49 -212 -63 -212 q -26 -216 -37 -212 q -13 -221 -20 -216 q 0 -235 -6 -227 q 9 -253 5 -243 q 13 -269 13 -262 q 12 -272 13 -269 q 10 -277 12 -274 q 8 -285 9 -281 q 11 -295 9 -288 q 14 -304 12 -301 q 22 -316 20 -310 q 24 -328 24 -323 q 21 -347 22 -343 q 18 -352 20 -351 l 67 -354 q 104 -347 90 -354 q 133 -328 119 -339 q 160 -304 147 -317 q 183 -276 173 -291 q 199 -246 193 -262 l 199 -199 q 204 -191 199 -198 q 210 -182 209 -183 l 202 -146 l 214 -93 l 209 -64 l 217 15 q 217 27 217 22 q 214 43 216 33 q 212 73 212 58 l 212 135 q 212 150 212 143 q 214 167 212 157 q 217 177 216 171 q 219 190 218 183 q 221 203 220 197 q 221 214 221 210 q 215 233 221 225 q 209 252 209 241 q 213 268 209 261 q 217 285 217 275 l 209 331 l 217 376 q 212 400 212 396 l 223 444 l 214 578 q 214 588 214 581 q 215 602 214 595 q 216 615 216 609 q 217 622 217 621 l 223 638 q 216 661 218 654 q 214 669 214 667 l 214 722 l 202 747 q 204 760 202 754 q 208 771 205 766 q 212 781 210 776 q 214 791 214 785 q 210 803 214 799 q 202 811 206 807 q 194 824 198 816 q 191 850 191 832 l 191 866 q 179 871 184 867 q 170 880 174 875 q 160 889 165 884 q 148 895 155 893 q 123 901 140 897 q 88 910 106 905 q 57 923 71 916 q 43 939 43 930 q 46 949 43 943 q 54 963 50 956 q 64 974 59 969 q 73 979 69 979 l 170 970 q 175 972 172 970 q 182 975 178 974 l 250 960 q 261 962 258 960 q 273 964 265 964 l 334 960 l 479 969 l 524 969 q 535 956 530 962 q 541 942 541 951 q 537 936 541 940 q 527 928 532 932 q 516 921 522 924 q 508 915 510 917 l 435 915 q 426 906 430 909 q 418 901 422 903 q 409 898 414 899 q 397 892 404 896 q 376 870 383 883 q 365 844 369 858 q 361 815 361 830 q 360 787 360 801 l 360 768 l 374 753 q 372 739 374 746 q 366 726 369 732 q 359 712 362 720 q 357 696 357 705 l 361 659 l 347 566 q 349 549 347 558 q 352 531 350 541 q 355 514 353 522 q 357 502 357 507 q 359 489 359 495 q 360 479 360 483 q 359 469 360 473 q 357 463 358 465 l 347 412 q 356 398 355 403 q 358 384 358 393 q 356 375 358 381 q 342 351 353 370 q 348 342 342 350 q 353 332 353 335 q 354 327 354 331 q 355 317 355 322 q 356 308 356 313 q 357 302 357 304 q 355 287 357 298 q 351 264 354 276 q 348 239 349 250 q 347 225 347 227 q 350 211 347 214 q 353 203 353 208 q 348 189 353 194 q 342 172 342 183 q 348 151 342 161 q 353 127 353 141 l 342 90 l 347 64 q 344 44 347 53 q 339 24 340 35 q 336 4 338 18 q 332 -25 334 -10 q 328 -54 330 -40 q 324 -73 326 -67 q 318 -83 319 -79 q 317 -94 317 -87 q 317 -114 317 -110 q 316 -119 317 -118 l 300 -167 q 297 -210 298 -189 q 286 -250 296 -232 q 266 -277 277 -265 q 245 -307 254 -290 l 195 -360 q 179 -368 191 -363 q 155 -377 168 -372 q 132 -385 142 -381 q 120 -391 122 -389 l 64 -394 q 52 -391 55 -394 z "},"K":{"ha":1004,"x_min":60,"x_max":1017,"o":"m 920 -7 q 913 -7 918 -7 q 902 -9 908 -8 q 889 -10 895 -9 q 879 -11 883 -11 q 860 -7 873 -11 q 832 1 847 -4 q 804 11 817 5 q 785 19 791 16 l 760 47 q 758 53 759 49 q 749 60 757 56 q 732 75 742 68 q 722 87 723 82 q 711 100 714 94 q 706 111 708 106 q 701 122 703 117 q 692 134 698 127 l 652 174 l 637 199 q 625 218 633 209 q 606 234 616 227 q 584 250 595 242 q 564 264 573 257 q 543 288 550 273 q 529 315 535 302 q 513 329 523 323 q 495 342 504 336 q 478 358 486 349 q 469 379 471 366 l 406 440 q 396 446 403 444 q 380 450 389 448 q 363 452 372 452 q 349 453 355 453 q 338 449 343 453 q 328 440 332 446 q 321 428 323 435 q 319 416 319 422 q 323 395 319 406 q 328 374 327 384 q 331 328 330 353 q 333 280 333 304 l 325 254 l 328 235 l 333 196 l 341 174 l 333 136 q 338 108 333 118 q 352 92 343 98 q 372 85 361 87 q 397 81 384 83 l 410 81 q 420 78 413 81 q 435 72 427 75 q 448 64 442 68 q 453 58 453 60 q 462 48 458 51 q 470 43 467 45 q 474 40 473 41 q 476 34 476 38 q 434 -7 476 -7 q 403 -3 418 -7 q 371 6 387 1 q 339 15 355 11 q 307 19 323 19 q 262 14 284 19 q 214 8 239 8 l 178 12 l 127 8 q 121 9 125 8 q 113 12 117 10 q 105 15 109 14 q 102 19 102 17 q 119 48 105 41 q 150 56 132 55 q 169 72 159 64 q 185 87 178 79 q 197 105 193 96 q 201 128 201 115 q 201 150 201 144 q 199 159 201 155 l 203 203 l 214 224 q 208 246 210 235 q 206 267 206 257 l 206 267 q 207 274 206 270 q 208 282 208 278 q 210 289 209 286 q 211 292 210 292 q 212 294 212 293 q 212 296 212 295 q 214 299 213 297 l 211 315 l 211 382 q 201 410 205 397 q 197 437 197 424 q 198 444 197 444 l 201 458 q 199 480 199 472 q 197 494 198 489 q 197 502 197 499 q 197 508 197 505 l 206 541 q 204 546 206 544 q 201 549 203 548 l 201 576 l 206 625 q 203 643 206 635 q 201 659 201 652 l 206 677 q 199 727 200 707 q 198 765 198 747 q 194 785 198 772 q 182 810 189 798 q 167 833 176 823 q 150 842 158 842 q 135 842 141 842 q 123 844 130 842 q 104 851 115 848 q 83 859 93 854 q 66 870 73 863 q 60 889 60 878 q 61 902 60 897 q 71 909 62 907 l 85 909 l 148 906 l 205 908 q 219 907 212 908 q 232 902 226 907 q 247 899 239 899 q 262 899 255 899 q 292 902 277 899 l 323 913 q 331 914 327 914 q 338 914 334 914 l 354 914 q 372 913 363 914 q 389 909 380 913 l 416 902 q 420 893 419 901 q 421 882 421 885 q 412 866 421 873 q 391 852 403 859 q 367 841 378 846 q 349 833 355 836 q 341 815 345 827 q 333 787 337 802 q 327 759 330 772 q 325 738 325 745 q 327 732 325 734 q 328 722 328 729 l 314 691 q 316 684 314 686 q 319 682 317 682 q 324 680 321 681 q 328 675 326 679 l 328 659 q 323 638 328 648 q 319 618 319 627 q 322 609 319 616 q 325 602 325 603 l 325 549 q 321 546 323 548 q 319 541 319 544 q 323 536 319 538 q 333 534 327 534 q 342 537 339 534 q 349 544 346 540 q 355 554 352 549 q 363 562 358 559 q 387 576 374 570 q 412 588 399 582 q 437 602 425 594 q 458 618 449 609 q 479 651 473 632 q 492 685 486 669 q 500 692 495 690 q 512 696 506 694 q 524 701 517 699 q 534 707 530 703 q 551 727 538 712 q 576 760 564 742 q 599 794 589 778 q 609 819 609 811 q 606 825 609 819 q 598 837 602 830 q 590 849 594 843 q 585 855 586 854 l 574 854 q 556 856 565 854 q 540 861 547 857 q 529 871 533 865 q 524 886 524 877 q 528 899 524 892 q 537 911 531 905 q 549 921 543 917 q 562 924 555 924 l 576 920 l 637 915 q 665 921 643 918 q 714 925 688 923 q 765 927 741 926 q 799 928 789 928 q 814 926 803 928 q 838 922 826 925 q 859 912 850 918 q 868 897 868 907 q 860 885 867 887 q 844 876 854 882 q 821 864 833 871 q 797 852 809 858 q 775 844 785 847 q 760 840 766 840 q 748 833 751 834 q 744 832 745 832 l 724 823 q 705 814 715 823 q 686 794 695 806 q 668 772 676 783 q 656 754 660 760 l 645 744 q 595 695 616 721 q 550 640 575 669 l 541 631 l 521 628 q 506 615 512 623 q 493 601 499 608 q 482 586 488 593 q 469 574 477 579 q 466 570 466 574 q 467 563 466 568 q 469 556 468 557 l 469 527 q 486 520 475 527 q 510 503 496 513 q 537 480 523 492 q 563 455 551 467 q 584 433 575 443 q 597 418 593 422 q 603 410 598 416 q 608 400 608 403 q 623 380 614 389 q 641 365 631 372 q 661 348 651 357 q 678 325 671 338 q 683 321 680 321 q 690 321 686 321 q 701 319 695 321 q 711 312 706 317 q 722 299 717 307 q 728 283 724 292 q 736 269 732 275 q 748 257 741 262 q 764 252 754 252 q 780 235 770 244 q 801 217 790 227 q 821 199 811 208 q 839 180 831 189 q 843 176 840 180 q 847 170 847 172 q 869 146 857 157 q 896 127 882 136 q 921 106 909 117 q 940 81 932 96 q 957 71 944 73 q 983 65 969 68 q 1007 55 996 62 q 1017 28 1017 47 q 1013 7 1017 16 q 1000 -7 1008 -2 q 982 -15 992 -13 q 961 -18 972 -18 q 948 -16 954 -18 q 938 -12 943 -14 q 930 -8 934 -10 q 920 -7 926 -7 z "},"L":{"ha":987,"x_min":27,"x_max":987,"o":"m 27 34 q 32 57 27 45 q 48 69 37 69 l 104 74 q 138 80 121 77 q 169 87 154 83 q 198 99 184 92 q 223 121 212 106 q 228 130 226 125 q 229 140 229 134 q 235 159 229 151 q 234 190 235 176 q 231 222 234 204 q 230 235 230 230 q 230 244 230 241 q 231 259 230 255 q 235 275 231 264 q 234 308 235 294 q 233 333 233 321 q 241 380 233 356 l 235 481 q 232 492 233 484 q 231 503 231 500 q 238 521 235 511 q 241 542 241 530 q 238 580 239 562 q 235 618 238 598 q 230 627 233 624 q 227 637 227 631 q 230 647 227 644 q 235 654 233 650 l 235 686 q 234 719 235 701 q 232 755 234 736 q 227 794 231 774 q 215 831 222 813 q 205 838 212 833 q 194 847 199 842 q 183 855 188 852 q 178 859 179 859 q 161 867 172 863 q 136 874 150 871 q 109 882 123 878 q 83 892 95 886 q 65 906 72 898 q 58 924 58 913 q 62 931 58 928 q 74 936 67 934 q 87 938 81 937 q 96 939 93 939 q 109 937 104 937 q 115 937 113 937 q 122 939 121 937 q 170 941 145 940 q 218 942 194 942 q 263 941 241 942 q 310 939 284 940 q 316 934 313 935 q 323 932 320 932 q 375 939 353 935 q 416 946 397 942 q 451 954 434 949 q 488 961 468 958 l 505 961 q 536 960 517 961 q 571 956 555 960 q 600 946 588 953 q 612 928 612 940 q 611 913 612 922 q 607 899 610 905 q 587 890 604 893 q 551 884 570 886 q 512 882 531 882 q 485 881 493 881 q 478 879 481 880 q 472 878 475 878 q 466 878 469 878 l 454 874 q 417 869 430 871 q 397 863 404 867 q 389 853 391 859 q 385 834 387 846 q 384 811 384 823 q 380 784 383 799 l 371 762 q 374 743 371 753 q 382 723 378 733 q 390 701 387 712 q 393 680 393 690 l 389 628 l 398 585 q 395 557 398 569 q 389 532 392 545 q 385 488 385 512 q 384 446 384 465 l 382 425 q 389 402 382 408 l 389 265 q 385 256 385 259 q 384 250 384 253 q 389 231 384 239 q 393 215 393 222 q 390 184 393 201 q 384 156 387 168 q 383 152 384 155 q 382 146 382 149 q 380 138 381 142 q 393 117 382 127 q 418 97 404 106 q 448 83 433 88 q 473 77 463 77 l 503 83 q 510 80 505 83 q 525 77 514 77 q 541 82 534 77 q 559 87 548 87 l 580 77 l 623 74 l 642 69 l 654 69 q 691 74 673 72 q 728 80 710 77 q 763 91 746 84 q 794 109 780 97 l 796 111 q 799 117 799 114 q 808 135 802 128 q 820 148 813 142 q 833 159 826 154 q 847 172 840 164 q 864 193 857 179 q 881 218 871 207 q 897 233 888 225 q 917 247 907 241 q 937 258 927 254 q 955 262 947 262 q 964 261 958 262 q 974 259 969 260 q 983 255 979 258 q 987 250 987 253 q 984 225 987 235 q 976 207 981 215 q 965 191 971 199 q 951 175 958 184 q 947 165 949 172 q 946 155 946 159 q 947 144 946 151 q 948 135 948 138 q 942 119 946 126 q 931 105 937 111 q 920 94 926 99 q 911 83 915 88 l 908 62 q 878 11 901 28 q 821 -6 855 -6 l 768 5 l 746 -6 l 672 -6 q 648 3 659 2 q 623 5 637 5 q 594 -1 608 5 q 568 -6 581 -6 l 559 -6 l 454 8 l 441 13 l 380 13 q 368 21 373 20 q 353 22 363 22 q 342 22 346 22 q 332 16 338 21 l 223 16 q 191 3 213 8 q 145 -5 170 -2 q 99 -8 121 -7 q 64 -9 77 -9 q 49 -5 56 -9 q 37 5 42 -1 q 30 19 33 12 q 27 34 27 26 z "},"M":{"ha":1306,"x_min":47,"x_max":1266,"o":"m 56 21 q 58 35 56 32 q 66 43 60 39 q 93 59 77 51 q 126 75 109 67 q 159 91 143 83 q 184 104 174 98 q 205 161 199 131 q 212 222 212 191 l 212 241 q 212 252 212 247 q 212 263 212 258 q 214 268 213 264 q 215 275 214 271 q 216 283 216 279 q 216 289 216 287 l 224 302 l 225 328 q 224 335 225 331 q 216 349 223 340 l 228 386 q 227 395 228 391 q 224 401 226 398 q 222 407 223 403 q 220 415 220 411 l 220 428 l 228 481 l 220 527 q 228 558 220 543 q 235 589 235 574 l 231 615 q 234 638 231 626 q 239 663 236 650 q 245 689 242 675 q 248 715 248 702 q 239 726 245 719 q 231 738 234 732 q 230 760 231 747 q 223 786 228 774 q 209 808 218 799 q 188 817 201 817 l 132 812 l 117 812 q 91 816 103 814 q 68 822 78 818 q 53 835 58 827 q 47 858 47 843 q 48 876 47 870 q 54 885 50 882 q 65 889 58 888 q 83 892 72 890 l 100 899 l 122 899 q 210 893 168 899 q 297 887 252 887 q 316 889 308 887 q 332 892 323 892 q 388 854 369 878 q 416 794 406 831 l 416 786 q 420 764 418 772 q 427 750 422 756 q 439 738 431 744 q 463 725 448 732 l 461 711 q 464 691 461 701 q 470 671 466 681 q 477 651 473 661 q 482 629 480 641 q 483 622 482 627 q 485 611 484 616 q 486 601 486 606 q 487 595 487 596 q 499 572 491 585 q 515 547 507 559 q 531 521 523 534 q 545 498 539 508 q 578 422 562 460 q 610 346 595 385 l 630 313 q 636 297 634 306 q 641 282 638 289 q 649 271 644 275 q 663 267 654 267 q 677 269 673 267 q 683 275 682 271 q 685 287 684 280 q 689 302 686 293 q 695 308 689 304 q 703 313 702 312 q 725 350 716 330 q 741 390 734 369 q 754 431 748 410 q 768 473 760 452 q 771 480 768 473 q 778 495 774 487 q 785 512 781 504 q 790 524 789 520 q 807 571 800 549 q 824 616 813 593 l 829 629 q 858 683 842 654 q 890 728 873 711 q 889 744 890 739 q 887 752 887 749 q 888 763 887 755 q 892 778 890 770 q 895 792 894 785 q 897 800 897 798 q 900 811 898 803 q 901 823 901 819 l 916 838 q 916 845 916 840 q 917 855 917 850 q 918 864 918 860 q 919 869 919 868 q 933 885 923 878 q 955 897 943 892 q 978 904 966 901 q 998 906 989 906 q 1025 899 1011 906 q 1054 894 1039 894 l 1115 906 q 1158 905 1139 906 q 1202 899 1177 904 q 1223 876 1223 895 q 1211 849 1223 859 q 1180 832 1198 839 q 1141 822 1162 826 q 1101 811 1120 817 q 1071 797 1083 806 q 1059 772 1059 787 q 1063 744 1059 758 q 1074 718 1068 731 q 1084 690 1080 704 q 1089 662 1089 676 l 1078 598 l 1078 463 q 1082 448 1082 457 l 1084 376 l 1099 350 l 1099 307 q 1100 300 1099 305 q 1101 289 1100 295 q 1102 277 1101 283 q 1103 270 1103 272 q 1106 238 1104 259 q 1111 195 1108 218 q 1119 151 1114 172 q 1130 119 1123 130 q 1150 99 1137 106 q 1178 89 1163 93 q 1209 82 1194 85 q 1237 74 1225 79 q 1258 60 1250 69 q 1266 35 1266 52 q 1259 14 1266 22 q 1242 3 1253 7 q 1221 -2 1232 -1 q 1200 -3 1209 -3 l 1165 -3 q 1135 -3 1151 -3 q 1105 -1 1119 -2 q 1080 2 1090 1 q 1064 7 1069 4 q 1050 8 1062 8 l 1038 8 l 964 -3 l 901 3 q 893 1 899 3 q 887 -3 888 -2 q 863 -1 875 -3 q 841 5 850 1 q 824 18 831 10 q 818 37 818 26 q 838 58 818 52 q 853 59 846 58 q 869 60 861 60 q 917 64 895 60 q 955 88 940 68 q 957 94 956 92 q 958 98 958 96 q 959 101 959 100 q 960 104 959 102 q 962 109 961 106 l 967 125 q 972 157 971 141 q 974 188 974 172 q 972 226 974 208 q 967 265 970 245 l 966 271 q 964 282 964 275 q 964 296 964 288 q 964 318 964 306 q 963 340 964 330 q 960 359 962 351 q 955 372 958 368 q 956 377 956 375 q 956 381 956 378 l 956 392 l 941 503 l 945 585 q 944 601 945 591 q 943 621 943 611 q 942 638 943 631 q 941 645 941 645 q 941 663 941 651 q 939 686 941 674 q 932 706 937 697 q 919 715 927 715 q 914 713 916 715 q 911 711 911 712 l 901 664 q 890 650 892 660 q 888 630 888 641 q 888 620 888 625 q 887 610 888 614 q 862 575 876 591 q 838 541 848 559 q 831 529 834 538 q 826 511 829 521 q 821 493 823 501 q 818 480 819 484 q 798 433 809 456 q 772 386 786 409 l 768 376 q 766 365 766 374 q 764 353 765 356 q 758 349 762 352 q 750 341 754 345 q 743 333 746 337 q 737 328 739 330 l 728 279 q 721 262 726 270 q 711 246 716 254 q 701 230 706 238 q 694 214 696 222 q 693 207 694 212 q 691 195 692 201 q 690 182 690 188 q 689 174 689 176 q 687 160 689 172 q 681 136 684 149 q 674 113 677 123 q 670 101 671 102 l 654 82 q 652 69 652 80 q 652 57 652 64 q 648 43 651 50 q 641 33 646 37 q 630 29 637 29 q 617 34 624 29 q 605 46 611 39 q 592 62 598 54 q 582 77 587 70 q 579 82 582 79 q 576 88 576 86 q 559 134 564 110 q 548 184 555 159 q 539 204 547 191 q 524 233 532 218 q 507 262 515 248 q 494 285 498 277 q 463 346 479 315 q 431 407 446 376 l 416 454 q 374 537 396 498 q 331 616 353 575 q 326 623 330 618 q 321 629 323 628 l 307 645 q 304 654 304 649 q 303 663 304 659 q 300 669 302 667 q 290 672 297 672 q 286 671 287 672 q 283 667 285 671 l 275 589 l 275 556 q 275 511 275 533 q 276 466 275 489 q 278 376 278 422 q 280 370 279 374 q 283 360 281 366 q 286 346 284 355 l 281 332 q 278 312 281 321 q 275 286 275 304 l 275 275 l 288 250 q 289 243 289 247 q 289 236 289 240 l 289 214 q 290 179 289 196 q 300 151 292 162 l 353 92 q 360 71 353 78 q 377 60 367 64 q 399 54 387 56 q 421 48 411 52 q 438 38 431 45 q 445 19 445 31 q 445 13 445 17 q 443 6 444 9 q 440 -1 442 2 q 435 -3 438 -3 l 371 -3 l 353 3 l 337 3 q 309 5 322 3 q 282 9 296 7 q 255 13 269 11 q 225 14 241 14 q 212 8 218 14 q 197 0 205 3 q 161 -5 180 -1 q 125 -8 143 -8 q 112 -10 119 -8 q 94 -12 104 -12 q 84 -11 90 -12 q 73 -6 78 -10 q 56 21 56 1 z "},"N":{"ha":1202,"x_min":14,"x_max":1161,"o":"m 149 69 l 159 72 q 168 80 164 75 q 176 93 172 86 q 184 107 180 100 q 194 119 189 114 q 192 130 194 127 q 189 137 189 134 l 210 163 l 229 325 q 239 349 238 336 q 241 373 241 362 l 237 453 q 239 470 237 464 q 243 487 241 476 q 247 502 246 493 q 250 519 248 511 l 250 582 q 252 590 250 585 q 255 596 254 595 l 255 678 l 258 718 q 260 726 258 719 q 261 733 261 732 q 252 776 255 755 q 237 815 250 798 q 235 817 236 815 q 234 819 235 818 l 207 831 l 172 866 q 156 872 165 871 q 137 875 146 874 q 117 878 127 876 q 102 884 108 880 l 79 902 q 71 906 76 905 q 58 907 66 907 l 41 906 q 25 918 32 909 q 14 937 18 926 q 23 957 14 949 q 47 967 33 964 q 74 970 60 970 q 96 971 88 971 q 123 965 110 966 q 150 963 136 963 q 178 962 164 962 q 207 960 192 962 q 213 958 208 960 q 225 955 218 956 q 237 951 231 953 q 245 949 243 949 l 254 949 l 303 964 q 316 961 309 964 q 330 954 323 958 q 343 945 337 949 q 354 937 350 940 l 358 932 q 376 903 365 920 q 400 870 387 886 q 425 838 412 853 q 449 815 438 823 l 481 797 q 488 790 484 795 q 492 784 492 785 l 498 766 q 505 755 502 759 q 511 749 508 751 q 518 744 514 746 q 528 736 522 741 q 550 715 541 724 q 566 697 559 706 q 578 677 572 688 q 589 649 583 667 q 599 641 590 649 q 619 624 608 633 q 638 607 629 615 q 646 600 646 600 l 653 582 q 655 576 653 580 q 660 568 657 572 q 665 561 662 564 q 669 556 667 557 l 684 549 q 714 521 699 536 q 744 489 730 506 q 769 456 758 473 q 785 422 780 439 l 853 358 q 888 309 863 329 q 941 290 912 290 l 941 317 q 942 330 941 323 q 944 344 943 338 q 946 348 944 345 q 949 356 947 351 q 952 365 951 361 q 954 372 954 370 q 951 382 954 379 q 947 389 947 385 l 954 427 q 951 469 954 446 q 947 509 949 492 q 947 515 947 511 q 946 524 947 519 q 945 532 945 528 q 944 538 944 536 l 944 540 q 945 550 944 546 q 947 553 946 552 l 954 566 l 965 628 q 959 643 960 635 q 958 656 958 650 l 962 720 l 958 787 q 959 801 958 795 q 968 810 960 806 l 968 827 q 964 846 968 836 q 954 866 960 856 q 939 883 947 876 q 922 893 930 891 q 916 894 920 893 q 907 896 912 895 q 898 897 903 897 q 892 899 894 898 l 877 909 q 868 911 876 910 q 857 913 860 913 q 833 923 844 918 q 815 935 823 928 q 800 949 807 941 q 785 968 793 957 q 778 973 782 972 q 771 981 774 973 q 780 987 772 985 q 795 991 787 989 q 811 993 804 993 q 821 994 819 994 q 824 993 824 994 q 834 991 827 993 q 844 989 841 990 q 924 980 887 985 q 1002 975 961 975 l 1105 985 q 1124 985 1114 985 q 1142 981 1134 984 q 1156 971 1150 978 q 1161 954 1161 965 q 1148 926 1161 935 q 1118 912 1136 917 q 1082 904 1101 907 q 1052 893 1064 901 l 1044 871 l 1012 840 q 1009 834 1010 839 q 1008 827 1008 830 q 1011 819 1009 824 q 1016 808 1013 813 q 1021 797 1019 802 q 1026 787 1024 791 l 1026 784 q 1025 770 1026 779 q 1021 750 1023 760 q 1018 732 1019 740 q 1017 722 1017 724 q 1015 713 1015 720 q 1015 707 1015 710 q 1017 702 1015 703 l 1017 661 q 1014 632 1017 646 q 1005 609 1012 618 l 1005 526 q 1005 506 1005 517 q 1003 485 1004 495 q 999 464 1002 474 q 991 447 996 454 l 991 428 q 988 375 991 401 q 983 321 985 349 q 977 295 981 307 q 973 269 973 283 q 973 237 973 254 q 974 202 973 220 q 977 168 975 184 q 983 137 979 151 q 989 113 987 123 q 994 92 992 102 q 997 69 996 81 q 998 42 998 58 l 998 8 q 979 -3 991 -3 q 952 6 967 -3 q 923 29 938 15 q 892 61 907 43 q 862 97 877 79 q 833 130 847 115 q 809 156 820 146 q 805 168 808 159 q 800 180 803 178 q 777 208 789 192 q 753 235 764 224 q 727 257 739 245 q 705 281 715 269 q 685 307 695 294 q 665 333 675 319 q 655 342 661 338 q 644 349 650 346 q 634 356 638 352 q 627 365 629 359 q 580 424 604 397 q 525 469 556 450 q 516 476 519 472 q 510 485 513 481 q 503 494 507 490 q 492 502 499 498 q 487 511 491 504 q 477 527 482 518 q 467 543 471 535 q 460 553 462 551 l 452 559 q 444 584 449 574 q 432 602 439 593 q 415 618 425 610 q 395 640 406 627 l 389 649 q 378 666 385 659 q 363 679 372 673 q 347 691 355 685 q 332 704 338 696 q 326 714 328 709 q 321 724 323 720 q 315 732 319 729 q 302 736 311 735 q 289 731 298 736 q 281 720 281 725 l 284 701 q 281 682 284 693 q 277 661 277 671 l 284 640 l 277 621 q 280 597 277 611 q 289 575 283 583 q 294 553 292 564 q 295 528 295 541 q 294 499 295 513 q 289 474 292 486 q 294 463 294 468 q 292 442 294 452 q 287 424 290 433 q 283 408 285 416 q 281 391 281 399 l 281 368 q 281 349 281 359 q 282 329 281 339 q 285 311 283 319 q 289 299 287 303 q 283 284 286 290 q 280 273 281 278 q 278 262 279 267 q 277 249 277 256 q 281 207 277 229 q 294 166 286 186 q 315 128 302 146 q 347 98 328 111 q 358 93 352 94 q 371 90 365 92 q 384 86 378 89 q 395 77 390 83 q 418 76 406 77 q 441 73 430 75 q 462 67 452 71 q 477 58 471 64 q 486 36 482 46 q 490 8 490 26 q 466 -15 478 -7 q 435 -24 454 -24 l 422 -24 l 395 -9 q 345 -4 374 -6 q 288 -2 315 -2 l 242 -2 q 227 -3 235 -2 q 210 -7 220 -3 l 102 -7 q 94 1 100 0 q 82 3 88 3 q 72 5 76 4 q 67 13 67 7 q 74 38 67 28 q 93 54 81 48 q 117 63 104 60 q 144 69 131 66 l 149 69 z "},"O":{"ha":1151,"x_min":60,"x_max":1098,"o":"m 68 340 q 73 358 68 349 q 77 376 77 366 l 60 452 q 62 496 60 471 q 68 538 64 520 q 77 575 73 555 q 82 613 80 594 q 85 650 84 633 q 85 680 85 667 q 100 696 93 689 q 114 709 108 703 q 124 724 120 715 q 130 745 128 732 l 168 784 l 185 792 q 195 802 189 794 q 206 819 200 809 q 217 838 212 829 q 229 852 223 847 q 305 903 267 880 q 387 949 342 927 q 394 951 391 950 q 400 953 397 952 q 406 954 404 954 q 423 959 416 955 q 436 966 430 962 q 449 973 442 970 q 467 976 456 976 l 500 970 l 510 976 l 535 983 q 594 988 566 987 q 653 989 623 989 q 685 985 663 989 q 731 975 707 981 q 775 963 755 969 q 802 954 795 957 q 838 921 822 940 q 871 888 854 902 q 893 875 882 880 q 913 864 903 869 q 934 853 924 859 q 954 839 944 848 q 962 833 957 838 q 971 824 966 829 q 980 815 976 819 q 985 808 983 810 l 990 787 q 997 772 991 779 q 1010 758 1003 765 q 1024 744 1017 751 q 1032 730 1030 737 q 1044 709 1038 722 q 1058 682 1051 696 q 1069 654 1065 668 q 1076 630 1074 640 l 1076 590 q 1081 572 1078 578 q 1088 557 1083 565 q 1093 543 1090 550 q 1095 524 1095 536 q 1094 519 1095 523 q 1093 512 1093 516 q 1092 504 1093 508 q 1091 498 1091 500 l 1098 481 l 1095 452 q 1096 444 1096 448 q 1096 433 1096 439 q 1093 394 1096 411 q 1088 373 1090 378 q 1071 333 1080 351 q 1051 297 1061 315 q 1031 260 1041 279 q 1013 218 1021 241 q 1004 212 1008 214 q 996 209 1000 210 q 988 205 992 208 q 981 197 984 202 q 976 189 979 194 q 971 177 974 183 q 964 164 968 170 q 957 154 961 158 l 943 146 q 933 141 938 146 q 928 132 928 136 q 914 115 923 125 q 895 93 905 104 q 876 73 885 82 q 860 58 866 63 q 852 54 855 56 q 845 51 848 52 q 841 50 842 50 l 766 24 q 759 15 761 18 q 755 11 757 12 q 750 8 753 9 q 741 6 747 7 l 696 2 l 648 -19 q 636 -21 642 -20 q 625 -22 631 -22 q 614 -22 619 -22 q 596 -21 606 -22 q 574 -17 585 -19 q 551 -13 562 -15 q 531 -8 540 -10 q 503 -4 517 -5 q 473 -3 488 -3 q 423 -2 447 -3 q 376 9 399 0 l 366 24 q 349 27 359 26 q 328 30 338 28 q 308 35 317 32 q 294 45 299 39 q 278 66 284 58 q 266 81 272 75 q 251 93 260 87 q 225 106 241 99 l 204 111 q 189 124 197 114 q 173 148 181 134 q 156 177 165 161 q 141 207 148 193 q 129 233 134 222 q 121 251 123 245 q 105 274 115 267 q 88 288 96 281 q 74 305 80 294 q 68 340 68 316 m 211 492 q 216 467 211 478 q 228 444 221 455 q 240 422 235 433 q 248 399 246 412 q 249 391 249 397 l 248 358 q 249 345 248 352 q 256 330 250 337 q 264 319 260 322 q 274 313 269 316 q 282 306 278 310 q 288 293 286 302 l 288 286 q 288 277 288 281 q 288 265 288 273 q 291 246 288 254 q 301 237 294 239 q 313 229 309 235 q 334 185 323 202 q 361 153 344 168 q 410 116 385 134 q 461 84 435 98 q 517 62 488 71 q 578 54 546 54 q 593 56 587 54 q 605 59 600 57 q 617 63 611 61 q 632 67 623 65 q 675 74 651 70 q 719 77 699 77 q 751 98 733 88 q 786 118 768 107 q 818 141 803 128 q 841 172 832 154 l 876 243 q 890 260 886 250 q 897 283 895 271 q 903 306 900 294 q 913 326 906 317 l 928 420 q 926 440 928 431 q 924 463 924 450 l 932 486 q 927 512 932 496 q 915 543 922 527 q 901 574 908 559 q 888 600 893 589 l 881 611 l 884 630 q 881 648 884 640 q 873 662 878 656 q 865 675 869 669 q 860 690 861 682 l 854 723 q 829 767 848 742 q 786 817 810 793 q 738 860 762 842 q 696 884 713 879 q 669 888 686 887 q 640 888 651 888 l 623 910 q 606 916 618 912 q 581 923 594 920 q 555 929 568 927 q 535 932 542 932 q 500 929 522 932 q 456 921 479 926 q 415 907 434 916 q 387 888 396 899 l 384 878 q 373 871 378 873 q 362 866 367 869 q 353 858 357 863 q 347 845 349 854 q 326 838 332 841 q 318 830 320 834 q 313 821 315 826 q 300 808 310 816 q 258 763 274 791 q 233 703 241 735 q 221 636 224 670 q 218 572 218 602 l 222 524 q 216 510 222 518 q 211 492 211 501 z "},"P":{"ha":803,"x_min":48,"x_max":772,"o":"m 48 42 q 51 51 48 46 q 57 59 54 55 q 65 66 61 63 q 71 72 68 70 l 88 72 q 118 73 103 72 q 145 77 132 74 q 171 89 159 81 q 193 111 182 97 l 214 137 q 218 143 217 140 q 218 154 218 146 l 214 243 q 221 284 214 264 q 228 323 228 304 q 221 366 228 344 q 214 412 214 389 q 215 421 214 417 q 219 428 217 425 q 222 436 220 432 q 224 446 224 440 l 217 494 l 224 558 l 224 585 l 214 603 q 210 635 212 620 q 208 663 209 649 q 205 685 206 676 l 215 717 q 211 748 215 726 q 200 793 207 770 q 185 835 193 816 q 170 858 178 854 q 138 864 159 861 q 98 874 118 867 q 63 891 78 880 q 48 921 48 902 q 52 927 48 927 q 71 929 62 927 q 86 934 79 931 q 100 939 93 937 q 116 941 107 941 l 170 934 l 279 945 l 302 937 l 337 945 q 376 948 357 947 q 414 949 395 949 q 451 948 433 949 q 487 945 469 947 q 516 936 501 937 q 545 935 530 935 q 577 934 562 935 q 608 929 593 932 q 640 918 620 927 q 680 896 659 909 q 718 869 701 884 q 743 840 735 854 q 754 806 749 825 q 763 769 759 788 q 769 732 767 751 q 772 697 772 713 q 771 675 772 689 q 769 648 771 662 q 765 621 768 633 q 758 603 762 609 l 738 577 l 733 551 q 718 529 730 543 q 691 501 706 515 q 663 474 677 486 q 641 458 649 462 q 626 451 635 455 q 608 441 617 446 q 590 433 598 437 q 576 428 581 429 l 528 425 l 498 415 q 479 417 490 415 q 457 425 467 420 q 438 435 446 429 q 431 448 431 441 q 445 465 431 459 l 524 481 q 529 487 524 484 q 536 490 533 489 q 581 523 560 503 q 616 567 601 543 q 639 619 631 591 q 648 675 648 646 q 644 685 646 680 q 641 692 642 689 q 640 694 641 693 q 640 698 640 695 q 633 742 637 717 q 623 786 630 768 q 609 805 621 793 q 582 830 597 817 q 550 857 566 844 q 524 880 534 870 l 463 894 l 410 894 q 392 888 404 890 q 371 881 381 885 q 352 870 360 877 q 344 850 344 863 l 344 772 q 349 762 349 766 q 350 751 350 759 l 344 725 q 347 716 344 724 q 350 706 350 709 l 350 694 l 338 659 l 353 581 q 353 571 353 574 q 350 559 353 567 l 350 455 q 353 444 353 449 q 353 433 353 439 l 344 393 q 351 343 344 368 q 359 293 357 319 q 359 254 359 274 q 360 214 359 234 q 363 175 361 194 q 371 137 365 155 q 386 122 372 132 q 419 101 401 112 q 454 83 437 91 q 475 75 471 75 l 496 75 q 507 75 504 75 q 515 72 511 75 q 518 68 515 71 q 526 62 522 66 q 534 55 530 58 q 542 50 538 52 q 544 44 543 46 q 545 39 545 42 l 545 37 q 527 16 539 23 q 499 5 514 8 q 469 1 484 1 q 440 0 453 0 l 389 9 q 374 6 381 9 q 359 3 367 3 l 302 19 l 294 19 q 288 18 289 19 q 229 7 258 14 q 167 0 200 0 q 133 1 153 0 q 94 5 113 1 q 62 18 75 9 q 48 42 48 26 z "},"Q":{"ha":1138,"x_min":52,"x_max":2100,"o":"m 52 511 q 61 547 52 530 q 72 582 69 564 q 73 590 72 583 q 74 605 73 597 q 76 619 75 612 q 78 628 77 626 q 83 638 79 630 q 92 654 87 646 q 101 670 96 663 q 106 680 105 677 q 107 683 106 680 q 109 689 108 686 q 111 695 110 692 q 111 699 111 699 q 167 782 132 745 q 241 850 201 819 q 248 853 243 850 q 258 859 253 856 q 269 865 264 862 q 274 869 273 868 q 286 876 279 871 q 295 882 294 881 q 298 886 296 883 q 304 892 301 889 q 311 899 307 896 q 315 902 314 902 q 320 904 316 903 q 331 906 325 905 q 341 907 336 907 q 348 908 346 908 q 352 911 349 909 q 360 915 355 913 q 368 919 364 918 q 374 921 372 921 l 375 921 l 380 921 q 395 928 387 923 q 410 937 402 932 q 426 945 418 941 q 441 948 433 948 l 446 948 q 451 944 446 947 q 458 941 456 941 q 468 946 461 942 q 478 954 475 951 q 522 959 500 957 q 565 961 543 961 q 609 959 587 961 q 654 954 631 957 q 662 952 655 954 q 679 949 669 951 q 698 945 688 947 q 713 941 707 943 q 719 938 714 941 q 726 935 724 935 q 730 930 726 934 q 738 921 734 926 q 747 912 743 916 q 753 908 751 909 q 762 906 755 907 q 776 904 768 905 q 792 902 784 903 q 806 902 800 902 l 811 902 q 814 897 812 900 q 820 891 817 894 q 826 885 823 888 q 830 882 829 883 q 834 881 831 882 q 840 879 837 880 q 847 877 844 878 q 850 876 850 876 q 857 869 851 876 q 863 863 862 863 q 877 855 869 858 q 892 849 884 852 q 907 844 900 846 q 922 836 915 841 q 928 831 923 836 q 936 823 932 825 q 988 760 964 791 q 1033 693 1012 729 q 1047 662 1040 682 q 1062 622 1055 643 q 1073 582 1069 602 q 1079 549 1078 562 l 1079 498 q 1082 487 1079 494 q 1086 477 1084 479 l 1086 474 q 1083 443 1086 457 q 1076 415 1080 429 q 1067 389 1072 402 q 1059 360 1063 375 q 1055 339 1056 348 q 1054 322 1055 330 q 1050 306 1053 314 q 1040 286 1047 297 q 1037 283 1040 286 q 1030 277 1034 280 q 1024 271 1027 274 q 1020 267 1021 268 q 1016 262 1019 267 q 1010 251 1013 257 q 1004 241 1007 245 q 1000 235 1001 236 q 979 207 991 220 q 955 182 968 194 q 929 159 942 170 q 903 136 916 148 q 887 124 898 133 q 865 106 877 115 q 844 88 854 96 q 830 77 833 80 q 813 69 825 73 q 789 60 801 65 q 767 51 777 56 q 758 39 758 45 q 761 28 758 31 q 772 19 764 25 q 779 14 774 18 q 787 8 783 11 q 794 2 791 5 q 798 -1 798 -1 q 804 -2 799 -1 q 814 -4 808 -3 q 824 -6 819 -5 q 830 -7 829 -7 q 840 -12 832 -8 q 857 -20 848 -16 q 873 -29 865 -25 q 883 -33 881 -33 q 922 -45 903 -42 q 962 -53 941 -47 q 968 -56 963 -53 q 975 -60 973 -59 q 988 -65 979 -62 q 1007 -71 998 -68 q 1023 -76 1016 -74 q 1033 -79 1031 -79 q 1046 -81 1036 -79 q 1069 -85 1057 -83 q 1092 -89 1081 -87 q 1105 -92 1102 -91 q 1120 -97 1107 -92 q 1148 -106 1133 -101 q 1179 -116 1164 -111 q 1203 -124 1195 -121 q 1227 -132 1215 -129 q 1251 -140 1239 -136 q 1273 -150 1262 -144 q 1295 -164 1284 -155 q 1319 -169 1301 -165 q 1357 -176 1337 -172 q 1395 -184 1377 -180 q 1418 -190 1412 -188 q 1429 -193 1421 -190 q 1438 -197 1436 -196 q 1485 -211 1461 -206 q 1533 -218 1508 -215 q 1581 -222 1557 -220 q 1629 -229 1605 -224 q 1638 -233 1630 -230 q 1647 -236 1645 -236 l 1657 -236 l 1668 -236 q 1677 -233 1669 -236 q 1688 -229 1685 -230 l 1752 -229 l 1759 -223 l 1857 -223 q 1863 -220 1858 -223 q 1871 -216 1868 -218 q 1894 -204 1883 -209 q 1918 -197 1906 -200 q 1942 -190 1929 -193 q 1968 -183 1954 -187 q 1992 -173 1981 -180 q 2014 -157 2003 -165 q 2037 -143 2026 -149 q 2063 -137 2049 -137 q 2081 -141 2074 -137 q 2092 -151 2088 -144 q 2098 -165 2096 -157 q 2100 -182 2100 -173 q 2095 -206 2100 -195 q 2083 -227 2090 -217 q 2066 -245 2075 -237 q 2047 -262 2056 -254 q 1989 -299 2018 -285 q 1929 -328 1961 -313 q 1911 -333 1921 -332 q 1892 -337 1902 -335 q 1874 -341 1883 -338 q 1857 -347 1865 -343 q 1848 -352 1855 -349 q 1834 -359 1842 -355 q 1820 -367 1827 -363 q 1811 -373 1813 -371 q 1711 -380 1760 -374 q 1611 -386 1662 -386 l 1555 -386 q 1525 -378 1539 -379 q 1491 -373 1510 -378 q 1485 -370 1489 -373 q 1479 -366 1480 -366 l 1449 -366 l 1438 -366 q 1420 -362 1434 -366 q 1388 -355 1405 -359 q 1354 -347 1371 -351 q 1328 -340 1337 -342 q 1321 -337 1326 -340 q 1314 -333 1315 -334 l 1308 -333 q 1295 -334 1302 -333 q 1280 -334 1289 -334 q 1264 -333 1273 -334 q 1249 -328 1256 -332 q 1245 -324 1248 -327 q 1239 -317 1242 -321 q 1233 -311 1236 -314 q 1229 -307 1230 -308 l 1224 -307 l 1208 -307 l 1203 -307 q 1195 -306 1202 -307 q 1181 -301 1189 -304 q 1166 -297 1173 -299 q 1158 -294 1160 -295 q 1151 -293 1156 -294 q 1138 -291 1145 -292 q 1125 -289 1131 -290 q 1118 -288 1120 -288 q 1111 -282 1116 -288 q 1105 -275 1106 -276 q 1095 -272 1103 -274 q 1079 -268 1088 -271 q 1063 -264 1070 -266 q 1053 -262 1055 -262 q 1046 -258 1052 -261 q 1034 -252 1040 -256 q 1021 -246 1027 -249 q 1013 -243 1015 -243 q 1009 -241 1013 -242 q 1001 -239 1005 -240 q 992 -237 996 -238 q 987 -236 988 -236 q 977 -232 984 -235 q 967 -229 969 -230 q 958 -224 966 -229 q 942 -216 951 -220 q 925 -208 933 -212 q 916 -203 918 -203 l 907 -203 l 882 -203 l 876 -203 q 869 -199 874 -203 q 859 -191 865 -195 q 849 -182 854 -186 q 844 -177 845 -178 q 821 -169 833 -170 q 798 -164 809 -169 q 763 -143 779 -155 q 726 -124 747 -132 q 719 -123 724 -124 q 707 -121 713 -122 q 695 -119 701 -120 q 687 -119 689 -119 q 676 -115 684 -117 q 667 -111 668 -113 q 665 -108 667 -111 q 661 -102 663 -105 q 657 -95 659 -98 q 654 -92 655 -92 l 640 -92 l 634 -92 q 628 -89 633 -92 q 621 -85 623 -85 q 613 -82 618 -84 q 601 -78 607 -80 q 589 -74 594 -76 q 583 -73 584 -73 l 570 -73 q 564 -70 568 -73 q 556 -63 560 -66 q 548 -57 551 -60 q 544 -53 545 -54 q 533 -49 541 -52 q 524 -47 525 -47 q 516 -43 522 -46 q 505 -37 511 -40 q 493 -31 498 -34 q 484 -27 487 -28 q 480 -24 483 -26 q 474 -20 477 -22 q 469 -16 471 -18 q 465 -14 466 -14 q 460 -13 464 -14 q 452 -11 456 -12 q 444 -8 448 -9 q 438 -7 440 -7 q 429 -6 436 -7 q 415 -4 422 -5 q 400 -2 407 -3 q 393 -1 394 -1 q 373 8 387 1 q 345 22 359 14 q 318 36 330 29 q 302 45 306 42 q 292 55 300 47 q 275 72 283 62 q 259 89 267 81 q 250 98 252 96 q 245 100 248 98 q 239 104 243 102 q 233 108 236 106 q 229 111 230 110 q 211 125 222 115 q 188 144 199 134 q 167 161 176 153 q 157 169 158 168 q 154 174 156 170 q 148 183 151 178 q 142 193 145 188 q 137 202 139 199 q 130 217 135 207 q 120 237 125 227 q 111 256 115 248 q 106 267 107 264 q 98 287 103 274 q 87 314 92 300 q 77 338 81 328 q 72 352 73 349 l 72 365 l 72 397 q 68 405 72 399 q 65 410 65 410 q 63 427 64 415 q 59 453 61 439 q 55 479 57 467 q 52 498 53 492 l 52 511 m 195 487 l 195 482 q 200 473 197 481 q 202 465 202 466 q 217 391 212 428 q 237 319 223 354 q 281 224 256 269 q 341 136 307 179 q 344 133 342 135 q 348 130 347 130 q 357 126 349 129 q 367 123 365 124 q 376 115 369 122 q 393 101 384 109 q 410 86 401 93 q 420 77 418 79 q 425 76 420 77 q 435 74 429 75 q 446 73 441 73 q 452 72 450 72 q 458 68 453 71 q 471 62 464 65 q 483 55 477 58 q 491 52 489 52 q 502 50 493 51 q 520 48 511 49 q 539 46 530 47 q 550 45 548 45 q 554 44 551 45 q 562 42 558 43 q 570 40 566 41 q 576 39 574 39 q 578 38 576 39 q 585 38 581 38 q 591 38 588 38 q 597 37 595 37 q 608 38 601 37 q 615 39 614 39 q 618 40 616 39 q 624 44 621 42 q 630 49 627 47 q 634 52 633 51 q 657 56 644 55 q 680 64 671 57 q 686 71 682 66 q 696 81 690 76 q 706 92 701 87 q 713 98 711 96 q 720 99 714 98 q 732 101 726 100 q 745 103 739 102 q 753 104 751 104 q 757 109 753 105 q 765 117 761 113 q 773 126 770 122 q 779 130 777 130 q 786 137 781 132 q 797 145 791 141 q 806 152 802 149 q 811 156 810 155 q 815 158 812 157 q 824 160 819 159 q 832 162 828 161 q 837 163 836 163 q 842 166 839 163 q 848 173 845 170 q 853 178 851 176 q 857 182 856 181 q 859 187 858 183 q 860 196 859 191 q 862 204 861 200 q 863 209 863 208 q 866 219 864 212 q 870 228 869 227 q 873 232 871 229 q 877 238 875 235 q 881 244 880 241 q 883 248 883 247 q 885 258 884 250 q 887 275 886 266 q 889 292 888 283 q 890 302 890 300 q 892 307 890 302 q 896 317 894 311 q 901 327 899 322 q 903 332 903 331 q 904 339 903 334 q 906 349 905 344 q 908 359 907 355 q 909 365 909 363 l 909 389 l 909 445 q 917 484 910 463 q 923 524 923 504 q 922 524 922 524 l 922 526 q 922 528 922 526 q 916 539 922 531 q 909 549 910 547 q 906 559 908 551 q 902 575 905 566 q 898 592 900 584 q 896 602 897 600 q 893 606 895 602 q 889 614 892 610 q 885 623 887 618 q 883 628 884 627 q 882 636 882 629 q 880 650 881 642 q 878 665 879 658 q 876 673 876 671 q 871 680 876 675 q 860 692 866 686 q 850 704 854 699 q 844 712 845 710 q 832 738 837 724 q 824 767 828 752 q 814 794 820 781 q 798 817 809 807 q 793 819 798 817 q 785 821 789 820 q 777 823 781 822 q 772 823 772 823 q 768 827 771 824 q 762 833 766 829 q 756 839 759 836 q 753 844 753 842 q 748 846 751 844 q 739 850 744 848 q 730 854 734 852 q 726 857 726 856 q 721 860 724 857 q 712 867 717 863 q 704 873 708 870 q 700 876 701 876 q 651 885 677 883 q 602 895 625 887 q 581 901 589 900 q 563 902 572 902 l 550 902 l 524 902 q 513 899 521 902 q 504 895 506 895 l 479 895 l 471 895 q 459 890 469 895 q 438 879 449 885 q 418 868 427 873 q 406 863 408 863 q 366 841 385 852 q 331 816 347 829 q 299 787 315 802 q 269 752 284 771 q 260 729 260 741 q 256 706 259 717 q 253 699 256 705 q 246 686 250 692 q 240 674 243 680 q 237 667 237 668 q 233 653 235 664 q 229 631 231 643 q 225 608 227 618 q 224 595 224 597 q 210 542 216 567 q 195 490 203 516 l 195 487 z "},"R":{"ha":1050,"x_min":57,"x_max":1088,"o":"m 795 24 q 722 101 753 58 q 669 191 691 144 l 660 216 q 650 230 656 222 q 638 244 644 237 q 625 257 631 251 q 616 270 619 264 l 602 294 l 551 350 q 532 388 549 370 q 491 422 515 407 q 443 446 468 437 q 402 454 418 454 q 385 452 395 454 q 365 446 375 450 q 348 435 355 441 q 341 419 341 428 l 346 393 q 343 380 346 384 q 341 370 341 376 q 342 352 341 359 q 346 334 342 346 l 340 227 l 341 212 q 342 190 342 201 q 342 168 342 179 q 342 146 342 156 q 341 125 342 136 q 347 111 341 119 q 359 100 352 103 l 391 79 q 416 69 401 72 q 447 65 431 66 q 480 63 464 64 q 510 58 497 62 q 532 47 524 54 q 541 27 541 40 q 533 8 541 17 q 514 -6 525 0 q 492 -16 504 -12 q 473 -19 481 -19 q 453 -17 462 -19 q 434 -11 444 -14 q 415 -5 425 -8 q 395 0 406 -2 q 346 8 370 5 q 292 21 322 12 q 276 19 284 21 q 256 16 267 16 l 208 21 q 192 14 201 21 q 174 7 184 7 l 64 11 q 57 24 57 18 q 73 50 57 41 q 110 66 89 60 q 150 76 130 72 q 176 85 169 80 q 183 110 183 96 q 186 134 183 124 q 193 139 189 135 q 198 143 197 143 q 206 178 204 158 q 208 218 208 199 l 208 248 q 204 272 208 262 q 201 294 201 283 l 216 416 l 205 482 l 201 498 l 201 501 q 202 508 201 503 q 202 519 202 513 q 203 530 203 525 q 205 537 204 535 q 214 543 213 541 q 216 549 216 545 l 208 591 l 216 628 q 217 635 216 629 q 219 645 219 642 l 216 663 l 216 683 l 219 726 l 208 829 l 208 844 q 178 875 193 862 q 148 897 164 888 q 113 913 132 906 q 70 926 94 920 q 60 937 60 928 q 73 954 60 947 q 102 964 85 960 q 134 970 118 968 q 155 972 149 972 l 195 969 l 238 972 l 298 960 q 334 964 316 960 q 372 969 351 969 l 429 963 l 486 969 q 552 963 520 969 q 616 947 584 956 q 651 938 632 941 q 684 926 669 935 l 699 915 q 748 884 726 899 q 785 851 770 869 q 809 809 800 833 q 821 749 819 785 q 825 717 822 732 q 829 685 829 703 q 827 673 829 677 q 823 666 825 669 q 817 659 820 663 q 811 650 814 656 q 806 634 808 643 q 804 615 805 625 q 800 598 802 606 q 795 585 798 589 q 767 558 783 568 q 737 534 751 548 q 718 517 731 524 q 692 505 705 511 q 670 490 680 498 q 660 466 660 481 q 663 455 660 458 q 669 449 665 452 q 676 444 672 446 q 684 435 680 441 q 690 425 684 433 q 702 408 695 417 q 713 391 708 399 q 720 382 719 383 q 765 316 745 350 q 811 252 785 282 q 842 217 827 235 q 877 188 857 199 q 886 178 882 185 q 894 161 890 170 q 902 143 898 152 q 910 129 905 134 q 958 96 936 111 q 1004 64 980 82 q 1029 52 1015 57 q 1057 39 1044 46 q 1079 23 1070 33 q 1088 -2 1088 13 q 1077 -20 1088 -16 q 1050 -24 1065 -24 l 951 -24 q 909 -15 930 -15 q 863 -12 889 -14 q 849 -7 858 -11 q 832 2 841 -3 q 814 13 823 7 q 798 22 805 18 l 795 24 m 332 549 q 337 522 332 534 q 353 503 343 511 q 377 491 363 495 q 404 487 390 487 l 429 487 q 449 506 431 498 q 489 519 467 513 q 532 529 511 525 q 563 537 553 533 q 590 556 576 543 q 614 581 604 568 l 637 623 q 653 660 647 641 q 660 701 660 679 q 657 711 660 706 q 652 721 655 716 q 647 732 650 726 q 645 745 645 738 q 650 768 649 764 q 650 774 650 772 l 650 781 q 644 789 650 784 q 637 798 637 795 q 600 847 621 827 q 553 879 578 867 q 498 896 528 891 q 435 901 469 901 q 423 900 432 901 q 404 897 414 899 q 386 893 394 895 q 375 890 377 892 q 371 885 374 889 q 367 878 369 882 q 362 870 364 873 q 359 865 360 866 l 359 846 q 353 774 359 809 q 336 703 346 739 l 327 689 l 341 671 q 343 657 342 668 q 346 641 345 647 l 346 631 q 343 629 345 631 q 341 623 341 626 q 343 616 341 622 q 346 610 345 611 l 332 549 z "},"S":{"ha":712,"x_min":58,"x_max":646,"o":"m 237 7 q 199 16 219 13 q 160 22 180 19 q 121 30 140 25 q 89 44 103 35 q 66 71 75 54 q 58 115 58 88 l 58 132 l 71 262 q 75 270 73 267 q 84 273 77 273 q 106 260 99 273 q 151 189 132 224 q 193 116 170 155 q 207 103 195 109 q 235 90 219 96 q 271 78 252 83 q 307 68 290 73 q 338 62 324 64 q 359 60 352 60 l 372 60 q 384 61 382 60 q 391 66 386 62 q 402 73 396 69 q 413 81 408 77 q 420 85 418 84 q 429 91 422 88 q 439 94 436 94 l 467 101 q 479 116 469 101 q 498 148 488 130 q 524 195 511 168 q 525 202 524 196 q 526 215 526 208 q 527 229 526 222 q 528 238 528 235 l 528 249 q 527 262 528 256 q 526 274 527 268 q 523 286 525 279 q 519 302 522 293 l 517 307 q 504 320 512 314 q 488 334 495 326 q 477 352 480 346 q 470 362 473 358 q 460 370 467 366 q 441 379 454 373 q 433 381 440 379 q 423 386 427 383 q 405 394 414 391 q 387 397 396 396 q 368 399 378 398 q 349 404 359 400 q 333 419 339 411 q 315 432 327 427 q 308 433 313 432 q 297 435 303 434 q 287 438 292 437 q 280 439 281 439 l 245 475 q 228 485 235 482 q 213 491 220 488 q 200 497 206 494 q 185 508 193 500 q 176 519 179 513 q 171 530 173 524 q 167 541 169 535 q 162 551 165 546 q 156 564 161 557 q 149 576 152 572 q 124 607 134 594 q 110 633 115 621 q 103 662 104 646 q 101 701 101 677 q 108 760 101 729 q 127 820 115 791 q 159 875 140 849 q 201 919 178 901 q 217 929 208 926 q 234 933 225 932 q 253 935 243 935 q 271 937 262 935 q 288 943 280 939 q 303 952 296 947 q 320 960 311 956 q 338 963 328 963 q 393 960 367 963 q 445 950 419 956 q 477 939 463 946 q 510 932 492 932 q 533 940 523 932 q 554 957 544 947 q 575 973 564 966 q 601 981 587 981 q 618 968 614 981 q 622 945 622 956 l 609 901 l 614 821 l 614 804 q 613 773 614 785 q 608 741 612 760 q 603 735 606 738 q 598 732 600 732 q 593 731 598 731 q 583 740 590 731 q 566 762 576 749 q 545 792 556 776 q 524 824 534 808 q 503 851 513 839 q 486 868 493 863 q 456 883 472 877 q 422 891 439 888 q 387 896 404 895 q 354 897 369 897 q 315 893 332 897 q 287 880 299 889 q 265 858 275 871 q 248 825 256 844 q 236 801 241 810 q 229 785 232 792 q 224 769 226 777 q 223 746 223 760 q 235 684 223 710 q 268 638 248 657 q 315 606 288 618 q 373 585 342 593 l 380 580 q 409 563 396 570 q 433 550 421 555 q 457 538 444 544 q 486 526 469 533 l 564 475 q 567 473 566 475 q 571 470 569 471 q 576 466 574 468 l 588 432 q 593 421 591 427 q 598 413 595 416 q 605 406 600 412 q 615 394 610 401 q 624 382 620 388 q 627 374 627 376 q 632 362 629 370 q 638 347 635 355 q 644 331 642 338 q 646 320 646 323 l 646 220 q 643 212 646 220 q 637 198 640 203 q 633 195 635 197 q 632 191 633 193 q 629 182 631 189 q 624 168 627 176 q 618 153 621 159 q 614 144 616 146 q 607 132 612 138 q 596 119 602 125 q 584 108 590 113 q 576 101 578 103 q 569 83 570 93 q 561 69 568 74 q 517 48 534 60 q 485 25 500 36 q 453 7 470 15 q 410 0 436 0 l 402 0 q 378 2 384 1 q 370 2 372 2 l 237 7 z "},"T":{"ha":1011,"x_min":9,"x_max":998,"o":"m 239 29 q 250 58 239 48 q 279 68 262 68 l 324 62 q 358 69 341 62 q 391 87 376 76 q 417 113 406 98 q 432 144 428 128 l 432 180 q 441 237 435 210 q 448 292 448 264 l 438 321 l 438 477 q 436 493 437 486 q 436 511 436 501 l 436 635 q 439 653 439 642 q 440 675 440 663 q 439 697 440 688 q 438 715 438 707 l 443 722 l 443 800 q 435 821 437 812 q 430 837 433 830 q 420 846 427 843 q 399 850 414 850 l 362 840 q 327 846 345 840 q 290 859 310 852 q 235 854 257 857 q 194 847 212 852 q 158 835 176 842 q 117 814 140 827 q 100 787 108 803 q 84 755 93 770 q 65 729 76 740 q 39 718 54 718 q 30 718 35 718 q 20 719 24 718 q 12 722 16 720 q 9 728 9 724 q 11 748 9 739 q 15 764 12 756 q 20 779 18 771 q 24 797 22 787 l 24 840 l 35 866 q 38 881 37 871 q 42 901 40 890 q 45 923 43 912 q 50 941 47 934 q 54 962 52 951 q 62 982 57 972 q 74 997 66 991 q 92 1003 81 1003 q 120 993 105 1003 q 150 969 135 983 q 180 944 165 956 q 207 928 195 932 q 228 924 213 926 q 261 919 243 922 q 293 915 278 916 q 314 913 308 913 q 332 915 324 913 q 348 919 340 916 q 364 923 355 921 q 384 924 372 924 l 401 924 q 418 924 416 924 q 429 918 421 922 q 438 913 437 914 l 441 913 q 464 915 453 913 q 485 920 474 918 q 507 925 496 923 q 530 928 517 928 q 556 924 544 928 q 579 920 568 920 l 600 920 q 655 921 628 920 q 710 925 682 923 q 767 929 738 927 q 830 932 797 931 q 846 929 840 932 q 861 927 853 927 q 875 931 869 927 q 886 942 881 936 q 895 953 890 947 q 905 962 899 959 q 922 971 914 966 q 937 981 930 976 q 951 989 944 986 q 967 993 958 993 q 980 984 975 993 q 991 970 986 976 q 991 968 991 969 q 992 968 991 968 q 991 957 991 964 q 991 943 991 951 l 991 876 q 991 862 991 867 q 992 853 991 857 l 998 780 q 997 772 998 778 q 997 761 997 767 q 996 750 996 755 q 996 744 996 745 q 978 736 991 736 q 956 745 966 736 q 938 766 947 754 q 922 790 930 779 q 905 808 914 802 q 879 827 892 819 q 856 848 867 834 l 831 846 l 671 859 l 648 853 l 614 859 l 602 859 l 592 848 q 591 842 592 849 q 590 823 591 834 q 588 802 589 812 q 587 784 587 791 l 592 713 l 592 578 l 583 528 l 592 445 q 591 433 592 437 q 587 421 591 429 q 588 395 587 413 q 588 353 588 376 q 588 315 588 332 q 587 290 587 298 l 583 256 q 583 233 583 248 q 585 201 584 218 q 589 164 587 183 q 597 130 592 146 q 608 103 602 115 q 623 90 614 92 l 711 68 l 727 68 l 745 72 q 759 67 753 72 q 769 56 765 63 q 774 42 772 50 q 776 29 776 35 q 771 11 776 18 q 759 1 766 5 q 742 -3 751 -2 q 724 -3 733 -3 q 711 -1 717 -3 q 697 6 705 1 q 683 12 691 9 q 667 15 675 15 l 633 6 q 600 11 619 6 q 562 19 581 16 q 555 18 561 19 q 543 15 550 17 q 531 13 536 14 q 524 12 525 12 l 463 12 q 435 5 447 11 q 408 0 422 0 q 394 4 403 1 q 384 6 385 6 q 367 4 374 6 q 349 -1 359 1 q 325 -7 336 -4 q 298 -9 313 -9 l 288 -9 q 271 -8 279 -9 q 250 -3 262 -7 q 247 10 250 -2 q 239 29 243 22 z "},"U":{"ha":1176,"x_min":24,"x_max":1181,"o":"m 269 154 q 242 225 255 189 q 216 294 229 262 q 215 298 216 296 q 212 302 214 300 q 209 307 210 304 l 209 373 l 203 386 l 203 435 q 197 444 201 440 q 189 452 193 448 q 182 461 185 456 q 179 474 179 467 q 178 489 178 481 q 178 501 178 496 q 178 514 178 509 q 179 524 178 519 l 179 618 l 176 670 l 179 683 l 176 713 l 176 726 l 179 773 q 177 779 178 777 q 176 789 176 786 q 171 799 174 791 q 164 814 168 806 q 154 832 159 823 q 143 845 149 840 q 129 853 138 849 q 108 863 119 857 q 85 876 97 868 q 63 893 73 883 q 50 904 57 900 q 38 912 43 909 q 28 919 32 916 q 24 928 24 922 q 31 944 24 937 q 46 955 37 951 q 66 961 55 959 q 85 962 77 962 l 108 969 l 143 966 l 156 966 q 198 963 178 966 q 231 956 218 960 l 269 958 q 285 958 276 958 q 304 961 294 959 q 321 965 313 962 q 338 967 330 967 q 362 964 352 967 q 381 961 373 961 q 413 965 398 961 q 448 969 429 969 l 479 967 q 490 962 483 965 q 503 955 496 958 q 514 948 509 951 q 518 940 518 944 l 518 910 q 505 897 518 904 q 475 885 492 890 q 443 874 458 879 q 421 867 427 869 q 386 844 406 857 q 352 813 366 830 l 352 745 l 346 691 q 347 684 346 688 q 348 672 348 680 q 341 651 348 660 l 341 564 l 346 547 q 348 535 346 545 q 351 511 349 525 q 355 484 353 498 q 357 460 357 469 q 353 452 355 456 q 352 439 352 448 q 353 434 352 436 q 362 429 355 431 l 362 389 q 362 374 362 380 q 363 359 362 367 l 374 326 l 413 248 q 429 220 421 234 q 445 193 437 206 q 464 169 454 180 q 487 149 473 157 l 518 142 l 535 124 q 579 109 555 111 q 627 106 603 106 q 650 106 640 106 q 668 107 659 106 q 688 111 677 109 q 713 116 699 113 q 722 118 718 116 q 729 123 726 120 q 736 128 732 125 q 746 132 740 131 q 774 140 764 136 q 792 151 784 144 q 808 165 800 157 q 831 185 817 174 l 849 193 q 853 202 850 193 q 862 224 857 211 q 873 255 867 238 q 884 287 879 271 q 894 313 890 302 q 901 330 899 325 q 908 354 905 338 q 915 388 911 370 q 920 424 918 406 q 926 455 923 441 q 924 484 926 467 q 922 516 922 501 l 918 532 l 932 557 q 929 568 932 560 q 922 578 925 576 l 922 623 l 931 701 l 923 765 q 922 773 923 768 q 922 789 922 779 q 915 800 920 791 q 904 819 909 809 l 889 845 q 882 849 887 846 q 870 856 876 852 q 860 861 865 859 q 852 863 854 863 q 839 870 846 866 q 823 877 831 873 q 807 884 814 881 q 793 888 799 887 q 777 892 787 890 q 754 896 766 893 q 735 903 743 899 q 727 918 727 908 l 727 928 l 749 932 l 774 945 q 799 949 786 948 q 824 950 811 949 q 849 953 837 951 q 871 961 861 955 l 901 961 q 946 959 924 961 q 994 958 967 958 l 1032 958 q 1087 977 1058 971 q 1146 983 1116 983 q 1155 982 1149 983 q 1166 978 1160 981 q 1177 971 1173 975 q 1181 961 1181 966 l 1181 921 l 1175 918 q 1149 909 1163 910 q 1122 906 1135 907 q 1091 900 1106 904 q 1059 893 1076 896 q 1030 857 1039 878 q 1016 812 1021 836 q 1008 765 1012 789 q 997 723 1005 742 l 997 564 l 987 538 l 987 455 q 984 445 985 450 q 984 431 984 439 q 986 418 984 422 q 987 402 987 413 l 979 378 q 970 352 975 364 q 963 325 966 339 l 949 267 q 937 234 943 250 q 921 204 930 219 q 913 192 918 197 q 903 182 908 186 q 893 172 898 177 q 887 159 889 166 q 850 117 878 138 q 822 94 837 106 q 793 71 807 81 q 782 63 787 68 q 772 55 777 59 q 762 47 767 50 q 749 42 756 43 l 727 42 l 696 27 q 677 24 688 24 q 656 24 667 24 l 627 24 l 583 20 l 548 24 l 496 20 q 489 23 495 21 q 476 28 484 25 q 457 36 467 33 q 437 42 446 39 l 416 47 q 386 55 399 52 q 370 60 372 58 q 362 67 366 62 q 356 78 359 73 q 349 87 353 83 q 340 95 345 92 q 300 118 319 104 q 269 154 282 132 z "},"V":{"ha":908,"x_min":-5,"x_max":945,"o":"m 255 473 l 254 477 q 236 523 245 503 q 220 569 227 543 q 214 584 218 577 q 204 596 209 590 q 195 609 199 603 q 190 623 191 616 q 174 690 182 658 q 153 754 165 722 l 137 789 l 127 823 q 109 845 120 836 q 86 863 98 854 q 64 880 75 871 q 49 897 54 888 q 32 898 41 897 q 15 903 23 899 q 0 912 6 906 q -5 927 -5 918 q 1 943 -5 937 q 15 948 7 948 l 55 943 q 62 947 58 943 q 71 950 65 950 q 81 955 77 950 l 127 955 l 205 948 q 247 954 228 948 q 288 962 267 959 q 312 964 302 963 q 329 964 321 964 q 348 966 337 964 q 370 970 358 968 q 382 969 372 970 q 401 966 391 968 q 420 958 412 963 q 428 945 428 953 l 425 908 q 419 900 425 904 q 405 891 413 895 q 390 885 397 887 q 378 882 382 882 l 356 887 q 334 886 342 887 q 311 882 326 885 q 301 874 305 880 q 296 861 296 869 q 302 832 296 846 q 311 804 309 819 l 315 749 q 320 726 317 737 q 329 704 324 715 q 338 682 334 693 q 346 661 343 671 l 346 627 q 352 617 346 624 q 359 608 357 610 q 371 577 366 594 q 380 541 376 559 q 388 505 384 523 q 399 473 393 487 q 417 434 406 454 q 433 395 428 414 l 436 357 q 445 337 440 350 q 454 312 449 324 q 465 290 459 299 q 478 280 471 280 q 497 287 490 280 q 511 300 504 293 l 517 307 q 520 320 520 315 q 519 333 519 328 q 519 340 519 338 q 520 346 519 345 l 543 382 q 550 404 546 391 q 559 429 555 416 q 568 455 564 441 q 576 479 572 468 q 583 500 580 488 q 591 526 587 513 q 600 550 595 538 q 613 569 606 562 q 611 578 611 570 l 611 611 q 611 617 611 614 q 613 623 612 620 q 614 629 613 625 q 617 640 615 634 q 621 651 618 646 q 624 661 623 657 l 632 677 l 632 710 q 641 718 635 713 q 646 726 646 723 q 665 791 658 755 q 673 863 673 828 l 673 876 q 659 893 667 885 q 637 905 652 901 q 611 907 627 907 q 589 908 600 907 q 568 912 577 909 q 552 923 558 916 q 546 943 546 930 q 550 960 546 954 q 560 970 553 966 q 576 975 567 974 q 594 976 585 976 l 714 961 q 774 975 744 961 q 803 984 789 979 q 829 988 817 988 q 862 978 846 980 q 896 975 878 975 l 910 975 q 918 975 914 975 q 926 976 922 975 q 932 972 930 975 q 937 970 935 971 q 939 967 939 968 q 944 956 942 962 q 945 943 945 949 q 939 919 945 928 q 930 905 937 911 q 920 897 923 899 l 881 897 l 864 901 q 856 900 861 901 q 845 898 851 899 q 833 896 839 897 q 825 894 827 895 q 799 865 809 881 q 781 830 788 848 q 769 794 774 812 q 762 757 765 775 q 759 749 762 752 l 739 720 q 732 702 732 713 q 732 692 732 697 q 730 682 732 687 q 725 674 728 677 q 718 668 722 671 q 710 663 713 665 q 705 656 707 660 l 706 631 q 702 598 706 614 q 686 574 699 583 l 671 515 q 645 480 656 501 q 624 439 633 458 q 620 423 621 431 q 618 408 619 415 q 614 392 617 400 q 603 376 611 385 q 600 352 603 363 q 592 329 597 340 q 582 306 588 318 q 570 281 576 294 q 557 248 564 267 q 544 216 551 230 l 533 201 q 526 190 528 195 q 527 180 526 186 q 528 169 528 175 q 527 155 528 160 q 526 148 526 151 q 525 141 526 146 q 522 132 524 137 q 519 124 520 127 q 517 119 517 120 l 511 108 q 507 87 509 102 q 500 57 504 73 q 493 26 496 41 q 486 7 489 12 q 466 -28 479 -17 q 428 -39 452 -39 q 416 -32 421 -39 q 406 -17 410 -26 q 398 1 401 -8 q 394 14 395 9 q 388 35 392 19 q 381 68 385 50 q 373 104 377 87 q 367 129 370 121 q 349 193 359 163 q 333 256 339 223 q 327 267 332 262 q 316 274 321 271 q 305 283 310 278 q 298 296 300 288 l 288 357 q 284 369 287 360 q 279 386 281 377 q 274 402 276 395 q 272 412 272 410 q 261 438 269 426 q 253 465 253 450 l 255 473 z "},"W":{"ha":1324,"x_min":22,"x_max":1370,"o":"m 628 684 l 594 780 l 580 806 q 569 846 572 826 q 559 884 566 866 q 543 895 555 892 q 518 900 531 897 q 494 907 505 902 q 484 926 484 912 q 492 945 484 940 q 512 950 500 950 q 539 949 526 950 q 566 945 552 949 q 586 943 576 944 q 608 942 596 942 l 629 942 q 650 943 647 942 q 674 949 662 948 q 697 950 686 950 l 711 950 q 736 947 729 947 q 747 947 744 947 q 800 959 778 954 q 845 963 821 963 q 853 962 847 963 q 864 960 859 962 q 874 956 869 958 q 878 950 878 954 q 885 938 882 944 q 888 926 888 932 q 885 914 888 920 q 878 902 882 908 q 868 895 873 899 q 859 892 863 892 l 831 900 q 801 896 817 900 q 772 884 785 892 q 749 863 758 876 q 741 833 741 850 l 741 823 q 746 798 744 809 q 749 775 748 786 q 752 753 751 765 q 753 728 753 742 l 755 715 q 759 697 755 708 q 768 675 763 686 q 779 653 773 663 q 787 636 784 642 q 797 601 792 619 q 805 564 801 583 q 814 527 810 545 q 827 492 819 509 q 827 456 827 471 q 830 434 827 441 q 832 429 830 433 q 838 422 835 426 q 843 414 840 418 q 845 410 845 411 q 847 402 845 408 q 852 389 850 396 q 857 376 854 382 q 859 370 859 370 q 862 356 861 365 q 866 337 863 347 q 873 321 869 328 q 885 315 878 315 q 911 322 902 315 q 927 342 921 330 q 937 366 932 353 q 946 387 941 378 l 964 410 q 966 415 965 411 q 967 424 967 419 q 968 434 968 429 q 968 440 968 438 q 976 447 970 443 q 983 453 981 452 q 989 471 987 458 q 995 498 991 484 q 1004 528 999 513 q 1018 553 1009 543 q 1023 561 1021 555 q 1026 567 1026 566 q 1029 578 1027 570 q 1033 595 1031 586 q 1036 612 1035 604 q 1038 622 1038 620 l 1046 631 q 1050 639 1046 631 q 1058 657 1053 646 q 1066 679 1062 667 q 1073 697 1071 690 q 1094 729 1081 714 q 1113 762 1107 744 l 1121 812 q 1130 831 1127 825 q 1133 844 1133 836 q 1132 854 1133 851 q 1131 860 1131 857 q 1119 876 1128 872 q 1108 880 1109 880 l 1075 888 q 1057 888 1065 888 q 1042 889 1049 888 q 1025 890 1034 889 q 1006 892 1017 890 q 998 905 1002 897 q 994 921 994 913 q 1002 937 994 929 q 1019 950 1009 944 q 1040 959 1029 956 q 1055 963 1050 963 q 1111 961 1081 963 q 1166 947 1141 958 l 1225 960 q 1240 953 1233 960 q 1253 947 1246 947 q 1259 950 1255 947 q 1265 954 1263 953 q 1308 971 1285 963 q 1352 979 1331 979 q 1365 974 1360 979 q 1370 960 1370 968 q 1368 947 1370 954 q 1361 933 1365 940 q 1351 922 1356 926 q 1339 918 1345 918 q 1325 910 1332 916 q 1312 901 1318 905 q 1300 892 1306 896 q 1286 888 1293 888 q 1281 888 1284 888 q 1278 889 1279 888 q 1273 887 1278 889 q 1263 883 1269 886 q 1251 875 1257 880 q 1240 866 1244 871 q 1222 842 1229 850 q 1210 819 1215 833 q 1178 753 1192 785 q 1147 684 1164 721 q 1135 647 1138 667 q 1126 610 1132 628 q 1107 575 1120 593 q 1086 538 1094 557 q 1076 516 1080 527 q 1067 494 1072 505 q 1058 472 1063 484 q 1046 448 1053 461 q 1029 418 1040 434 q 1014 387 1019 402 q 1004 356 1008 372 q 997 325 1000 340 q 990 293 994 309 q 979 265 986 278 q 973 257 978 263 q 962 243 968 250 q 951 229 956 235 q 946 222 946 223 l 943 182 q 927 163 937 170 q 911 142 917 156 q 907 114 908 131 q 904 80 905 98 q 899 48 902 63 q 888 24 895 33 q 880 15 886 20 q 869 3 875 9 q 860 -6 864 -2 q 854 -9 855 -9 q 848 -13 852 -12 q 840 -14 844 -14 q 814 -9 827 -14 q 802 2 808 -8 q 791 27 796 12 q 782 58 787 41 q 775 91 778 75 q 770 118 772 106 q 766 134 768 130 l 762 196 q 760 206 762 198 q 754 222 758 214 q 749 238 751 231 q 747 246 747 245 q 737 298 739 273 q 730 347 734 323 q 727 354 730 350 q 719 363 723 358 q 710 377 715 369 q 702 387 704 385 q 700 398 702 389 q 697 410 699 407 q 696 416 697 410 q 694 422 695 421 l 684 422 q 663 412 672 422 q 647 389 654 402 q 634 361 640 375 q 623 340 628 348 q 617 335 621 338 q 609 326 613 331 q 600 315 604 321 q 594 304 596 309 l 589 269 q 587 263 589 267 q 582 256 585 260 q 577 248 579 252 q 574 243 574 244 q 570 219 572 231 q 562 196 569 207 q 558 191 560 192 q 554 188 556 189 q 549 184 551 186 q 546 177 547 182 q 543 164 545 172 q 538 148 541 156 q 534 133 536 139 q 532 124 532 126 l 532 87 q 531 83 532 85 q 531 80 531 81 q 522 49 528 68 q 509 12 517 30 q 489 -18 500 -5 q 464 -31 478 -31 q 444 -23 455 -31 q 423 -4 433 -15 q 404 20 412 7 q 393 41 396 32 q 385 69 387 55 q 380 98 382 83 q 376 127 378 112 q 371 156 374 142 q 365 171 369 164 q 355 184 360 178 q 347 198 351 191 q 340 212 342 205 q 328 250 335 232 q 313 285 321 268 q 297 320 305 302 q 281 357 289 337 q 280 364 281 360 q 279 370 279 368 l 279 405 q 274 418 277 411 q 265 434 270 426 q 256 449 260 441 q 248 463 251 456 q 247 467 248 463 q 243 474 245 471 q 232 516 238 496 q 218 557 225 536 q 206 598 212 577 q 197 641 200 618 q 185 656 189 648 q 180 674 182 665 q 176 692 178 683 q 171 711 174 702 q 153 755 161 733 q 135 797 144 777 q 113 837 125 817 q 83 874 100 856 q 65 881 75 880 q 46 884 55 882 q 30 891 37 886 q 23 907 23 895 l 22 924 q 28 937 22 930 q 43 944 34 941 q 61 948 52 946 q 80 950 71 949 q 97 950 90 950 q 106 948 101 949 q 113 947 112 947 l 115 947 q 171 952 142 947 q 227 960 201 957 l 281 954 l 322 960 l 396 950 q 412 936 410 946 q 414 915 414 926 l 414 902 l 406 892 l 340 892 q 323 882 332 886 q 308 873 315 878 q 297 859 301 867 q 293 838 293 851 q 296 826 293 831 q 302 817 298 821 q 309 808 305 812 q 314 798 313 803 q 320 767 318 782 q 324 738 322 753 q 330 707 326 722 q 340 675 334 692 q 347 661 342 671 q 358 638 353 650 q 369 615 364 626 q 374 601 374 605 l 383 528 l 414 484 q 416 478 415 482 q 417 468 416 473 q 418 459 418 463 q 419 453 419 454 q 429 406 422 430 q 445 361 435 382 l 458 337 q 462 329 459 334 q 469 317 465 323 q 475 307 472 311 q 479 300 478 302 q 485 288 483 296 q 489 273 487 280 q 495 261 492 266 q 506 256 499 256 q 520 260 513 256 q 536 278 528 264 q 543 287 538 281 q 555 301 549 294 q 567 316 562 309 q 574 326 572 323 q 578 348 574 339 q 587 365 582 357 q 597 381 592 373 q 607 400 603 389 l 634 484 q 641 504 637 494 q 649 524 645 514 q 655 545 652 534 q 658 569 658 556 q 653 597 658 584 q 643 624 648 611 q 633 651 637 637 q 628 680 628 665 l 628 684 z "},"X":{"ha":1124,"x_min":24,"x_max":1111,"o":"m 24 20 q 35 46 24 36 q 61 64 45 57 q 99 75 78 71 q 140 82 119 79 q 178 88 160 85 q 209 96 197 92 q 236 113 220 101 q 268 140 252 125 q 297 170 283 155 q 317 197 310 185 q 317 201 317 197 q 319 208 318 204 q 320 215 319 212 q 321 218 321 218 q 333 240 326 231 q 348 256 340 249 q 366 271 357 264 q 384 288 375 279 q 394 304 390 294 q 403 325 399 315 q 414 342 408 334 q 431 353 420 351 q 438 357 434 353 q 444 363 441 361 l 453 378 q 465 394 456 385 q 485 412 474 404 q 506 428 495 420 q 524 437 517 435 q 528 445 528 437 q 521 463 528 452 q 505 486 515 474 q 485 508 495 497 q 466 527 474 519 q 448 550 448 545 q 447 555 448 551 q 444 564 446 559 q 441 572 443 568 q 440 576 440 576 q 434 581 439 578 q 425 588 430 585 q 416 594 420 591 q 412 598 412 597 l 384 645 l 361 663 q 343 687 350 673 q 326 712 337 701 l 288 749 q 282 771 286 764 q 275 782 279 778 q 265 788 271 785 q 252 799 260 791 l 241 820 q 210 849 226 838 q 169 861 194 861 l 68 861 q 56 865 60 861 q 48 875 51 869 q 43 888 45 881 q 42 900 42 895 q 50 926 42 916 q 70 940 58 935 q 95 945 81 944 q 122 947 109 947 q 138 946 132 947 q 151 937 143 945 l 252 937 q 265 933 260 934 q 281 932 271 932 l 353 937 q 373 937 359 937 q 407 935 388 936 q 446 932 425 934 q 484 929 467 931 q 512 925 500 928 q 523 921 523 923 q 526 913 524 916 q 527 908 527 911 q 526 899 527 905 q 523 890 524 894 q 507 876 520 881 q 478 866 494 871 q 451 852 463 861 q 439 827 439 844 q 444 801 439 813 q 457 777 450 788 q 474 754 465 765 q 492 733 484 744 q 494 729 492 733 q 495 724 495 725 q 523 674 506 696 q 556 630 541 652 q 558 623 556 625 q 561 619 559 621 q 562 608 561 616 q 566 598 562 600 q 575 591 568 595 q 589 585 581 588 q 603 578 596 581 q 614 572 610 574 l 623 568 q 644 586 632 571 q 670 623 656 601 q 696 670 683 644 q 723 721 710 696 q 745 766 735 745 q 762 799 755 787 q 774 815 768 810 q 781 833 781 821 q 779 843 781 836 q 773 860 777 851 q 767 874 770 868 q 762 881 764 881 q 746 877 753 880 q 730 874 739 874 q 711 877 721 874 q 691 881 702 880 q 681 887 686 884 q 673 892 677 889 q 668 900 670 895 q 666 911 666 904 q 668 926 666 919 q 679 934 669 934 q 721 939 696 937 q 777 941 746 941 q 849 939 810 941 q 930 934 888 937 q 988 940 960 937 q 1043 943 1017 943 q 1066 938 1058 943 q 1074 914 1074 932 q 1067 899 1074 905 q 1049 889 1060 892 q 1025 883 1038 885 q 999 879 1011 880 q 977 874 987 877 q 963 868 967 872 l 927 833 l 903 821 q 886 805 895 815 q 867 783 876 794 q 851 760 859 771 q 840 739 844 748 q 839 729 840 736 q 836 720 838 722 q 829 718 834 719 q 823 717 823 717 q 799 695 812 709 q 775 673 786 682 q 767 650 768 663 q 759 630 766 638 l 727 598 q 704 565 713 581 q 677 532 694 550 q 665 511 665 520 q 678 472 665 493 q 706 432 690 452 q 736 397 722 413 q 752 374 750 382 l 780 323 q 801 298 787 310 q 823 277 814 286 q 841 241 834 258 q 859 205 848 223 q 870 195 861 199 q 883 186 879 190 q 922 144 907 159 q 945 122 937 130 q 955 112 953 114 q 958 108 958 110 l 992 79 q 1021 67 1006 71 q 1052 60 1036 64 q 1082 52 1067 56 q 1111 40 1097 48 l 1111 24 q 1107 11 1111 16 q 1097 4 1103 6 q 1083 1 1091 1 q 1067 0 1076 0 l 1050 0 q 1033 2 1042 0 q 1014 7 1024 5 q 994 12 1004 9 q 975 14 984 14 q 957 12 966 14 q 937 9 948 9 l 903 18 l 862 14 l 848 14 q 838 15 842 14 q 831 18 835 15 l 798 18 l 667 9 l 654 9 q 643 11 649 9 q 631 13 637 12 q 622 18 626 15 q 618 24 618 20 q 627 37 618 30 q 649 51 636 43 q 677 67 662 58 q 705 84 692 75 q 727 101 718 92 q 736 119 736 111 q 734 127 736 123 q 731 136 732 132 q 727 146 729 141 q 723 153 727 149 q 714 161 719 157 q 705 169 709 165 q 699 175 701 173 q 693 190 695 182 q 689 205 691 197 q 686 219 688 212 q 679 231 684 226 q 674 235 677 232 q 667 241 671 237 q 660 248 663 245 q 656 252 656 251 l 656 271 q 643 296 651 284 q 625 318 634 307 q 607 341 616 330 q 593 367 599 353 q 587 380 591 370 q 576 401 582 391 q 565 420 570 412 q 556 428 559 428 q 514 372 531 402 q 479 311 497 341 q 433 235 454 271 q 400 159 412 198 q 398 153 399 157 q 397 146 397 149 q 392 142 395 146 q 387 136 388 137 q 394 113 387 122 q 411 97 401 104 q 433 85 421 91 q 456 74 446 80 q 473 60 466 68 q 479 40 479 52 q 468 22 479 28 q 448 14 457 17 q 440 11 447 13 q 426 8 434 9 q 409 5 417 6 q 397 3 401 3 l 394 3 q 347 11 370 3 q 301 18 324 18 l 220 0 q 214 1 217 1 q 209 3 212 2 q 204 3 206 3 q 177 0 192 3 q 146 -9 161 -4 q 117 -17 131 -14 q 95 -21 104 -21 q 72 -16 84 -20 q 56 -13 59 -13 q 41 -7 47 -9 q 32 -3 35 -5 q 26 5 28 0 q 24 20 24 9 z "},"Y":{"ha":944,"x_min":37,"x_max":996,"o":"m 207 52 q 215 66 207 60 q 235 76 224 73 q 258 82 247 80 q 276 83 270 83 l 303 80 q 322 85 311 84 q 343 90 333 87 q 362 98 354 92 q 372 115 371 103 l 372 134 l 385 146 q 383 156 385 153 q 378 162 380 160 l 378 227 l 385 300 l 385 328 q 377 410 385 372 q 338 477 368 444 q 335 490 338 484 q 329 504 332 496 q 323 517 326 511 q 319 530 320 524 l 319 559 l 311 570 q 296 585 304 576 q 280 603 288 593 q 266 624 272 613 q 255 643 259 634 q 252 650 254 643 q 251 659 251 656 q 239 692 248 674 q 220 729 231 711 q 197 766 209 748 q 175 797 185 783 q 169 813 170 804 q 166 830 168 821 q 161 846 165 838 q 149 861 158 854 q 119 874 138 868 q 82 887 100 880 q 50 905 64 894 q 37 932 37 916 q 42 947 37 940 q 55 959 47 954 q 71 967 62 964 q 87 970 80 970 q 113 967 99 970 q 141 962 127 963 l 188 962 q 252 952 220 959 q 315 945 283 945 l 377 958 q 394 957 385 958 q 413 952 404 956 q 429 942 422 948 q 435 927 435 936 q 427 906 435 915 q 407 891 419 898 q 381 879 395 885 q 356 866 368 873 q 336 848 344 859 q 328 823 328 838 q 331 805 328 819 q 341 773 335 791 q 355 733 347 754 q 370 695 362 713 q 384 664 377 677 q 395 649 391 651 q 402 630 397 643 q 415 603 408 617 q 428 577 422 589 q 438 559 435 565 q 445 545 439 556 q 458 522 451 534 q 473 500 466 509 q 484 490 480 490 q 501 498 490 490 q 523 516 511 505 q 543 537 534 526 q 556 555 552 548 q 558 565 557 557 q 559 574 559 572 q 561 578 559 575 q 564 581 562 581 q 571 590 565 583 q 583 604 576 597 q 596 617 590 611 q 604 627 602 624 q 614 659 606 644 q 632 688 623 673 q 652 716 642 702 q 667 746 661 730 q 678 774 674 762 q 686 800 682 786 l 696 821 q 691 836 696 827 q 681 854 687 845 q 669 870 675 863 q 659 880 663 877 l 656 880 q 646 879 652 880 q 635 879 641 879 q 614 880 625 879 q 596 885 604 881 q 584 895 589 888 q 578 911 578 901 q 584 934 578 922 q 601 945 589 945 q 606 943 602 945 q 610 940 609 941 l 612 940 q 633 943 624 940 q 652 945 643 945 l 760 940 q 804 941 784 940 q 847 945 823 941 q 854 946 848 945 q 866 949 859 947 q 879 951 872 950 q 890 953 886 952 q 899 951 896 953 q 909 945 902 950 l 956 940 q 968 938 962 939 q 981 933 975 937 q 992 925 987 930 q 996 913 996 920 q 992 905 996 910 q 987 897 988 901 q 978 891 984 895 q 965 885 972 888 q 951 879 958 882 q 941 876 945 876 q 921 861 932 866 q 894 854 909 855 q 858 844 873 850 q 829 826 844 838 q 820 816 823 821 q 816 808 816 812 l 770 762 q 764 749 768 753 q 756 743 760 745 q 747 739 751 741 q 739 731 743 737 q 733 718 735 725 q 728 702 730 710 q 724 687 726 694 q 717 675 722 680 l 667 621 q 662 611 664 617 q 661 595 661 604 q 661 581 661 587 q 659 574 661 575 q 645 553 656 563 q 621 533 634 543 q 595 513 607 524 q 578 490 583 503 l 567 455 q 556 439 561 445 q 547 428 551 433 q 541 416 543 423 q 538 394 538 408 l 549 317 l 538 224 q 539 197 538 212 q 540 169 539 183 q 544 140 541 154 q 549 115 546 126 q 562 110 555 111 q 572 108 568 109 l 585 93 q 601 87 588 90 q 631 81 614 84 q 669 75 649 78 q 705 67 688 71 q 733 60 722 64 q 744 53 744 56 q 747 45 746 50 q 747 37 747 41 q 747 28 747 32 q 744 19 746 24 q 741 17 744 18 q 735 14 739 16 q 728 10 732 12 q 723 6 725 8 q 716 4 720 6 q 711 0 711 1 l 681 0 q 608 1 644 0 q 538 9 573 2 q 483 19 508 15 q 437 22 458 22 q 396 18 416 22 q 356 9 376 14 q 318 1 337 5 q 278 -3 298 -3 l 262 -3 q 234 -1 248 -3 q 212 12 220 1 q 208 29 208 18 q 207 52 207 41 z "},"Z":{"ha":975,"x_min":48,"x_max":937,"o":"m 68 11 q 67 16 68 12 q 67 22 67 19 q 67 29 67 26 q 66 33 66 32 l 66 42 q 68 56 66 50 q 74 69 69 62 q 86 83 77 72 q 107 108 96 95 q 128 133 119 121 q 139 148 138 144 q 154 168 146 157 q 170 191 162 179 q 183 215 177 203 q 191 239 189 227 q 204 251 195 242 q 222 268 212 259 q 239 286 231 277 q 250 298 247 294 q 273 330 264 313 q 296 363 282 347 q 304 372 297 365 q 319 386 311 378 q 334 400 327 393 q 341 408 340 406 q 343 414 342 410 q 345 422 344 418 q 348 430 347 427 q 349 435 349 434 q 353 439 350 436 q 358 445 355 441 q 365 451 361 448 q 370 454 368 454 q 376 465 370 456 q 388 483 381 473 q 400 502 395 493 q 408 513 406 511 q 412 519 409 515 q 417 527 414 523 q 424 535 420 532 q 428 540 427 538 q 434 547 429 543 q 441 553 439 551 q 445 554 441 553 q 451 556 448 555 q 457 557 454 557 q 460 558 460 558 q 461 564 460 559 q 463 572 463 568 q 465 581 464 577 q 467 585 466 585 q 470 589 467 586 q 476 595 473 592 q 483 601 479 598 q 487 604 486 604 q 488 610 487 606 q 490 618 489 614 q 492 626 491 623 q 492 631 492 630 l 495 634 q 497 636 496 635 q 500 637 498 636 q 503 640 500 637 q 508 644 505 642 q 514 648 511 646 q 518 650 517 650 q 525 655 523 653 q 527 661 526 658 q 528 667 527 663 q 532 675 529 670 q 541 694 536 684 q 554 713 547 705 q 571 728 562 722 q 591 736 580 734 q 597 748 593 739 q 607 768 602 758 q 616 788 612 779 q 623 800 621 797 q 629 815 628 810 q 630 831 630 821 q 626 844 630 839 q 614 852 621 849 q 600 856 608 854 q 584 859 591 857 l 578 859 q 561 855 568 859 q 545 852 553 852 q 541 852 542 852 q 538 853 539 852 q 531 856 536 853 q 526 859 526 859 q 520 858 524 859 q 512 856 516 857 q 504 854 508 854 q 500 853 500 853 q 482 852 496 852 q 453 850 469 851 q 424 848 437 849 q 408 846 411 846 q 403 845 407 846 q 395 843 399 844 q 387 842 391 842 q 382 841 383 841 q 372 843 379 841 q 362 846 364 845 l 258 846 q 251 843 256 846 q 239 838 245 841 q 228 831 233 835 q 219 826 222 828 q 206 816 216 825 q 185 795 197 807 q 162 772 174 783 q 145 754 151 760 q 131 730 139 747 q 114 695 123 713 q 93 666 104 678 q 68 657 81 654 q 59 663 62 659 q 53 674 55 668 q 49 686 50 680 q 48 696 48 692 q 52 718 48 707 q 62 739 56 728 q 73 760 67 749 q 81 780 78 770 q 82 787 81 782 q 84 797 83 791 q 86 807 85 803 q 87 813 87 812 q 91 821 87 815 q 97 833 94 827 q 103 846 100 840 q 106 853 106 852 q 111 877 111 866 q 113 897 112 888 q 118 914 114 906 q 132 930 122 922 q 138 931 134 931 q 146 932 142 932 q 155 932 151 932 q 161 932 159 932 q 204 927 182 932 q 245 905 227 922 l 278 905 q 322 909 300 905 q 366 913 344 913 q 384 909 375 913 q 402 905 393 905 l 408 905 q 413 907 409 905 q 424 912 418 909 q 434 916 429 914 q 441 918 439 918 q 445 917 441 918 q 453 915 449 916 q 461 913 458 914 q 467 913 465 913 l 474 913 q 494 915 484 913 q 515 918 504 918 l 526 918 q 586 908 556 912 q 650 905 616 905 l 656 905 q 660 906 656 905 q 666 909 663 907 q 672 911 669 910 q 675 913 675 913 q 699 912 680 913 q 735 911 718 911 q 751 911 745 911 q 760 913 757 911 q 778 917 769 913 q 796 925 787 921 q 814 933 805 930 q 831 937 823 937 l 839 937 q 846 936 842 937 q 854 934 850 935 q 862 932 859 933 q 865 930 865 931 q 868 925 865 930 q 873 914 870 920 q 879 902 876 908 q 884 892 882 896 l 884 887 q 879 868 884 878 q 866 851 873 859 q 851 837 859 844 q 839 826 843 831 q 784 753 807 791 q 734 675 760 715 q 688 621 714 646 q 643 566 663 595 q 639 555 641 564 q 637 545 637 547 q 633 543 635 545 q 630 540 631 540 q 626 537 629 539 q 620 534 623 536 q 613 530 616 532 q 610 527 610 528 q 600 517 606 524 q 587 505 593 511 q 576 493 581 498 q 571 487 572 488 q 567 478 570 486 q 561 462 564 471 q 555 445 557 453 q 551 435 552 437 q 536 411 547 423 q 518 389 526 399 q 502 369 514 384 q 477 338 490 355 q 451 306 463 321 q 434 285 439 291 l 428 272 q 415 255 427 271 q 386 219 402 240 q 352 177 369 199 q 323 141 334 155 q 313 130 318 134 q 304 121 308 125 q 298 110 300 116 q 296 95 296 104 q 301 86 296 90 q 313 81 306 83 q 326 78 319 79 q 336 76 333 77 q 342 75 337 76 q 352 73 347 74 q 363 71 358 72 q 370 69 368 70 q 373 67 370 69 q 381 63 377 66 q 390 59 386 61 q 395 56 394 57 l 397 56 l 401 56 q 450 72 426 64 q 500 82 473 81 q 511 82 504 82 q 529 83 519 83 q 551 83 539 83 q 574 83 563 83 q 620 83 598 83 q 650 82 641 82 q 655 86 651 84 q 663 89 660 89 q 669 86 664 89 q 675 82 674 83 l 678 82 l 682 82 q 686 85 683 83 q 691 89 688 87 q 697 93 694 92 q 701 95 701 95 q 708 93 703 96 q 714 89 713 89 l 718 89 l 722 89 q 727 96 723 91 q 737 106 732 101 q 747 116 742 111 q 754 122 752 120 q 760 125 758 123 q 764 127 762 126 q 767 128 766 127 q 769 133 768 129 q 773 141 771 137 q 778 150 776 146 q 780 154 779 153 q 782 158 781 155 q 786 164 784 161 q 790 170 789 168 q 793 174 792 173 q 800 188 794 176 q 812 213 806 200 q 824 238 819 227 q 831 252 830 250 q 844 265 833 256 q 867 283 854 274 q 890 298 879 292 q 907 305 902 305 q 922 299 916 305 q 932 283 928 292 q 936 265 935 275 q 937 250 937 256 q 937 244 937 248 q 936 239 937 241 q 927 220 933 234 q 913 191 920 206 q 900 161 906 175 q 891 141 893 146 q 875 94 881 117 q 859 54 869 72 q 832 25 850 37 q 780 11 814 14 l 768 11 l 752 11 q 740 10 745 11 q 727 5 734 9 l 330 5 q 316 2 326 3 q 296 0 307 1 q 277 -1 286 -1 q 265 -2 268 -2 q 256 -1 263 -2 q 241 1 249 0 q 227 3 233 2 q 219 5 220 4 l 211 5 l 204 5 q 195 1 203 3 q 186 -2 187 -2 l 139 -2 l 94 -2 q 81 1 90 -2 q 68 11 71 4 z "},"[":{"ha":582,"x_min":115,"x_max":632,"o":"m 574 974 q 585 966 583 972 q 587 953 587 960 l 587 943 q 586 917 587 928 q 578 889 585 905 q 574 883 578 886 q 567 880 571 881 q 559 877 563 878 q 554 876 555 876 q 509 871 530 872 q 466 869 488 869 l 431 869 q 412 863 422 863 l 405 863 q 376 867 389 863 q 349 871 362 871 q 339 871 345 871 q 331 869 332 871 q 316 868 325 869 q 297 866 307 867 q 281 864 288 865 q 272 863 273 863 q 267 860 271 863 q 259 852 263 857 q 251 844 255 848 q 246 838 248 840 q 241 811 242 829 q 239 779 239 794 l 239 764 q 241 694 239 732 q 246 629 243 656 q 248 622 246 627 q 253 611 250 617 q 257 601 255 606 q 259 596 259 597 l 259 585 q 257 573 259 578 q 246 563 256 568 l 246 517 q 245 512 246 516 q 243 504 244 509 q 240 496 241 500 q 239 492 239 492 q 240 485 239 490 q 240 473 240 479 q 240 459 240 467 q 241 445 241 452 q 241 432 241 437 q 239 426 241 427 q 238 421 239 425 q 234 413 236 417 q 229 405 231 408 q 227 400 227 401 l 227 397 l 227 393 q 228 389 227 393 q 230 380 229 385 q 232 372 231 376 q 233 367 233 368 l 233 339 l 233 328 q 234 323 233 327 q 236 314 235 319 q 238 306 237 310 q 239 302 239 302 l 239 296 l 239 289 q 238 284 239 288 q 236 276 237 280 q 234 268 235 271 q 233 263 233 264 l 233 259 l 233 257 q 234 245 233 254 q 236 227 235 237 q 238 209 237 217 q 239 197 239 200 q 240 187 239 196 q 240 166 240 178 q 241 144 241 155 q 241 125 241 132 q 241 111 241 121 q 240 90 241 101 q 240 68 240 79 q 239 54 239 58 q 236 41 238 51 q 233 28 233 31 q 233 16 233 25 q 233 -5 233 6 q 233 -25 233 -16 q 233 -37 233 -34 q 225 -47 230 -41 q 220 -56 220 -54 q 223 -67 220 -59 q 227 -76 227 -75 q 230 -110 230 -93 q 239 -143 230 -127 q 244 -148 241 -144 q 250 -155 247 -151 q 256 -163 254 -159 q 259 -168 259 -167 q 262 -175 260 -170 q 267 -188 264 -181 q 270 -200 269 -195 q 272 -206 272 -205 q 282 -216 275 -211 q 292 -222 290 -220 q 309 -223 297 -222 q 334 -225 321 -224 q 360 -227 348 -226 q 376 -228 372 -228 l 387 -228 l 397 -228 q 407 -227 399 -228 q 423 -225 414 -226 q 439 -223 432 -224 q 448 -222 447 -222 q 453 -220 450 -220 q 461 -220 456 -220 q 481 -221 471 -220 q 494 -222 492 -222 q 504 -218 496 -220 q 515 -215 512 -215 l 530 -215 l 548 -215 q 557 -218 549 -215 q 566 -222 564 -220 q 573 -221 567 -222 q 585 -220 580 -220 q 590 -220 588 -220 q 593 -222 593 -220 q 613 -230 606 -223 q 625 -247 621 -237 q 630 -269 629 -257 q 632 -290 632 -280 l 632 -294 q 611 -312 623 -305 q 587 -321 600 -318 q 560 -325 574 -324 q 532 -326 546 -326 q 473 -324 502 -326 q 414 -318 444 -321 q 356 -313 385 -315 q 298 -311 327 -311 l 252 -311 q 248 -312 252 -311 q 240 -315 245 -313 q 232 -318 236 -317 q 227 -319 228 -319 q 197 -316 213 -319 q 167 -304 180 -312 q 144 -285 153 -297 q 135 -257 135 -273 q 138 -186 135 -222 q 142 -115 142 -151 q 136 -53 142 -84 q 129 8 131 -22 l 129 27 l 129 74 q 128 89 129 77 q 126 116 127 102 q 124 143 125 130 q 122 159 123 155 l 122 161 l 122 165 q 123 185 123 172 q 125 217 124 199 q 126 253 125 234 q 127 290 127 272 q 128 321 127 307 q 129 341 129 334 q 133 351 131 343 q 135 361 135 358 l 135 363 l 135 367 q 129 377 134 369 q 122 387 125 385 l 122 596 q 126 605 123 597 q 129 615 129 612 q 128 625 129 617 q 125 641 127 633 q 123 657 124 650 q 122 667 122 665 l 122 785 q 121 789 122 785 q 119 798 120 793 q 117 807 118 803 q 116 810 116 810 q 116 819 116 811 q 115 836 115 826 q 115 854 115 845 q 115 869 115 864 q 115 882 115 873 q 115 900 115 890 q 116 917 115 909 q 116 928 116 924 q 136 945 125 940 q 158 952 146 951 q 181 954 169 954 q 206 955 193 954 q 215 956 208 955 q 230 958 222 957 q 244 960 238 959 q 252 961 251 961 l 272 961 l 326 961 q 335 964 328 961 q 344 968 342 968 q 361 969 348 968 q 390 971 374 970 q 420 973 406 972 q 444 974 435 974 l 455 974 l 489 974 q 498 978 490 975 q 507 981 506 981 l 515 981 l 519 981 q 531 980 523 981 q 547 978 538 979 q 563 976 555 977 q 574 974 570 975 z "},"\\":{"ha":399,"x_min":-111,"x_max":469,"o":"m 374 -302 q 370 -286 372 -290 q 364 -278 367 -281 q 358 -271 361 -275 q 351 -256 355 -267 l 351 -236 q 346 -221 349 -227 q 337 -210 342 -215 q 327 -201 332 -205 q 318 -189 322 -197 q 313 -179 315 -186 q 310 -165 311 -172 q 309 -150 309 -157 q 309 -136 309 -142 l 309 -119 q 300 -109 304 -116 q 296 -94 296 -101 l 283 -69 q 276 -59 280 -66 q 271 -47 271 -52 q 274 -39 271 -43 q 276 -34 276 -35 q 273 -13 276 -21 q 267 2 271 -4 q 259 14 263 9 q 251 24 254 18 q 248 44 249 31 q 244 69 246 56 q 240 94 243 82 q 233 111 238 105 q 229 114 233 111 q 219 122 224 117 q 209 131 214 127 q 204 137 205 135 l 199 164 q 197 168 199 165 q 192 173 195 171 q 186 178 189 176 q 183 180 184 180 q 176 202 176 188 l 177 231 q 176 250 177 242 q 170 267 174 258 q 157 282 165 273 q 141 303 149 292 q 126 323 133 314 q 117 339 119 333 q 114 363 115 351 q 103 389 114 376 q 95 405 97 399 q 91 415 92 410 q 87 427 90 420 q 79 444 85 433 l 79 463 l 52 541 q 45 549 48 545 q 39 562 41 554 q 39 582 39 576 q 40 593 39 588 q 6 667 14 625 l 6 690 q 5 701 6 697 q -2 709 4 705 q -16 727 -7 716 q -33 750 -24 738 q -50 774 -42 762 q -62 794 -58 785 q -63 821 -62 814 q -66 833 -63 827 q -78 848 -73 842 q -89 861 -84 854 q -96 874 -93 867 q -98 893 -98 882 l -98 929 q -102 933 -100 930 q -106 940 -104 937 q -109 947 -108 944 q -111 951 -111 951 l -111 995 q -87 1005 -101 1000 q -63 1010 -74 1010 q -28 1001 -42 1010 q -2 976 -15 991 q 5 961 0 976 q 15 928 9 947 q 23 892 20 909 q 27 871 27 876 q 46 833 35 851 q 64 794 57 814 q 89 717 77 756 q 117 641 102 677 q 129 621 122 629 q 141 605 135 612 q 151 589 146 597 q 155 567 155 580 l 156 553 q 159 546 156 551 q 163 538 162 540 q 176 516 171 530 q 185 486 181 502 q 192 454 189 470 q 199 428 195 439 q 207 407 201 417 q 217 388 212 397 q 228 369 222 378 q 235 347 233 359 q 235 339 235 345 q 239 325 236 334 q 257 269 247 298 q 281 216 267 239 q 290 205 283 218 q 304 171 296 192 q 323 124 313 150 q 343 73 334 98 q 362 28 353 48 q 376 -2 370 7 q 381 -15 379 -9 q 384 -32 384 -21 q 384 -46 384 -41 q 386 -55 385 -51 q 390 -59 387 -56 q 398 -65 393 -62 q 406 -73 402 -69 q 410 -77 409 -76 q 410 -84 410 -79 q 412 -95 411 -89 q 413 -107 412 -101 q 413 -115 413 -113 q 422 -132 416 -125 q 432 -144 429 -138 l 432 -157 q 440 -183 434 -171 q 453 -209 446 -196 q 464 -235 459 -222 q 469 -262 469 -248 q 464 -272 469 -264 q 451 -290 458 -281 q 437 -307 444 -300 q 426 -315 430 -315 l 374 -302 z "},"]":{"ha":614,"x_min":-11,"x_max":507,"o":"m 48 -319 q 37 -311 39 -317 q 35 -298 35 -305 l 35 -289 q 36 -261 35 -273 q 43 -235 37 -250 q 47 -229 43 -232 q 55 -225 50 -227 q 63 -223 59 -224 q 68 -222 66 -222 q 113 -216 92 -217 q 156 -215 134 -215 l 191 -215 q 210 -209 200 -209 l 217 -209 q 245 -212 232 -209 q 273 -216 259 -216 q 283 -216 277 -216 q 291 -215 289 -216 q 306 -214 296 -215 q 325 -212 315 -213 q 341 -210 334 -211 q 349 -209 348 -209 q 354 -205 351 -208 q 362 -198 358 -202 q 370 -190 366 -194 q 375 -183 374 -185 q 381 -157 380 -174 q 382 -124 382 -140 l 382 -109 q 380 -40 382 -77 q 375 26 378 -2 q 373 33 375 28 q 369 43 372 37 q 365 53 367 49 q 362 58 363 58 l 362 69 q 364 82 362 77 q 375 92 366 87 l 375 137 q 376 142 375 138 q 379 151 377 146 q 381 158 380 155 q 382 163 382 162 q 382 170 382 165 q 382 182 382 175 q 381 196 382 189 q 381 210 381 203 q 381 222 381 218 q 382 229 381 227 q 384 234 382 230 q 388 242 386 238 q 392 250 390 246 q 395 254 394 254 l 395 258 l 395 262 q 394 266 395 262 q 392 274 393 270 q 389 282 390 279 q 388 288 388 286 l 388 315 l 388 326 q 387 332 388 328 q 385 340 386 336 q 383 348 384 345 q 382 353 382 352 l 382 359 l 382 366 q 383 371 382 367 q 385 379 384 374 q 387 387 386 383 q 388 392 388 391 l 388 395 l 388 397 q 387 409 388 400 q 385 428 386 418 q 383 446 384 437 q 382 458 382 455 q 382 468 382 459 q 381 488 382 477 q 380 511 380 499 q 380 529 380 522 q 380 543 380 533 q 381 565 380 553 q 382 587 382 576 q 382 601 382 597 q 386 614 383 604 q 388 627 388 624 q 389 639 388 630 q 389 659 389 648 q 389 680 389 670 q 388 692 388 689 q 396 702 391 695 q 401 711 401 708 q 398 722 401 714 q 395 731 395 730 q 392 765 392 748 q 382 798 392 782 q 378 802 381 798 q 371 810 374 806 q 366 818 368 814 q 362 823 363 821 q 359 830 361 825 q 355 843 357 836 q 352 854 353 849 q 349 861 350 860 q 339 870 347 865 q 330 876 332 875 q 313 877 325 876 q 287 879 300 878 q 262 881 274 880 q 245 882 250 882 l 235 882 l 224 882 q 215 881 222 882 q 199 879 208 880 q 182 877 190 878 q 174 876 175 876 q 169 876 172 876 q 161 876 165 876 q 140 876 151 876 q 127 876 130 876 q 117 872 125 875 q 106 869 109 869 l 92 869 l 74 869 q 65 872 73 869 q 56 876 57 875 q 48 876 54 876 q 36 876 41 876 q 28 876 29 876 q 8 885 16 878 q -3 902 1 892 q -9 924 -7 912 q -11 945 -11 935 l -11 948 q 10 966 -2 960 q 35 976 22 972 q 62 980 48 979 q 90 981 76 981 q 149 978 119 981 q 208 973 178 976 q 266 968 237 970 q 323 966 294 966 l 370 966 q 373 967 370 966 q 381 970 377 968 q 390 972 386 971 q 395 974 394 974 q 425 970 409 974 q 455 959 441 966 q 478 940 469 951 q 487 911 487 928 q 483 841 487 876 q 479 770 479 806 q 485 708 479 739 q 492 646 491 677 l 492 628 l 492 581 q 494 565 493 577 q 495 539 494 553 q 497 512 496 525 q 500 496 498 500 l 500 494 l 500 489 q 498 469 499 482 q 497 438 498 455 q 496 401 496 420 q 494 365 495 382 q 493 334 494 348 q 492 313 492 320 q 489 304 491 311 q 487 293 487 296 l 487 291 l 487 288 q 492 278 488 286 q 500 267 496 271 l 500 58 q 495 50 498 57 q 492 40 492 43 q 493 30 492 38 q 496 14 494 22 q 499 -3 498 5 q 500 -13 500 -11 l 500 -130 q 500 -135 500 -131 q 502 -143 501 -139 q 504 -152 503 -148 q 505 -156 505 -155 q 506 -164 506 -157 q 507 -181 507 -172 q 507 -200 507 -191 q 507 -215 507 -210 q 507 -228 507 -219 q 507 -245 507 -236 q 506 -262 507 -254 q 505 -273 506 -271 q 486 -291 496 -286 q 464 -298 475 -296 q 440 -300 452 -300 q 415 -300 428 -300 q 406 -301 413 -300 q 391 -303 399 -302 q 377 -306 384 -304 q 370 -307 371 -307 l 349 -307 l 296 -307 q 292 -308 295 -307 q 287 -310 290 -309 q 281 -312 283 -311 q 278 -313 278 -313 q 261 -315 274 -314 q 232 -317 248 -316 q 201 -319 216 -318 q 178 -319 186 -319 l 166 -319 l 132 -319 q 123 -323 131 -320 q 115 -326 116 -326 l 106 -326 l 102 -326 q 91 -325 98 -326 q 75 -322 83 -323 q 59 -320 66 -321 q 48 -319 52 -319 z "},"^":{"ha":654,"x_min":172,"x_max":454,"o":"m 321 670 l 317 670 q 300 655 308 665 q 287 633 293 645 q 276 610 281 622 q 266 590 271 598 q 261 586 264 589 q 255 577 258 582 q 249 569 252 573 q 245 564 246 566 q 237 542 240 554 q 230 518 234 529 q 219 499 226 507 q 197 492 212 492 q 181 497 190 492 q 174 511 172 502 q 182 534 176 524 q 195 555 188 545 q 209 576 202 566 q 220 598 216 587 q 229 633 225 614 q 238 671 233 652 q 250 708 243 690 q 266 741 256 726 q 275 756 269 746 q 289 776 282 766 q 303 795 296 787 q 311 807 309 804 q 321 817 313 810 q 332 826 328 824 q 334 827 332 826 q 335 827 335 827 q 337 827 336 827 q 340 827 338 827 q 345 826 342 826 q 374 817 363 821 q 396 800 385 813 q 399 793 397 798 q 403 787 401 789 q 424 705 414 746 q 441 623 433 665 q 449 598 444 612 q 454 570 454 584 l 454 564 q 453 560 454 564 q 451 552 452 556 q 450 544 450 547 q 449 540 449 541 l 449 535 q 452 516 449 526 q 454 496 454 506 q 450 472 454 483 q 436 453 446 460 q 429 459 434 455 q 418 467 424 463 q 409 474 413 471 q 403 479 404 477 q 399 485 401 480 q 396 493 397 490 q 393 499 395 494 q 389 509 391 504 q 385 519 387 515 q 383 524 383 524 q 380 530 382 526 q 376 538 378 534 q 372 547 374 543 q 370 551 370 551 q 367 563 369 553 q 363 584 365 573 q 359 605 361 595 q 357 616 357 614 q 352 629 355 622 q 345 644 349 637 q 335 659 340 652 q 324 670 330 666 l 321 670 z "},"_":{"ha":655,"x_min":14,"x_max":642,"o":"m 14 -140 l 14 -109 q 14 -87 14 -100 q 19 -61 15 -74 q 32 -39 23 -49 q 57 -28 41 -30 l 102 -28 q 136 -20 120 -25 q 174 -15 153 -15 l 224 -24 q 244 -21 237 -24 q 262 -19 252 -19 q 292 -22 277 -19 q 322 -27 307 -24 q 351 -33 336 -31 q 380 -35 366 -35 l 479 -22 l 517 -28 q 529 -26 524 -28 q 541 -21 533 -24 q 552 -17 548 -18 q 568 -15 557 -15 q 607 -22 589 -15 q 637 -42 626 -28 q 642 -48 642 -44 q 641 -53 642 -51 q 640 -56 640 -55 q 637 -60 638 -58 q 637 -78 637 -69 q 634 -94 636 -86 l 637 -124 l 633 -143 q 614 -155 625 -151 q 592 -162 604 -160 q 569 -166 581 -165 q 546 -167 557 -167 q 498 -164 525 -167 q 450 -161 472 -161 q 195 -167 322 -161 q 138 -172 166 -168 q 83 -177 109 -177 q 62 -174 73 -177 q 42 -165 52 -171 q 24 -154 32 -160 q 14 -140 16 -147 z "},"`":{"ha":726,"x_min":158,"x_max":474,"o":"m 158 950 q 163 974 158 963 q 178 994 169 985 q 198 1006 186 1002 q 222 1011 210 1011 q 250 1005 237 1011 q 274 989 263 999 q 296 968 286 980 q 315 945 306 956 q 318 941 316 943 q 321 937 320 939 q 327 931 323 936 q 334 920 330 926 q 342 908 338 914 q 347 899 346 902 q 350 894 348 897 q 354 886 352 890 q 358 878 356 882 q 360 873 359 874 q 364 869 361 871 q 368 865 366 867 q 388 851 376 859 q 406 833 399 842 q 411 827 407 832 q 419 814 414 821 q 427 802 423 808 q 431 794 431 796 q 437 789 433 793 q 446 782 441 786 q 454 773 450 777 q 460 768 458 770 q 465 753 463 764 q 470 731 468 743 q 473 710 472 720 q 474 694 474 699 q 458 695 467 694 q 439 696 449 695 q 420 701 429 698 q 406 709 412 704 q 403 716 406 711 q 401 722 401 722 q 397 724 400 723 q 391 727 394 726 q 384 728 387 728 q 380 730 380 729 q 374 735 378 730 q 364 745 370 740 q 354 755 359 751 q 347 761 349 760 q 338 765 346 763 q 330 768 331 767 q 311 782 321 774 q 291 800 301 791 q 272 818 281 809 q 256 833 263 827 q 242 845 253 836 q 220 866 232 855 q 197 887 208 878 q 184 899 186 897 q 166 923 174 910 q 158 950 158 935 z "},"a":{"ha":600,"x_min":49,"x_max":599,"o":"m 332 80 q 324 72 330 79 q 315 66 318 66 l 289 53 q 284 50 288 52 q 278 44 281 47 q 271 39 274 41 q 268 37 269 37 q 263 35 267 36 q 255 34 259 35 q 247 33 250 33 q 241 33 243 33 q 231 28 235 31 q 222 20 227 24 q 212 11 218 16 q 200 3 207 7 l 136 3 q 126 5 132 3 q 114 8 121 6 q 102 13 108 10 q 92 18 96 16 q 89 24 92 19 q 84 33 85 29 q 82 36 83 34 q 80 40 80 38 l 62 58 q 53 85 56 68 q 49 113 49 102 l 54 127 l 49 141 l 49 149 q 51 158 49 153 q 54 170 52 164 q 58 181 56 176 q 62 188 60 186 q 67 193 62 189 q 77 203 71 197 q 86 214 82 209 q 92 220 91 218 q 97 225 93 220 q 102 231 102 230 l 103 234 q 104 237 104 235 q 126 253 115 244 q 151 267 137 261 q 160 272 151 268 q 181 280 170 275 q 203 288 192 284 q 219 292 214 291 q 233 301 226 296 q 248 311 241 307 q 261 320 255 316 q 271 323 267 323 l 289 323 q 293 326 290 323 q 296 328 294 326 q 310 330 299 328 q 323 331 320 331 l 332 342 q 342 347 337 345 q 351 351 347 349 q 358 356 355 353 q 363 367 361 360 q 369 397 368 381 q 371 427 371 413 l 371 442 q 367 450 371 444 q 363 458 363 456 l 355 493 l 340 511 l 332 526 q 327 532 330 527 q 323 541 324 538 q 313 549 322 545 q 294 556 304 553 q 272 561 283 559 q 258 562 262 562 q 247 563 256 562 q 232 563 238 563 q 215 562 226 563 q 195 558 205 561 q 179 549 186 555 q 172 535 172 544 l 172 529 q 174 523 172 528 q 178 514 176 519 q 182 504 180 509 q 184 498 184 500 q 182 491 184 496 q 179 480 180 486 q 166 447 174 458 q 140 425 158 435 l 132 418 q 127 414 130 416 l 76 414 q 66 419 70 414 q 59 430 62 424 q 55 443 56 437 q 54 453 54 450 q 55 464 54 457 q 59 477 56 471 q 65 489 62 484 q 71 498 68 495 q 76 507 73 503 q 79 512 77 510 q 81 515 81 514 l 92 526 q 117 545 107 535 q 141 567 127 555 l 189 598 q 201 607 195 604 q 213 612 207 610 q 225 616 219 614 q 241 621 232 617 q 244 622 241 621 q 251 625 248 623 q 258 628 254 627 q 262 630 261 629 q 276 633 266 631 q 297 637 286 635 q 318 640 308 639 q 332 642 328 642 q 339 639 336 642 q 343 637 342 637 q 349 636 345 637 q 358 635 353 636 q 366 634 362 635 q 371 633 370 634 q 382 630 375 632 q 395 625 389 627 q 408 620 402 622 q 414 617 413 618 q 418 614 415 616 q 424 607 420 611 q 431 600 428 604 q 436 595 435 597 q 451 575 444 584 q 463 555 459 566 q 468 540 466 548 q 471 525 469 532 q 475 511 473 517 q 484 498 478 504 l 484 456 q 481 369 484 412 q 477 280 478 326 q 472 267 474 273 q 470 252 470 260 q 472 239 470 246 q 473 228 473 231 l 467 215 q 467 210 467 212 l 467 202 q 467 180 467 192 q 471 157 468 169 q 478 136 473 146 q 493 119 484 125 q 502 111 496 116 q 511 106 508 106 l 513 106 q 529 108 520 106 q 547 114 538 111 q 567 119 557 117 q 586 122 576 122 q 599 114 599 122 q 590 72 599 92 q 567 36 582 52 q 532 10 552 20 q 490 0 513 0 q 445 2 467 0 q 397 14 423 5 l 393 18 q 386 26 391 19 q 375 41 381 33 q 365 57 370 50 q 359 66 360 64 l 343 80 l 338 80 l 332 80 m 179 182 q 183 157 179 171 q 194 130 186 142 q 212 109 201 117 q 237 100 223 100 q 241 100 239 100 q 253 106 243 101 l 315 111 q 321 117 317 113 q 330 126 326 121 q 338 135 334 131 q 343 141 342 139 q 346 145 344 141 q 350 155 347 149 q 355 168 353 161 q 359 180 357 175 q 362 191 361 184 q 363 198 363 197 q 361 213 362 205 q 361 228 361 220 q 361 240 361 235 q 363 252 362 246 l 368 267 l 368 279 q 360 300 368 291 q 338 310 353 310 q 319 305 327 310 q 301 292 311 300 q 288 285 298 290 q 266 275 277 280 q 245 265 255 270 q 232 259 235 260 l 219 252 q 214 251 218 252 q 210 249 210 250 l 200 231 l 184 215 q 180 198 180 208 q 179 182 179 188 z "},"b":{"ha":743,"x_min":5,"x_max":695,"o":"m 123 2 q 105 15 114 5 q 96 39 96 25 l 96 136 l 92 157 q 103 204 98 179 q 108 252 108 229 q 105 260 108 257 q 100 267 103 264 q 95 272 97 270 q 92 278 92 275 q 94 330 92 304 q 96 378 96 356 l 96 397 l 92 414 q 96 454 92 434 q 100 496 100 475 q 99 517 100 508 q 92 536 98 526 l 102 612 l 94 659 l 98 759 l 96 789 q 94 813 92 800 q 89 836 95 826 q 75 856 83 847 q 60 871 67 865 q 37 886 50 882 q 7 897 24 890 l 5 913 q 27 938 18 928 q 45 956 36 949 q 64 969 54 964 q 89 981 75 975 l 118 1003 l 195 1013 q 209 1007 200 1013 q 225 993 217 1001 q 239 976 233 985 q 245 960 245 966 q 239 923 245 940 q 233 890 233 906 q 232 868 233 877 q 230 851 231 859 q 228 834 229 843 q 227 814 227 826 l 220 752 l 220 645 q 220 631 220 637 q 218 616 219 625 q 216 585 216 598 q 217 576 216 581 q 220 565 218 570 q 225 555 222 559 q 233 551 229 551 q 255 556 246 551 q 273 568 264 561 q 289 582 281 574 q 306 593 296 589 q 339 604 321 600 q 377 610 357 608 q 415 614 396 612 q 451 615 435 615 q 464 613 459 615 q 473 610 469 612 q 481 605 477 608 q 494 602 486 603 l 520 598 l 530 593 q 551 578 539 585 q 574 563 562 570 q 597 546 586 555 q 616 527 608 537 q 645 487 631 509 q 670 441 659 465 q 688 390 682 416 q 695 339 695 364 q 687 274 690 307 q 674 209 685 241 q 654 153 665 176 q 628 113 643 131 q 593 80 613 96 q 544 45 572 64 q 526 36 533 39 q 514 31 519 33 q 502 25 508 28 q 486 14 495 22 l 476 6 l 306 -8 l 248 -1 q 232 0 243 -1 q 208 2 220 1 q 182 5 195 3 q 159 8 169 6 l 123 2 m 216 288 q 218 269 216 282 q 223 240 220 256 q 230 206 226 224 q 238 174 234 189 q 247 148 243 159 q 254 136 251 138 q 268 125 262 130 q 277 116 273 121 q 286 106 281 112 q 298 92 291 100 q 308 82 302 87 q 320 74 313 78 q 332 65 326 69 q 342 56 338 60 l 403 56 q 429 57 415 56 q 456 61 443 58 q 481 71 469 64 q 499 90 492 78 q 510 124 505 104 q 525 157 515 144 l 544 180 q 545 187 544 181 q 548 201 546 193 q 551 218 549 210 q 555 233 553 227 q 553 248 555 241 q 551 262 551 254 l 558 291 q 557 308 558 296 q 554 335 556 320 q 549 367 551 351 q 542 398 546 383 q 534 424 538 413 q 525 440 530 435 l 467 498 q 444 505 454 498 q 421 521 433 513 q 398 537 410 530 q 372 545 386 545 l 311 532 l 277 532 q 262 527 267 532 q 248 519 256 522 q 242 517 247 519 q 233 513 238 516 q 224 506 228 511 q 220 496 220 502 l 220 440 q 213 421 213 435 q 214 415 213 418 q 216 410 216 412 l 220 353 l 216 288 z "},"c":{"ha":596,"x_min":48,"x_max":551,"o":"m 267 3 q 187 20 223 3 q 128 75 151 37 l 95 109 q 90 122 94 113 q 81 142 86 132 q 73 162 77 153 q 68 174 68 171 l 68 210 q 64 225 67 218 q 57 238 61 231 q 51 251 54 244 q 48 265 48 257 l 54 349 q 52 361 54 355 q 50 376 50 368 q 52 392 50 385 q 57 406 54 399 q 62 420 60 412 q 64 440 64 428 l 112 501 l 107 511 q 112 517 109 514 q 116 524 114 520 q 121 530 119 527 q 214 609 161 580 q 330 656 267 639 l 342 659 q 415 652 378 659 q 486 633 452 646 q 501 619 490 622 q 521 616 511 616 q 532 597 527 605 q 542 581 538 589 q 548 563 546 572 q 551 542 551 554 q 534 500 551 517 q 486 484 517 484 q 480 491 484 486 q 473 499 477 495 q 465 507 469 504 q 460 511 462 511 q 453 514 459 513 q 446 515 447 515 q 421 538 430 522 q 404 570 413 554 q 381 598 395 586 q 342 610 368 610 q 306 604 322 610 q 275 587 290 597 q 247 563 260 576 q 220 534 233 549 q 211 523 217 528 q 203 511 205 517 l 203 484 l 197 475 q 182 434 186 454 q 178 389 178 414 q 178 379 178 385 q 179 368 178 374 q 180 358 180 362 q 183 353 181 353 q 183 340 183 348 q 184 325 184 332 q 186 312 185 317 q 186 307 186 307 l 193 297 l 193 278 q 194 251 193 262 q 200 229 196 239 q 209 208 203 218 q 220 184 214 197 q 225 175 220 183 q 237 158 231 168 q 248 141 243 149 q 255 132 254 134 q 269 124 260 125 q 283 119 278 123 q 301 105 294 111 q 315 95 308 99 q 330 89 322 91 q 352 87 338 87 q 416 100 383 87 q 473 132 448 113 q 485 142 478 136 q 498 155 491 149 q 512 165 505 161 q 526 170 519 170 q 542 165 538 170 q 547 149 547 161 l 547 141 q 510 75 535 102 q 453 29 486 47 q 383 2 420 11 q 310 -7 346 -7 l 289 -7 l 277 3 l 267 3 z "}}}
